<?xml version="1.0" encoding="UTF-8"?>
<svg version="1.1" viewBox="0 0 1600 1600" width="1280" height="1280" xmlns="http://www.w3.org/2000/svg">
<path transform="translate(0)" d="m0 0h1600v1600h-1600z" fill="#FDFCEF"/>
<path transform="translate(0)" d="m0 0h1600v1600h-200v-22l-4-27-9-47-1-11 7-6 1-4-2-6-16 8-15 6-14 4-14 3-15 2-13 1h-43l-30-3-30-5-32-8-16-5 2-4 19 6 28 7 30 5 30 3h41l29-3 22-5 16-6 17-8 3-2-2-12-9-50-5-38-2-23v-49l1-3 25-9 17-9 16-12 6-5 7-8 8-10 3-6-4-7-9 10-7 8-10 9-10 7-13 8-21 10-8 2 1-4 15-6 16-8 12-8 11-9 6-5 9-11 5-6-2-5-10-16-14-20-20-26-13-16-10-13-5-7-16-41-5-16-8-41-3-24v-11l36-1 9-5 5-10v-638l-2-10-4-6-8-4h-1159l-8 5-4 6-1 3v644l4 9 5 4 5 2 102 1 4 20 1 8v16l-1 5 14 8 15 7 14 5 2 2v7l-3 12-37 4-23 5-14 7-16 11-14 11-11 10-8 7-17 16-7 7-7 8-9 9-7 8-10 11-9 11-12 14-11 14-14 18-12 17-8 13-5 13-4 16v20l4 12 8 16 10 19 12 19 13 19 13 18 14 18 11 14 13 16 11 13 9 11 11 13 7 9-5 29-2 13-1 20v8h-242z" fill="#FDFCEF"/>
<path transform="translate(246,345)" d="m0 0h1108l6 3 7 8 2 7v585l-4 10-7 6-6 2h-11v-23l1-15v-26l-4-15-7-12-10-9-17-9-8-9-13-10-16-8-14-4-11-2h-23l-20 4-16 6-14 8-9 7-10 9-7 8-8 13-5 10-3 8-1 6v19l5 10 5 5-1 28h-379l-1-8h-4-2l-2 5-2 3h-215l2-27 6-5 4-6 3-11v-11l-3-15-4-9-7-8-6-3-10-1-2-7-4-11-6-9-9-8-13-6-13-3h-29l-18 4-16 7-11 8-2 2h-12l-13 2-16 6-11 7-9 8-13 18-6 12-4 16-1 19 1 10 2-7h1l2 21v8h-66l-8-4-6-7-2-5v-590l4-8 6-5z" fill="#FCFCFC"/>
<path transform="translate(220,318)" d="m0 0h1159l8 4 6 9 1 8v638l-5 10-7 5-3 1h-36l3 28 6 34 5 21 8 22 12 30 13 16 11 14 14 18 12 16 20 30 3 5-2 5-11 12-4 5-11 9-13 9-14 8-20 8-1 3 21-9 17-9 16-12 13-12 10-13 3 3 3 6-7 10-9 10-5 6-17 13-18 10-18 7-9 2v52l2 23 5 38 9 50 2 12-10 6-21 9-22 6-22 3-13 1h-41l-30-3-30-5-32-8-15-5-1-3 7-41 3-26 2-36v-22l-2-35-2-16-5-7-3 3-9-1-15-5-23-12-14-10v-2l-4-2-13-12-1-3h-2l-11-14-4-6 2-4 12-11 7-8 14-17 10-13 13-16 9-11 12-14 1-1 4-29 5-23 10-33 10-27 3-12v-20l-3-23-5-15-3-4-16-4-8-4-7-7-4-9v-19l2-8 5-13 10-16 11-12 10-9 18-11 15-6 16-4 7-1h23l19 4 15 6 11 7 13 11 5 6 16 8 11 10 7 12 4 15v26l-2 38 15-2 8-6 4-10v-585l-3-9-8-7-3-1h-1108l-8 4-5 7-1 3v590l4 8 6 5 5 2 66 1-2-21-1-4-2 4-1-1-1-18 2-16 5-16 6-10 9-12 7-8 11-8 12-6 13-4 17-1 5-1 10-8 15-7 15-4 6-1h29l16 4 13 7 9 9 7 14 2 10 13 2 10 9 4 8 3 11 1 7v11l-4 13-6 7-8 5-6 2-9 1-2 6-8 20-5 18-2 6-2-4v-23l-2 12-2 22-4 17-8 16-8 12-9 10-9 7-6 3-3-1 9-8-16 6-17 4-15 2h-8l-17-3-23-8-23-11-7-5 1-5v-16l-4-25v-3h-102l-8-4-5-6-2-6v-644l4-8 6-5z" fill="#643053"/>
<path transform="translate(246,345)" d="m0 0h1108l6 3 7 8 2 7v585l-4 10-7 6-6 2h-11v-23l1-15v-26l-4-15-7-12-10-9-17-9-8-9-4-3v-378l4 1 3 3 4-2 3-4-13-13-7-8-8-8-8-7-4-4-4 2-3 4 3 3v2h-232l2-4v-3l-6-5-40 40 2 4 3 3 4-2 4-4h2v98l-1 1-81 10-57 7-50 6-37 5-160 20h-15l2-1v-2l-3 1-1-1v-142l8 4 5-5-2-4-38-38-7 6 3 4v2h-232l2-4v-3l-4-4-4 2-9 9-8 7-15 16-6 7 5 5 4-2 3-3h3v398l-4-2-4-4-4 2-3 4 15 15 6 7 3 3-1 5-5 16-2 16 1 18 2-7h1l2 21v8h-66l-8-4-6-7-2-5v-590l4-8 6-5z" fill="#FCFCFC"/>
<path transform="translate(707,1057)" d="m0 0 18 2 14 4 9 6 3 4-1 9-9 43-9 37-8 30-8 27-9 25-10 23-10 18-10 13-11 10-13 6-11 2h-9l-14-3-24-11-38-20-22-12-10-6-9-6-3-1-2 21-16 167-4 45-7 3h-3l11 38 9 29 2 9 1 14 6 17h-268l-1-16 2-19 6-33-2-5-9-10-9-11-11-13-9-11-13-16-26-34-13-18-10-15-13-21-11-21-8-17-2-7v-20l4-16 5-13 12-19 9-12 10-13 11-14 11-13 9-11 10-11 7-8 12-13 7-7 7-8 11-11 8-7 15-14 14-11 17-12 12-7 13-4 22-4 20-2h37l33 3 22 4 17 5 17 8 12 9 9 6 23 14 18 12 19 13 9 6v2l4 1v2l5 2 13 10 15 11 13 9 4-5 10-19 12-21 6-10 7-14 9-16 7-12 18-33 7-12z" fill="#009BB1"/>
<path transform="translate(1129,547)" d="m0 0h16l14 3 12 5 10 6 10 9 8 9 8 14 4 13 2 14-1 15-4 15-9 17-11 12-7 6-12 7-15 5-36 5-264 33-99 12-87 11-159 20-90 11h-24l-15-4-16-8-12-10-8-10-7-12-4-12-2-11v-18l4-16 8-16 7-9 8-8 10-7 15-7 13-3 513-64 59-7 110-14 43-5z" fill="#E00755"/>
<path transform="translate(220,318)" d="m0 0h1159l8 4 6 9 1 8v638l-5 10-7 5-3 1h-36l-2-6v-21l15-2 8-6 4-10v-585l-3-9-8-7-3-1h-1108l-8 4-5 7-1 3v590l4 8 6 5 5 2 66 1-2-21-1-4-2 4-1-1-1-18 2-16 5-16 6-10 9-12 7-8 11-8 12-6 13-4 17-1 5-1 10-8 15-7 15-4 6-1h29l16 4 13 7 9 9 7 14 2 10 13 2 10 9 4 8 3 11 1 7v11l-4 13-6 7-8 5-6 2-9 1-2 6-8 20-5 18-2 6-2-4v-23l-2 12-2 22-4 17-8 16-8 12-9 10-9 7-6 3-3-1 9-8-16 6-17 4-15 2h-8l-17-3-23-8-23-11-7-5 1-5v-16l-4-25v-3h-102l-8-4-5-6-2-6v-644l4-8 6-5z" fill="#9F303B"/>
<path transform="translate(1026,423)" d="m0 0 7 6v3l-3 4h232l-4-6 6-6 4 2 8 8 8 7 9 9 7 8 7 7-6 7-8-4v371l-1 5-11-7-14-7-14-4-11-2h-23l-20 4-16 6-14 8-9 7-10 9-7 8-8 13-5 10-2 6-95-1-2-1 2 4-1 4-4 4-4-2-8-8-8-7-7-7-7-8-7-6-2-5 7-6 7 7 2 1-1-10v-135l1-2-4-1 152-19 15-4 14-7 9-7 8-8 7-11 6-13 3-12 1-15-3-19-7-16-8-11-10-10-11-7-11-5-11-3-6-1h-16l-40 5-42 5-40 5h-6l-1-2 1-96-8 7-4-2-4-4 2-4z" fill="#E3E2E5"/>
<path transform="translate(570,423)" d="m0 0 7 6 35 35-2 4-4 4-4-2-4-3 1 142h3v2l5 1v1l-113 14-98 12-16 4-15 8-10 8-7 7-7 11-6 14-3 13v18l4 18 7 14 7 9 5 6 12 9 16 7 12 3h24l176-22 4 1-1 1v94l6-5 4 2 4 5-4 5-8 7-9 10-8 8-8 7-4 4-4-2-3-3 1-6h-18l1 7-3 4-3-15-4-9-7-8-6-3-10-1-2-7-4-11-6-9-9-8-13-6-13-3h-29l-18 4-16 7-11 8-2 2h-12l-13 2-16 6-11 7-9 8-13 18-3 3-1-3-4-2-14-15-6-7 6-6 4 2 6 5v-398l-5 3-3 3-4-2-4-5 15-15 7-8 17-16 4-2 6 7-4 5h232l-4-6z" fill="#E4E2E5"/>
<path transform="translate(1169,1031)" d="m0 0 1 3-7 40-3 23-1 17v23l1 2 3 30 3 14 3 8 4 11 8 11v3l4 2 5 5v2l16 8 10 4 13 4 22 4 11 1h60l15-3 12-3 9-4 8-5h3v-2l5-3 3-3 2-4h2l2-7h2l1-7 2-8v-25l-3-14-6-22-2-4 1-3 12 15 11 14 14 18 12 16 20 30 3 5-2 5-11 12-4 5-11 9-13 9-14 8-20 8-1 3 21-9 17-9 16-12 13-12 10-13 3 3 3 6-7 10-9 10-5 6-17 13-18 10-18 7-9 2v52l2 23 5 38 9 50 2 12-10 6-21 9-22 6-22 3-13 1h-41l-30-3-30-5-32-8-15-5-1-3 7-41 3-26 2-36v-22l-2-35-2-16-5-7-3 3-9-1-15-5-23-12-14-10v-2l-4-2-13-12-1-3h-2l-11-14-4-6 2-4 12-11 7-8 14-17 10-13 13-16 9-11 12-14 2-1v22l3 21 3 10-3-19v-27l2-21 6-31 7-25 10-29z" fill="#CD4658"/>
<path transform="translate(1136,938)" d="m0 0 5 2 9 3 10 2 5 7 4 13 3 23v20l-6 21-9 24-1 3h-2l-5-10-5-19-2-9v-7l-383-1 12 12 4 8v9l-7 12-8 10-9 10-4-2-8-5-14-4-20-2-2 5-13 24-8 13-6 12-13 23-7 13-13 23-8 14-6 11-3 5-9-5-5-4-16-12-17-12v-2l-4-1v-2l-5-2-17-12-21-14-26-16-9-6-12-9-17-8-17-5-22-4-33-3-27-1 2-12v-8l18 4 7 1 16-1 20-4 21-7-6 7-3 2 6-2 9-6 8-8 12-18 6-13 4-17 3-29 2-9h1v27l1 3 4-17 7-19 6-13 15-4 4-1v12l-2 14 215-1 4-7 5-2 2 2v8h379v-26z" fill="#E1BEA9"/>
<path transform="translate(303,1094)" d="m0 0 3 1-12 7-5 5h-2l-3 6h-2l-2 5-9 17-5 15-3 12-4 28-2 26-3 64-1 8-15 14-11 9-11 10-6 5 3 9 12 29 5 11 19 45v39l-1 26 6 1 10 3v2l7 1 27 6 28 4 26 2h46l36-3 31-5 11-2 5 1 9 29 9 30 4 15 1 14 6 17h-268l-1-16 2-19 6-33-2-5-9-10-9-11-11-13-9-11-13-16-26-34-13-18-10-15-13-21-11-21-8-17-2-7v-20l4-16 5-13 12-19 9-12 10-13 11-14 11-13 9-11 10-11 7-8 12-13 7-7 7-8 11-11 8-7 15-14 14-11 17-12z" fill="#017C96"/>
<path transform="translate(220,318)" d="m0 0h1159l8 4 6 9 1 8v638l-5 10-7 5-3 1h-36l-1-4v-17l19-1 8-4 5-8 1-3v-601l-3-7-4-5-6-3-4-1h-1117l-8 3-5 5-3 6v605l3 6 6 5 5 2 76 1 3 12 2-5 2 4 1 10h-102l-8-4-5-6-2-6v-644l4-8 6-5z" fill="#A35F35"/>
<path transform="translate(940,723)" d="m0 0h5v139l6-5 4 1 5 6-41 41-4-2-4-4 2-5h-228l-2-1 3 4-2 4-4 4-4-2-39-39 6-7h3l6 6 1-102-2-2 177-22 74-9z" fill="#E4E2E5"/>
<path transform="translate(678,424)" d="m0 0h3v2h2v2l3 1-2 4-1 3 231-1-3-3 1-4 4-4 4 1 40 40-6 7-4-1-5-4v102h-2v2l-81 10-50 6-37 5-121 15-3-1h2l-1-139-6 6-4-2-5-6 15-15 7-8 17-16z" fill="#E4E2E5"/>
<path transform="translate(329,466)" d="m0 0h241l6 1v143h-248v-143z" fill="#BDBBBD"/>
<path transform="translate(1013,571)" d="m0 0h10v22l-14 3-32 4h-6l10 78v3l6-1h14v26l-1 1-73 9h-8v-26l4-2 31-4h5l-2-14v-5l-24 3-2-7-6-49v-6l-20 3h-6l2 11 6 48v6l-3 1h-18l-2-1-29 2-1-3v-8l19-3h6l-2-10-1-8-15 1-10 1-1-10 28-4-2-20-20 3-35 4v2h-146v14h6l-1 2h-8l4 32v8l-5-5-9-10-9-11-8-9-25 2 10 80 11-1h13v26l-7 2-129 16-82 10-25 3-16-1-14-4-11-6-10-8-7-8-6-10-5-14-1-5v-12h80l4 13 6 9 8 7 11 4 126 1v-14h-26v-7l1-3 23-3h4l5 10v2l2-1 24-3-9-19-2-3-1-81h5v-2l339-42z" fill="#E4E1E2"/>
<path transform="translate(521,1010)" d="m0 0h204l-1 5-4 1-2-1h-7l-4 5-2 5v21l2 12h-2l-2 5-13 24-8 13-6 12-13 23-7 13-13 23-8 14-6 11-3 5-9-5-5-4-16-12-17-12v-2l-4-1v-2l-5-2-17-12-21-14-26-16-9-6-12-9-17-8-15-5 1-18 22-3 10-3 10-7 7-8 8-16 8-25z" fill="#FDFCEF"/>
<path transform="translate(1026,466)" d="m0 0h244v176l-60 1 2-17-1-15-3-12-5-12-8-12-11-11-11-7-11-5-11-3-6-1h-16l-40 5-42 5-17 2h-7l-1-5 1-88z" fill="#BDBBBC"/>
<path transform="translate(1125,557)" d="m0 0h23l14 4 11 6 10 8 8 9 6 11 4 11 2 14-1 15-4 14-7 12-7 9-12 9-12 6-16 4-136 17h-7l-1-4v-21h-19l-2-10-8-64v-7l45-6 7-1-1-21-1-2 57-7z" fill="#E4E1E3"/>
<path transform="translate(1392,1476)" d="m0 0 2 3 1 6-4 5-4 3 1 11 9 47 4 27v20l-1 2h-267l3-11 2-5 2-18 8-27 13-44-9-4 2-11 7 1 24 7 23 5 24 4 30 3h43l21-2 17-3 15-4 16-6 16-8z" fill="#4A3752"/>
<path transform="translate(258,1489)" d="m0 0 17 4 29 6 32 4 16 1h46l36-3 31-5 11-2 5 1 9 29 9 30 4 15 1 14 6 17h-268l-1-16 2-19 9-51 5-24z" fill="#0E2944"/>
<path transform="translate(595,623)" d="m0 0h7l-4 2 1 80 10 19 1 3-1 1-26 3-5-10v-2l-19 3h-8l-1 10h26v14h-126l-11-4-10-9-5-8-3-9v-4h-80v-8l3-12 4-9 7-11 12-12 12-7 12-4 28-4 122-15z" fill="#E4E1E3"/>
<path transform="translate(821,619)" d="m0 0h1l5 37 5 40v4h4v26l-5 2-176 22-4-1 2-1v-24h-12l-11 1-1-1-9-72v-8l12-2 13-1 12 13 18 22-1-15-2-17v-7l8-1-5-1v-14h146z" fill="#E4E1E3"/>
<path transform="translate(1127,899)" d="m0 0 2 1 3 8 4 4v2l4 2 5 3 14 4 22 2 10 4 6 7 3 10 1 7v16l-3 31-2 36v28l2 28 3 24 4 18 5 16 7 16 7 12 3 4v2h2l2 5h2l5 5 6 5 2 1v2l5 2 13 6 18 4h37l24-3 16-4 16-8 10-9 2-4h2v11l-2 8-2 7h-2l-1 5-3 3-3 5-4 4h-3v2l-11 6-13 5-9 2-14 3h-60l-24-3-9-2-13-4-10-4-8-4-8-5-7-8-2-1-4-7-5-7-4-11-3-8-3-14-3-30-1-2v-23l2-26 5-32 4-23-12 36-7 27-4 22-2 21v27l3 21-2-1-4-15-2-17v-15l2-23 5-28 7-25 9-27 6-16 3-12v-20l-3-23-5-15-3-4-16-4-8-4-7-7-4-9v-19z" fill="#542743"/>
<path transform="translate(1e3 1026)" d="m0 0h8l2 14 2 29 3 20 2-6 1-26 7 1 6 30-1 18-2 11-11 39 1 6 9 26 6 15 7 20 14 37 2 5v3h2l2-4 2-2-1-4-9-12-6-12v-5l6-2 10 14 14 15 8 8 13 10 13 8 14 7 17 6 6 2-2 5-3 3-9-1-13-4-4 1-11 14-11 13-9 11-12 13-5 4-5 2h-15l-12-6-8-7-7-11-7-25-7-29-9-50-7-50-3-29-9-27-5-17-5-29v-13l2-9 5-19 4-3h2l2 15 1-6 1-13 5-3h2l2 18 3 22z" fill="#E7BFA6"/>
<path transform="translate(241,338)" d="m0 0h1117l8 3 6 5 3 5 1 4v601l-4 8-5 5-6 3h-19v15h-1v-21l15-2 8-6 4-10v-585l-3-9-8-7-3-1h-1108l-8 4-5 7-1 3v590l4 8 6 5 5 2 66 1 1 6h-75l-8-4-6-7-1-3v-605l3-6 5-5 5-3z" fill="#7D3323"/>
<path transform="translate(1442,1214)" d="m0 0h40l1 1v40l-37 2-5 5 2 6 13 23 18 35 6 13 1 3v13l-6 14-25 25-8 7-12 12-8 7-10 9-11 9-12 10-2 3-9-53-4-33-1-15v-49l1-3 25-9 17-9 16-12 6-5 7-8 8-10 3-6-4-7-9 10-7 8-10 9-10 7-13 8-21 10-8 2 1-4 15-6 16-8 12-8 11-9 6-5 9-11 5-6-2-5-5-8z" fill="#E8BFA7"/>
<path transform="translate(1169,1031)" d="m0 0 1 3-7 40-3 23-1 17v23l1 2 3 30 3 14 3 8 4 11 8 11v3l4 2 5 5v2l4 2 1 3-11 19-6 11-16 24-7 10-9-1-15-5-23-12-14-10v-2l-4-2-13-12-1-3h-2l-11-14-4-6 2-4 12-11 7-8 14-17 10-13 13-16 9-11 12-14 2-1v22l3 21 3 10-3-19v-27l2-21 6-31 7-25 10-29z" fill="#CC4658"/>
<path transform="translate(1377,1129)" d="m0 0 5 5 11 14 13 16 21 28 20 30 3 5-2 5-11 12-4 5-11 9-13 9-14 8-20 8-3-1h2l3-38-14 7-25 9-26 5-7 1h-45l-28-3-16-3-9-2-9 15-10 14-11 16-9 12-2 4-3-21-6-9 9-12 12-19 8-14 9-16 12 6 16 5 6 2 22 4 11 1h60l15-3 12-3 9-4 8-5h3v-2l5-3 3-3 2-4h2l2-7h2l1-7 2-8v-25l-3-14-6-22-2-4z" fill="#B6424F"/>
<path transform="translate(755,966)" d="m0 0h380l1 1-1 9-6 16-1 1h-380l1-8z" fill="#A46036"/>
<path transform="translate(341,712)" d="m0 0h80l4 13 6 9 8 7 11 4 126 1v-14h-26v-7l1-3 23-3h4l5 10v2l2-1 13-1v26h9v1l-89 11-82 10-25 3-16-1-14-4-11-6-10-8-7-8-6-10-5-14-1-5z" fill="#E4E2E4"/>
<path transform="translate(920,606)" d="m0 0h5l8 61 18-2h6l2 14v5l-36 5-3 1-1 26-1 1-81 10-3-1h2v-26h-4l-3-20-7-55v-6l1-1 49-6h4l3 20-1 1-24 3h-4l1 10 10-2 15-1 1 1 2 18-21 3h-4l1 11 22-3h7l4 1h18l-1-14-6-48v-3z" fill="#BFBBBB"/>
<path transform="translate(205,336)" d="m0 0h1v639h-1v-181h-23l-1-1v-37l1-2h23v-20h-49v-40l1-1h48v-274h-98v-40l7-1 91 1z" fill="#EEE1CA"/>
<path transform="translate(1137,488)" d="m0 0h18l13 3 14 7 10 9 8 9 7 14 3 10 1 8v10l-3 14-4 10h-4l-7-9-9-9-11-7-11-5-11-3-6-1h-16l-40 5h-7v-11l5-16 6-11 9-10 7-6 16-8z" fill="#FCFBFB"/>
<path transform="translate(748,993)" d="m0 0h380v3l8 7 3 2v2h2l1 3-387 1-9-9v-4h2z" fill="#DAC6A3"/>
<path transform="translate(1013,571)" d="m0 0h10v22l-14 3-32 4h-6l10 78v3l6-1h14v26l-1 1-73 9h-8v-26l4-2 31-4h5l-2-14v-5h-12v-85l11-2z" fill="#FCFBFA"/>
<path transform="translate(1394,340)" d="m0 0 5 5 2 4 1 6v631l-1 11-5 8-8 5h-43l-1 4-1-10v-11l36-1 9-5 5-10z" fill="#DBC5A3"/>
<path transform="translate(530,939)" d="m0 0h2v12l-1 15h-2v8l5 19 2 2-8 10-6 4-1 2h-2l-3 12-6 18-6 11-9 10-9 6-15 4-7 1h-10v16l-1 2-32-5-25-2-27-1 2-12v-8l18 4 7 1 16-1 20-4 21-7-6 7-3 2 6-2 9-6 8-8 12-18 6-13 4-17 3-29 2-9h1v27l1 3 4-17 7-19 6-13 15-4z" fill="#F5BEA0"/>
<path transform="translate(529,966)" d="m0 0h215l-3 9-7 17-1 1h-200l-5-19z" fill="#A46036"/>
<path transform="translate(1079,586)" d="m0 0h17l10 3 10 6 7 8 5 11 1 4v18l-4 11-6 8-7 6-11 5-25 4-17 2-2-5-9-70v-7z" fill="#E10355"/>
<path transform="translate(694,634)" d="m0 0h3l2 12 5 38 3 26v6l-25 3-11-12-9-11-11-13 3 26 1 13-21 3-5-1-9-72v-8l12-2 13-1 12 13 18 22-1-15-2-17v-7z" fill="#E10255"/>
<path transform="translate(644,617)" d="m0 0h10l-1 33-8-8-25 2 10 80 11-1h13v26l-7 2-33 4h-16v-26l11-2-9-19-2-3-1-81h5v-2z" fill="#FCFBFA"/>
<path transform="translate(567,650)" d="m0 0h4l15 29 10 20 10 19 4 9-1 1-26 3-5-10v-2l-19 3h-8l-2 13-10 2-8 1h-9l1-7 8-35 9-39 1-3 10-2z" fill="#E10255"/>
<path transform="translate(1125,557)" d="m0 0h23l14 4 11 6 10 8 8 9 4 7-1 5-8 8-14 8-13 4-7 1h-12l-13-3-6-12-6-7-14-7-11-3-6-14-1-8 1-1z" fill="#FCFBFA"/>
<path transform="translate(636,1425)" d="m0 0h108v41h-108z" fill="#F0E7D0"/>
<path transform="translate(753,1108)" d="m0 0h108v41h-108z" fill="#F0E7D0"/>
<path transform="translate(930,155)" d="m0 0h108v41h-108z" fill="#F0E7D0"/>
<path transform="translate(209,125)" d="m0 0h108v41h-108z" fill="#F0E7D0"/>
<path transform="translate(1399,107)" d="m0 0h108v41h-108z" fill="#F0E7D0"/>
<path transform="translate(356,125)" d="m0 0h107l1 1v40h-108z" fill="#F0E7D0"/>
<path transform="translate(877,93)" d="m0 0h106l1 1v40h-108v-40z" fill="#F0E7D0"/>
<path transform="translate(761,625)" d="m0 0h11l13 4 8 6 7 9 3 9-21 3h-6l-6-5-8-1-7 3-3 6v14l5 8 3 2h10l6-4 3-5 26-3v8l-4 10-6 8-9 7-12 4-12 1-11-2-10-5-7-6-7-12-2-7-1-14 2-12 5-10 9-9 11-5z" fill="#E10355"/>
<path transform="translate(456,663)" d="m0 0h11l9 2 8 4 7 6 7 12v4l-21 3h-6l-5-5-3-1h-7l-6 4-3 6v10l3 8 5 5 7 1 9-3 2-5 1-2 23-3h4l-1 9-5 12-6 7-10 6-9 3h-20l-11-4-10-9-5-8-4-13v-16l4-13 7-9 8-6 11-4z" fill="#E10355"/>
<path transform="translate(848,1169)" d="m0 0h103l1 1v36l-1 1h-103l-1-2z" fill="#FEFDF0"/>
<path transform="translate(1429,390)" d="m0 0h103v38h-103l-1-1v-36z" fill="#FEFDF0"/>
<path transform="translate(607,1368)" d="m0 0h101l2 2v32l-1 4h-103l-1-1v-36z" fill="#FEFDF0"/>
<path transform="translate(791,157)" d="m0 0h104v38l-104-1z" fill="#FEFDF0"/>
<path transform="translate(304,186)" d="m0 0h104v37h-104l-1-36z" fill="#FEFDF0"/>
<path transform="translate(1368,50)" d="m0 0h104v37l-104 1z" fill="#FEFDF0"/>
<path transform="translate(38,440)" d="m0 0h104v37h-104z" fill="#FEFDF0"/>
<path transform="translate(364,663)" d="m0 0h79l3 3-12 6-7 8-4 8-2 8-1 16h-79v-8l3-12 4-9 7-11z" fill="#E4E2E5"/>
<path transform="translate(872,612)" d="m0 0h4l3 20-1 1-24 3h-4l1 10 10-2 15-1 1 1 2 18-21 3h-4l1 11 22-3h7l2 14v6l-1 1-50 6h-3l-3-20-7-55v-6l1-1z" fill="#E10355"/>
<path transform="translate(1016,594)" d="m0 0h9l2 12v8l-13 2-7 1h-8l1 10 25-3 1 1 1 9v9l-1 1-23 3 1 11 10-2 18-2 1 1 2 19-1 1-47 6h-6l-2-10-8-64v-7z" fill="#E10355"/>
<path transform="translate(837,801)" d="m0 0h82l1 2-1 43h-83v-44z" fill="#BDBBBD"/>
<path transform="translate(1510,880)" d="m0 0h90v41h-90l-1-1v-39z" fill="#F0E7D0"/>
<path transform="translate(1510,329)" d="m0 0h90v41h-90l-1-1v-39z" fill="#F0E7D0"/>
<path transform="translate(676,466)" d="m0 0h246l1 1v14h-248v-14z" fill="#BDBBBD"/>
<path transform="translate(770,509)" d="m0 0h27l8 25 7 23 1 1 14-47 1-2h27l-24 72v3 1l-24 3-11-1-12-35-12-36z" fill="#B1B2B3"/>
<path transform="translate(1392,1476)" d="m0 0 2 3 1 6-4 5-5 5-19 9-11 4-28 6-25 2h-41l-38-4-29-6-27-8-16-7 2-11 7 1 24 7 23 5 24 4 30 3h43l21-2 17-3 15-4 16-6 16-8z" fill="#C94756"/>
<path transform="translate(978,1107)" d="m0 0h1l5 17 8 25h-91l-1-1v-40z" fill="#F0E7D0"/>
<path transform="translate(918,726)" d="m0 0 4 1h-3v46h-83v-36l9-2z" fill="#BDBBBC"/>
<path transform="translate(534,993)" d="m0 0h199l-4 12h-2l-1 5h-205l10-10 4-5z" fill="#DAC6A3"/>
<path transform="translate(1136,938)" d="m0 0 5 2 9 3 10 2 5 7 4 13 3 23v20l-6 21-9 24-1 3h-2l-5-10-5-19-2-9v-7l-2-1 1-3h-2l-3-3-8-7-2-3h2l3-10 4-11v-6l-2-2h2v-26z" fill="#E7BEA7"/>
<path transform="translate(860,509)" d="m0 0h52v20h-27v9h24v18l-1 1h-23v10h27v7l-11 2-39 5h-5l3-1z" fill="#B2B2B3"/>
<path transform="translate(1078,563)" d="m0 0h5l5 16 2 6 2 1-20 2-16 2h-8l6 47v5l-25 1h-3v-9l-1-9-19 2h-6l-1-3v-7l25-3h3l-2-20h-6l4-1-1-21-1-2z" fill="#C0BBBB"/>
<path transform="translate(252,1288)" d="m0 0h1v18l-2 63-1 37-1 13-3-4-20-47-9-21-8-19 2-4 14-12 11-10 8-7z" fill="#FBFAEE"/>
<path transform="translate(342,528)" d="m0 0h219l1 1v12h-220z" fill="#FAFAFA"/>
<path transform="translate(460,698)" d="m0 0h71l-8 36-1 4 27-3v-5l1 2h26v14h-106l16-8 5-4 6-10 4-15-21 3h-6l-1 2v-2h-13z" fill="#BEBBBC"/>
<path transform="translate(342,492)" d="m0 0h220v12h-220z" fill="#FCFCFC"/>
<path transform="translate(920,606)" d="m0 0h5l8 61 18-2h6l2 14v5l-42 6h-8l-3-22-7-56v-3z" fill="#E10355"/>
<path transform="translate(650,682)" d="m0 0 5 5 11 12 9 11 1 4-1 14h131v2l-7 2-144 18-4-1 2-1v-24l-4-2h6l-3-20z" fill="#E4E1E2"/>
<path transform="translate(1063,763)" d="m0 0h168v15h-168l-1-1v-13z" fill="#BDBBBD"/>
<path transform="translate(1541,821)" d="m0 0h59v41h-60v-40z" fill="#F0E7D0"/>
<path transform="translate(685,509)" d="m0 0h25v59h23v19h-48z" fill="#B1B2B3"/>
<path transform="translate(1062,808)" d="m0 0h169l1 15-170-1z" fill="#BDBBBD"/>
<path transform="translate(1062,719)" d="m0 0h169v14h-169z" fill="#BDBBBD"/>
<path transform="translate(1195,592)" d="m0 0 2 3 4 11 2 14-1 15-2 8-73-1 1-6v-22l12 2h12l14-3 12-5 10-7 6-6z" fill="#BEBBBC"/>
<path transform="translate(467,663)" d="m0 0h72l-4 20-4 15h-71v14h13l-1 5-4 4-6 2-7-1-5-4-3-6-1-4v-10l3-6 5-4 2-1h7l7 4 1 3 22-3h5l-4-10-6-8-7-5-8-3-6-1z" fill="#E4E0E2"/>
<path transform="translate(755,966)" d="m0 0h380v6h-381z" fill="#7D3323"/>
<path transform="translate(374,565)" d="m0 0h156v13h-156l-1-1v-11z" fill="#F9F8F9"/>
<path transform="translate(157,693)" d="m0 0h48v41h-49v-40z" fill="#F0E7D0"/>
<path transform="translate(740,509)" d="m0 0h25v78h-24l-1-1z" fill="#B1B2B3"/>
<path transform="translate(877,619)" d="m0 0 1 2 23-1 6 48v6l-3 1h-18l-2-1-29 2-1-3v-8l19-3h6l-2-10-1-8-15 1-10 1-1-10 28-4z" fill="#E4E0E1"/>
<path transform="translate(214,990)" d="m0 0 7 2 102 1 3 16v2h-50l-48-1-6-3-5-5-3-6z" fill="#DAC5A3"/>
<path transform="translate(675,793)" d="m0 0h132v14h-132z" fill="#BDBBBD"/>
<path transform="translate(707,711)" d="m0 0 1 3h99v14h-132v-14l2-2 5 6 18-2h7z" fill="#BDBBBC"/>
<path transform="translate(675,833)" d="m0 0h132v13h-132z" fill="#BDBBBD"/>
<path transform="translate(708,752)" d="m0 0 4 1 95 1v13h-132v-10l10-2z" fill="#BEBBBC"/>
<path transform="translate(821,619)" d="m0 0h1l2 17h-31l-8-6-13-4h-11l-10 2-12 6-3 2-38-1-1 2v-3l-10 2-12-1v-14h146z" fill="#BEBBBB"/>
<path transform="translate(1442,1214)" d="m0 0h40l1 1v40l-37 2-6 5 2-4 9-10 5-9-4-7-9 10-7 8-10 9-10 7-13 8-21 10-8 2 1-4 15-6 16-8 12-8 11-9 6-5 9-11 5-6-2-5-5-8z" fill="#EFE6CF"/>
<path transform="translate(341,712)" d="m0 0h80l4 13 2 4v3h-84l-2-8z" fill="#E4E2E5"/>
<path transform="translate(328,801)" d="m0 0h116v14h-116z" fill="#BDBBBD"/>
<path transform="translate(461,801)" d="m0 0h115v14h-115l-1-1v-12z" fill="#BDBBBD"/>
<path transform="translate(1389,1490)" d="m0 0 36 1 1 1v37l-1 4h-30l-2 1-7-35v-6z" fill="#EFE6CF"/>
<path transform="translate(1564,388)" d="m0 0h36v41l-36 1-1-1v-40z" fill="#F0E7D0"/>
<path transform="translate(1062,674)" d="m0 0h116l-5 4-8 5-11 4-10 2-82-1z" fill="#BEBBBC"/>
<path transform="translate(1055,1227)" d="m0 0 4 5 9 11 11 12 9 9 13 10 13 8 14 7 17 6 6 2-2 5-3 3-9-1-21-7-14-7-13-9-11-9-10-10-10-13-8-15v-5z" fill="#C64853"/>
<path transform="translate(529,966)" d="m0 0h215l-2 7-213-1z" fill="#7D3323"/>
<path transform="translate(427,730)" d="m0 0 5 5 7 6 7 3-2 2h-95l-4-8-1-6h83z" fill="#BEBBBC"/>
<path transform="translate(1366,356)" d="m0 0 2 2 1 5v585l-4 10-3 2-1-3 3-8 2-3v-585l1-2-2-1z" fill="#F2DECB"/>
<path transform="translate(328,629)" d="m0 0h116v3l2 1-50 6-20 5-48-1z" fill="#BFBBBB"/>
<path transform="translate(1152,852)" d="m0 0 2 2-8 8-4 6-80-1v-14z" fill="#BCBABC"/>
<path transform="translate(34,436)" d="m0 0h112v44l-1 1h-110l-1-1zm4 4v37h104v-37z" fill="#F0E7D0"/>
<path transform="translate(1365,46)" d="m0 0h111v44l-1 1h-111v-44zm3 4v38l104-1v-37z" fill="#F0E7D0"/>
<path transform="translate(364,663)" d="m0 0h79l3 3-12 6-6 7-76-1 2-4 7-8z" fill="#BEBBBC"/>
<path transform="translate(787,153)" d="m0 0h111l1 1v44h-111l-1-2zm4 4v37l104 1v-38z" fill="#F0E7D0"/>
<path transform="translate(301,182)" d="m0 0h98l13 1v44h-112v-44zm3 4-1 4 1 33h104v-37z" fill="#F0E7D0"/>
<path transform="translate(1451,1231)" d="m0 0 3 3 3 6-7 10-9 10-5 6-17 13-18 10-18 7-9 2-1 3v-17l1 2 21-9 17-9 16-12 13-12z" fill="#B3464B"/>
<path transform="translate(549,730)" d="m0 0 1 2h26v14h-106l16-8 5-4 3-3 29 1-1 6 27-3z" fill="#BFBBBB"/>
<path transform="translate(343,694)" d="m0 0 1 4 76-1v15h-79v-8z" fill="#BEBBBC"/>
<path transform="translate(556,628)" d="m0 0 20 1v14h-115l-2-3 82-10z" fill="#C0BBBB"/>
<path transform="translate(497,835)" d="m0 0h79v15l-67 1-6-9z" fill="#BDBBBC"/>
<path transform="translate(698,635)" d="m0 0h38l-2 4-5 7-3 9-2 19h-21l-2-5-3-23z" fill="#E4E1E3"/>
<path transform="translate(602,1365)" d="m0 0h111v44h-111zm5 3-2 1v36l1 1h103l1-4v-32l-2-2z" fill="#F0E7D0"/>
<path transform="translate(1426,386)" d="m0 0 110 1v44h-111l-1-1v-43zm3 4-1 1v36l3 1h101v-38z" fill="#F0E7D0"/>
<path transform="translate(844,1166)" d="m0 0h111l1 6v37l-1 1h-111zm4 3-1 37 1 1h103l1-1v-36l-1-1z" fill="#F0E7D0"/>
<path transform="translate(182,754)" d="m0 0h23v40h-23l-1-1v-37z" fill="#F0E7D0"/>
<path transform="translate(250,1352)" d="m0 0h1v17l-1 37-1 13-3-4-20-47-4-9v-2h28z" fill="#FAF9EE"/>
<path transform="translate(328,835)" d="m0 0h77l-5 4-8 7h-12l-13 2-11 3-2-1h-26z" fill="#BEBBBC"/>
<path transform="translate(1374,1304)" d="m0 0 4 5 18 34 3 6-2 4-13 12-8 6-2-6z" fill="#FDFBED"/>
<path transform="translate(367,766)" d="m0 0h76l1 1 1 9-34 4-16-1-14-4-11-6z" fill="#C0BBBB"/>
<path transform="translate(467,663)" d="m0 0h72l-3 16-2-1h-42l-4-5-7-5-8-3-6-1z" fill="#BFBBBB"/>
<path transform="translate(1080,609)" d="m0 0h10l8 4 4 6 1 4v9l-4 8-6 4-12 2-1-2-3-26v-8z" fill="#C2BBBA"/>
<path transform="translate(1392,1472)" d="m0 0 1 4-12 7-20 8-14 4-14 3-15 2-13 1h-43l-30-3-30-5-32-8-16-5 2-4 19 6 28 7 30 5 30 3h41l29-3 22-5 16-6 17-8z" fill="#F6BFA0"/>
<path transform="translate(634,1185)" d="m0 0h2l4 4 6 4 7 7 7 10 8 16 3 10h-3l-5-6-11-9-16-12-10-7 2-6z" fill="#017C96"/>
<path transform="translate(464,1226)" d="m0 0 6 2 15 10 16 10 11 7 1 6-2 17-2 3-1-6-4-2-3-2v-2l-4-2-2-4h-2v-2h-2l-7-8-11-13-7-10z" fill="#007C96"/>
<path transform="translate(939,686)" d="m0 0h6v26h7v1l-25 3h-8v-26l4-2z" fill="#E4E1E2"/>
<path transform="translate(1169,1031)" d="m0 0 1 3-7 40-3 23-1 17-5 5-8 7-2-1 4-24 6-25 6-19 8-24z" fill="#F6F4E8"/>
<path transform="translate(277,1011)" d="m0 0h49l2 10v5l-1-2h-50z" fill="#EFE6CF"/>
<path transform="translate(1193,673)" d="m0 0 38 1v14h-55l5-4 10-9z" fill="#BEBBBC"/>
<path transform="translate(991,856)" d="m0 0 7 6 12 11 20 20 3 4-1 4-4 4-4-2-8-8-8-7-7-7-7-8-7-6-2-5z" fill="#BCBABC"/>
<path transform="translate(604,857)" d="m0 0 4 2 4 5-4 5-8 7-9 10-8 8-8 7-4 4-4-2-3-3 1-4 9-10 23-23z" fill="#BCBABC"/>
<path transform="translate(916,424)" d="m0 0 4 1 40 40-6 7-4-1-39-39 1-4z" fill="#BCBABC"/>
<path transform="translate(678,424)" d="m0 0h3v2h2v2l3 1-2 4-9 10-21 21-8 7h-4l-5-6 15-15 7-8 17-16z" fill="#BCBABC"/>
<path transform="translate(1264,424)" d="m0 0 4 2 8 8 8 7 9 9 7 8 7 7-6 7-4-2-7-6-27-27-5-7z" fill="#BCBABC"/>
<path transform="translate(644,856)" d="m0 0 7 6 35 35-2 4-4 4-4-2-39-39 6-7z" fill="#BCBABC"/>
<path transform="translate(570,423)" d="m0 0 7 6 35 35-2 4-4 4-4-2-39-39 6-7z" fill="#BCBABC"/>
<path transform="translate(1026,423)" d="m0 0 7 6v3l-40 40-4-2-4-4 2-4z" fill="#BCBABC"/>
<path transform="translate(951,857)" d="m0 0 4 1 5 6-41 41-4-2-4-4 2-4z" fill="#BCBABC"/>
<path transform="translate(1398,1155)" d="m0 0h30l1 1v39l-4-4-12-16-10-13z" fill="#EFE4CD"/>
<path transform="translate(331,424)" d="m0 0 4 2 4 5-41 41-4-2-4-5 15-15 7-8 17-16z" fill="#BCBABC"/>
<path transform="translate(573,769)" d="m0 0h3v12h-92v-1z" fill="#C2BBBA"/>
<path transform="translate(501,712)" d="m0 0h26l-1 10-2 9-1 1h-29l2-6 4-13z" fill="#E4E1E3"/>
<path transform="translate(1013,571)" d="m0 0h10v22l-14 3-11 1 2-1v-22l-3-1z" fill="#E4E1E2"/>
<path transform="translate(351,765)" d="m0 0 7 6 9 7 4 3h-43v-15h22z" fill="#BFBBBB"/>
<path transform="translate(1150,1073)" d="m0 0h2v2h2l-1 9-6 27-2 14-1 14v27l3 21-2-1-4-15-2-17v-15l2-23 5-28z" fill="#5B2F46"/>
<path transform="translate(305,466)" d="m0 0h1v398l-4-2 2-2z" fill="#FDFCEF"/>
<path transform="translate(236,1302)" d="m0 0 2 1-9 9-1 28h-12l-1 2-6-14 2-4 14-12z" fill="#ECE4D1"/>
<path transform="translate(1058,1224)" d="m0 0 2 1 2 5 10 13 2 4h2l7 8 11 9v2l5 2 5 4 13 8 19 9 13 4 6 1-4 5v-2l-13-3-17-7-14-8-11-8-11-9-15-15-11-14-3-4v-3h2z" fill="#F6BFA0"/>
<path transform="translate(296,857)" d="m0 0 4 2 15 14 7 7-2 4-4 6-2-1v-2l-4-2-14-15-6-7z" fill="#BEBABC"/>
<path transform="translate(877,619)" d="m0 0 1 2 23-1 1 15h-38v-1l14-2z" fill="#C1BBBA"/>
<path transform="translate(724,667)" d="m0 0h1l2 14 2 7h-25l-2-16 1 2h21z" fill="#C0BBBB"/>
<path transform="translate(1450,1227)" d="m0 0 2 4-7 9-11 12-11 9-13 9-21 11-13 5h-2l1-4 15-6 16-8 12-8 11-9 6-5 9-11z" fill="#F6BFA0"/>
<path transform="translate(328,663)" d="m0 0h22l-6 9-4 7-12-1z" fill="#C0BBBB"/>
<path transform="translate(684,432)" d="m0 0 1 2h224l3-2 3 4h-232z" fill="#FDFCF0"/>
<path transform="translate(564,432)" d="m0 0 3 2v2h-232l1-3h2v2l225-1z" fill="#FDFCF0"/>
<path transform="translate(1014,615)" d="m0 0h9v8l-1 2-16 2h-6l-1-3v-7z" fill="#E6DFDD"/>
<path transform="translate(461,766)" d="m0 0h57v1l-49 6h-8l-1-1v-5z" fill="#C6BBB7"/>
<path transform="translate(752,674)" d="m0 0h27l-3 6-6 4h-10l-6-5z" fill="#C3BBB9"/>
<path transform="translate(1140,1124)" d="m0 0 1 4 3-3v41l3 21-2-1-4-15-2-17v-15z" fill="#652A43"/>
<path transform="translate(1049,1229)" d="m0 0h1l3 9 6 11 8 10-1 4-4 5h-2l-12-32z" fill="#F9F2E2"/>
<path transform="translate(559,680)" d="m0 0 3 4 7 15v2l-14 1 2-13z" fill="#E6DCD9"/>
<path transform="translate(945,467)" d="m0 0 4 2 2 3-3 1-1-2-1 98 7-2h15v1l-15 2h-10l2-1z" fill="#FCF6EA"/>
<path transform="translate(945,723)" d="m0 0 2 1v133l2 3-4 2z" fill="#FDFCF0"/>
<path transform="translate(250,1352)" d="m0 0h1v17h-1l-1-8h-26l-1-4h28z" fill="#E5DECC"/>
<path transform="translate(1169,1031)" d="m0 0 1 3-6 34-2-3-4-1 3-10 7-21z" fill="#E4BFA9"/>
<path transform="translate(249,1390)" d="m0 0h1v16l-1 13-3-4-4-9v-8h7z" fill="#F2F1E8"/>
<path transform="translate(597,879)" d="m0 0h1v14l-3 1h-12l6-7z" fill="#E4E3E6"/>
<path transform="translate(944,879)" d="m0 0h1v14l-4 1h-11l6-7z" fill="#E4E3E6"/>
<path transform="translate(332,728)" d="m0 0h1l3 12 3 6-1 2-1-1-9-1v-14h4z" fill="#C4BBB9"/>
<path transform="translate(652,879)" d="m0 0 7 6 8 8v1h-14z" fill="#E4E3E6"/>
<path transform="translate(931,436)" d="m0 0h14v14l-7-6-7-7z" fill="#E4E3E6"/>
<path transform="translate(584,436)" d="m0 0h14v14l-7-6-7-7z" fill="#E4E3E6"/>
<path transform="translate(1279,436)" d="m0 0h13l1 5v7h-3l-11-11z" fill="#E4E3E6"/>
<path transform="translate(1e3 881)" d="m0 0 7 6 5 6-1 1h-8l-3-1z" fill="#E4E3E6"/>
<path transform="translate(306,881)" d="m0 0 8 6 1 5-3 7-2-4v-1l-4-1z" fill="#E5E1E2"/>
<path transform="translate(1e3 436)" d="m0 0h12l-6 7-6 5z" fill="#E4E3E6"/>
<path transform="translate(653,436)" d="m0 0h12l-6 7-6 5z" fill="#E4E3E6"/>
<path transform="translate(306,436)" d="m0 0h12l-6 7-6 5z" fill="#E4E3E6"/>
<path transform="translate(749,954)" d="m0 0h7l3 4v6l-3 1-1-8h-4-2l-2 5-2 2-1-4 1-3h2v-2zm-7 9 2 1z" fill="#FBF9EB"/>
<path transform="translate(534,936)" d="m0 0h2l1 5h-2l-1 12-3 11-1-4 2-22z" fill="#FBF8EA"/>
<path transform="translate(1145,1110)" d="m0 0h1v8l-1 7-2 2-2 1v-12l2-3h2z" fill="#56344C"/>
<path transform="translate(332,696)" d="m0 0 1 3-2 16-1-3h-2v-14h4z" fill="#CEBCB4"/>
<path transform="translate(805,671)" d="m0 0 2 3v14l-6 1 3-10z" fill="#CBBCB5"/>
<path transform="translate(232,947)" d="m0 0h4l2 5-1 7-4-4-1-2z" fill="#FCF8EB"/>
<path transform="translate(567,697)" d="m0 0 2 4-14 1 1-4z" fill="#D0BCB3"/>
<path transform="translate(1367,946)" d="m0 0h1v6l-5 8-2-3 3-8z" fill="#FAF5E6"/>
<path transform="translate(1144,1102)" d="m0 0 4 1-1 8-5 3 1-11z" fill="#5B3249"/>
<path transform="translate(236,1302)" d="m0 0 2 1-9 9-10 8-2-1 11-10z" fill="#D8D7D6"/>
<path transform="translate(249,1390)" d="m0 0h1v16l-3-4-5-1v-3h7z" fill="#D9D3C6"/>
<path transform="translate(1141,1166)" d="m0 0h3l3 21-2-1-4-15z" fill="#973035"/>
<path transform="translate(1135,937)" d="m0 0 1 2-1 26-3-1 1-4v-21z" fill="#FCFBEF"/>
<path transform="translate(651,640)" d="m0 0h2v10l-5-5-3-4z" fill="#FAF1E6"/>
<path transform="translate(310,937)" d="m0 0h1l2 26-2-4v-12l-4-1z" fill="#EEDDCE"/>
<path transform="translate(1383,1426)" d="m0 0 2 1 3 14v10h-1l-4-22z" fill="#F6BFA0"/>
<path transform="translate(545,916)" d="m0 0h1v6l2 1-4 7-5 3 2-4z" fill="#F4E9DB"/>
<path transform="translate(1147,1094)" d="m0 0 2 2-1 7-4-1 1-6z" fill="#582A44"/>
<path transform="translate(1150,1073)" d="m0 0h2v2h2v5l-1-2-2 1-2 8h-2l2-10z" fill="#5A364A"/>
<path transform="translate(1182,1502)" d="m0 0 18 4 3 2-9-1-11-2z" fill="#6A3045"/>
<path transform="translate(1081,642)" d="m0 0h11l-3 3-8 1z" fill="#E6DAD7"/>
<path transform="translate(968,595)" d="m0 0 3 1-2 6-1 4h-2v-10z" fill="#FEFDF0"/>
<path transform="translate(650,682)" d="m0 0 3 2v13l-2-3z" fill="#F6E6D9"/>
<path transform="translate(1101,582)" d="m0 0 5 1v6l-4-2v-2l-2-1z" fill="#FBF9EF"/>
</svg>
