<?xml version="1.0" encoding="UTF-8"?>
<svg version="1.1" viewBox="0 0 2048 2048" width="1280" height="1280" xmlns="http://www.w3.org/2000/svg">
<path transform="translate(0)" d="m0 0h2048v2048h-2048z" fill="#FCFDFD"/>
<path transform="translate(786,507)" d="m0 0 16 1 12 2 9 2 2-4h19l13 3 10 4 9 8 3 6v12l-5 13-7 12-7 6-3 3-3 19-1 36-5 16-5 12-2 5v4l50 12 14 3 5-1 19-14 9-6 11-8 18-13 10-7 4-4 14-10 18-13 8-7 11-11 12-7 15-4h9l9 3 5 3v3l-2 1-12 1v2h10l9-5 5 1-1 6 12-6 15-10h3l-1 7-9 10-11 8-12 6-19 7-8 2-20 1-8 7-6 6 1 7 2 6-11 12-9 11-24 28-8 10-9 10-9 11-12 14-7 8-7 7-8 5-6 2-8 1-15-2-32-8-3-1 6 71 4 43 7 3 2 2 8-29 14-54 4-11 4-4 3-1h135l2 2v9l-16 59-11 39-3 5-3 2-5 1-126 1-62 1 2 5h16l12 5 18 3 1 2 1 10 1 26 1 3 11-1 66-11 25-3h30l17 3 12 5 9 6 8 8 9 14 9 19 18 55 5 16 10 30 16 51 6 17 13-25 19-38 9-17 4-7 1-4h2l2-7 1-1h149v2h-2l-3 9-9 17-10 19-9 19-5 8-21 42-10 19-11 23-5 8-4 9-5 9-2 3h73l10 2 8 3 11 6 10 9 6 7 5 10 4 12 14-28 10-19 11-22 10-19 11-22 10-19 12-24 10-19 15-30 10-19 4-9h2l1-6h124v268l-2 1-133 1-1 99h-79v-100h-29v149l-4 13-5 10-3 5-5 5-10 8-10 5-12 4-35 1-1 6-9 16-9 19-7 12-2 5-4 7-1 4h-2l-2 6-10 21-8 15-10 19-14 29-5 8-3 1h-146l2-6 17-33 20-39 8-15 35-70 4-6-168 1-5 8-9 19-12 22-8 17-12 22-8 16-8 15-2 5-10 19-4 9h-2l-1 6-6 9-8 1h-140l1-4 9-17 16-32 10-19 28-56 10-19 11-21h-64l-17-2-13-5-11-8-9-9-6-9-5-14-2 4-6 11-10 19-8 17-3 5-12 23-11 23-5 9-12 23-8 16-5 11h-2l-2 6-13 27-8 16h-2l-2 6h-21l1 11-3 7-5 6-14 10-24 15-7 5-2 3-1 5 8-2 14-7 16-9 14-6 4-1h11l6 4 3 4 1-2 1-44h79l1 179 1 9 8 10 11 17 4 6h4l1-3h2l-2 4-2 1v6l6 15 4 16 3-4 6-9v-13l-3-21-5-17-4-10 1-2 10 14 11 9 14 14 5-4h2l-4 8 10 15 1 2 4-2 7-6-1-7-11-23-7-11-8-10-9-10v-3l9 6 17 16 11 12 12 17 9 16 2 1 2-4 4-4-1-8-6-15-7-14-4-7 5 2 10 13 8 13 4 7 8-4-2 4-3 3 3 10 7 21v5l4-4 5-8v-5l-9-9-1-4 7 4 4 3-2-17-4-17-7-19 4 2 8 14 7 15 5 14v3l7-6-2-4-3-3v-2l4 2 4 3 4-2 6-4-2 5-3 5 5 6 2-2 5-15 6-13 8-15 4-3-1 6-6 17-4 19-1 11 5-2v-2l3-2 3 1-10 12 1 5 6 10 2 1 1-7 5-17 4-9-1-4-4-4v-2l8 4 6-11 12-17 6-7h2l-2 6-9 17-6 18 1 4 5 6 3 1 2-7 10-16 11-14 12-13 14-13 6-4h2l-2 4-11 13-10 15-9 17-4 10v4l8 7 3 1 6-10 5-6-1-4-4-5 5 2 4 2 8-10 14-12 5-5 5-8 4-3 3-1h12l5 1-10-22-3 1-5 6-6 3h-11l-5-3 1-6 5-6 6-3h12l3 1-8-16-3-5-2-1-2 5-8 7-4 1h-9l-4-2v-7l6-7 7-3h12l-13-20-2-1-2 5-4 5-7 4h-11l-4-3 1-6 6-7 5-2 13-1-9-11-8-7-12-1-7-3-7-7-2-4v-5l3-3h9l8 4 5 5 6 9 8 8 9 11 2 2 4-10 4-5 10-4 6 1 1 1v8l-5 8-10 5h-6l5 9 8 12 2 1 1-8 7-8 7-3h6l3 3-1 7-4 6-8 6-9 2 9 17 1 5h2l2-7 6-7 11-4 5 2 1 1v7h10l11 5-3-24-11 6h-12l-7-5v-5l6-5 6-2 9 1 8 4-4-19-1-6-11 6-9 1-8-3-3-3 1-6 8-5h11l9 4-8-21-1-4-9-3-6-4-4-6-2-7 1-7 3-2 7 1 7 6 5 10 2 10 10 26 5-5 6-5 3-1h8l7 3-1 7-5 5-5 3h-11l-5-1 5 23h2l6-7 4-2h13l4 4-1 5-8 7-5 2-11-1-3-1 2 15v10h3l2-4 7-5h13l5 4-1 4-2 4 9 2 6 5 4 5 7-23-5 1h-11l-9-6-3-4 1-5 4-3h11l8 5 4 5 2 1 4-25-9 2-8-1-7-4-4-5v-6l2-2 4-1h7l7 3 5 4 4 4-1-26-8-10-3-8v-7l4-8 4-1 6 4 4 6 1 3v12l-2 6v11l-1 19 8-4 9-1 8 3 5 5-1 4-5 4-6 2h-7l-12-7-2 16-2 8 11-4h8l6 3 5 5-1 4-8 5-8 1-15-7-2 10-4 13 9-3h9l6 3 5 5-1 4-5 4-2 1h-11l-10-6-3-2-1 6-7 18 7-2h9l5 1-2-5 1-3 6 10 1 3 4 2 15 13 7 9h3l4-4h2l-2 4-2 2 1 5 7 10 2 5 10-8h2l-2-9-10-21-12-18-11-12-2-4 6 2 12 11 16 16 10 13 13 21 1 4 5-5 3-2-1-9-6-16-8-15-2-5 4 2 9 11 12 19 3 3 5-4v3l-2 3h-2l3 10 5 14 3 11v2h2l2-6 5-8-3-5-7-9 2-1 8 6-1-15-5-20-5-13v-5l4 4 11 21 8 22 4-2 2-2-1-4-4-5 2-1 6 5 4-1 5-4v3l-3 4v3l4 4h2l5-15 7-16 8-13 4-3-3 10-5 15-4 21-1 8 9-7h2l-2 5-8 8 1 5 6 9v2l2-1 4-16 6-16-1-4-4-5h3l6 4 2-6 10-16 9-11 4-3-1 5-9 17-7 20 3 5 6 5 2-6 9-15 9-12 10-11 2-3h2v-2l5-5 13-11 4-3h2l-2 4-11 13-10 15-9 17-5 12 2 4 7 7 3 1 2-6 8-11 1-4-3-1-2-4 8 4 12-13 8-7 6-5 4-5 1-5v-185h-44l1-5 42-82 9-17 26-52 10-19 12-24 10-19 18-36 7-13 2-2h123v269h-61l-75-1v177l8-5h2l-2 4-6 5 6 8 9 9 2 3 4-2 7-6 2 1-7 8-1 5 10 14 9 16 3-1 5-5v-7l-6-15-8-16-3-5v-2l4 2 11 14 12 19 2 1 2-4 4-1-6 8 10 28 1 6 2 1 2-6 5-8v-12l-2-16-5-20-5-12 1-2 9 12 8 8 8 7 9 10 4-2 5-2-5 7 7 11 4 6v2l8-7 3-2-1-7-9-20-2-3v-3h-2l-8-12-9-9-4-6v-3l15-7 14-6 3-3v-8l-2-3h-15l-17 2h-21l-11-4-5-5-1-5 3-5 20-11 1-2-44-4-14-4-9-6-3-5v-6l5-6 3-1 27 1-3-5-17-11-10-8-4-6-1-3v-12l5-10 5-4h9l10 5 11 9 17 17 7 8 9 9 5 4 4-1 1-1-1-9-5-12-1-8 3-5 5-3 4-1h8l10 5 7 8 3 8 1 6 2 34h7l10-13 5-4h16l11 5h9l-2-9-10-18-5-13-1-10 2-9 4-6 10-6h12l4 6 4 21 2 5h4l5-13 9-37 5-15 5-9 5-5 4-2 10 1 9 9 4 8v10l-5 13-8 15-1 5 6-1 15-10 2-1h8l5 6v9l-6 10-8 8-15 11-18 12-2 4h27l5 5 6 3 6 10 4 6 5 2 3-6 5-26 4-11 5-8 8-5 3-1h11l10 5 2 3v8l-10 19v7l8-3 16-12 13-11 17-12 10-5 3-1h8l6 4 4 5 1 3v13l-4 8-7 6-17 9-9 4h-2v4l5 1 15 1 9 3 4 8-3 6-8 6-11 3h-21l-14-1h-14l1 3 12 9 6 6v6l-8 6-3 1h-15l-24-5-12-3h-11l-2 9 2 5 4 2 19 11 4 5-1 5-10 7-4 1-18 1-10 21-4 12 1 5 5 6 3 1 2-6 8-14 10-13 9-10 7-8 11-10 9-7h2l-2 4-8 9-12 17-10 18-5 12v4l8 7 3 1 7-11 4-5-1-4-3-3v-2l8 4 11-12 11-10 5-5 7-10 1 4-6 15-4 17-2 15v11l9 14 5-19 6-14-1-4-4-4 1-2 5 4h2l7-13 12-16 6-7 1 3-9 16-8 21v5l6 7h2l9-16 10-14 9-10 7-8 9-9 13-10v3l-10 12-10 14-12 23-8 24-2 9v6l4 8 2-3 7-16 10-16 9-12 9-10 5-5 12-11 4-3 3 1-9 10-11 15-8 14-6 15-6 25-2 13h2l3-9 9-13 8-9 6-5h2l-2 5-8 10-6 14-4 13-1 1h-1725l-7-21-7-12-8-9 3-1 10 9 9 11 6 10 2 5 2 1-5-25-5-17-10-21-9-13-9-10-5-7 6 2 15 14 5 4 7 8 11 15 9 16 8 17 2-3 3-6-2-12-6-20-9-20-10-16-9-11-8-9 1-2 8 6 10 9 14 14 13 17 11 18 1 4h3l2-4 4-4-2-9-8-20-8-14h3l8 9 10 15 6 10 5-3 4-1-2 3h-2v2l-2 1 1 7 6 16 3 13 2 1 2-6 4-5 1-3v-16l-3-18-4-14-16-15-6-9-1-4v-8l3-6 2-1 17 1h15l6-4 3-7-1-7-1-1h-7l-20 8-9 3-6-1-8-9-6-12-4-14v-20l4-10 5-4 23 10 19 8 10 3h6l2-5v-2l-5-2-14-5-24-7-8-4-5-8v-16l8-35 2-13 2-17 4-6 2-1h22l11 3 12 6 8 9 5 12 1 5v42l4 1 2-7v-14l-1-12v-16l5-3 4-1h7l12 4 8 6 6 7 1 10-5 21-7 25-1 5v8l4 2 4-6 6-16 1-8 2-11 4-6 13-14 2-17 6-15 8-12 7-7 9-5 7-1 6 9 9 20 7 15 6 9 6 1v-8l-9-16-2-2-1-4-4-4-7-12-1-8 3-8 7-8h2l1-226h116l20 1v-100h79l1 98 29 1v-134l4-12 7-12h2l2-4 5-5h2v-2l9-5 8-4 14-3 28-1 10-19 10-20 10-19 10-20 10-19 23-46 10-19h2v-2l-41 9-19 3h-24l-18-3-13-5-10-6-3-2v-2l-4-2-9-10-5 10-10 19-23 46-10 19-8 17-6 10-8 16-7 15h-2l-1 5-10 19-10 21-10 20h-2l-1 5-10 19-8 17-4 6-4 1h-131v-268l1-1h135v-80h79l1 79 52 1-6-13-4-17-1-12-2-100-14-1-10-4-10-9-6-9-5-12-3-15v-16l3-31 5-29 8-32 8-24 9-20 4-6-2-6v-15l5-22 6-13h2v-3h2l2-4 12-11 4-7 2-5 2-13v-8l-4-5-3-8v-13l10 1-1-4-8-4 1-5 1-2h-2l1-5 3-6 11-9 4-2 9 2 2-5 2-1-3 11-1 4v7l1 1h5l2-7 4-13 6-11 9-8 12-6z" fill="#163663"/>
<path transform="translate(1187,262)" d="m0 0 2 1-5 5-12 9-11 11-13 17-12 18-10 18-4 8-8 24-4 25v37l3 17 5 17 9 20 12 21 8 11 11 14 10 10v2l4 2 7 7 11 9 20 15 17 11 16 9 17 9 23 11 8 4-4 19-13 53-5 22 24-7 51-14 52-15 42-12 27-6 14-1 63-1 28-2 25-3 25-4 26-5 41-11 29-10 35-15 23-12 17-10 12-8 11-8 12-9 11-10 8-7 4-2 10 28 7 23 17 62 10 44 10 50 7 44 5 42 4 52 3 53 1 26v79l-3 56-6 64-5 36-6 31-10 44-8 29-12 37-12 32-10 23-13 27-12 21-12 19-13 19-10 13-13 15-15 16-10 9-12 11-17 13-10 7-15 9-27 13-16 6-24 6-23 3-4-2-1-2v-101l-1-80-123 1-6 10-29 58-10 19-12 24-10 19-14 28-10 19-15 30-10 19-11 22-9 17-1 3h44l1 187-3 5-6 7-16 14-7 8-6-3 3 3-1 5-9 14-1 2-4-1-9-9 3-9 8-16 8-14 8-10 11-14-13 10-7 6-2 3h-2v2l-5 5-10 11-12 18-7 13-4-2-6-7 4-13 7-16 6-11-1-1-7 8-10 15-6 11-5-2-3-2 5 6-1 6-5 13-4 16-3 1-8-13 1-4 8-8 2-4-6 4-3 3h-2v-8l5-25 7-20-6 8-8 16-6 16-3 7-4-2v-2l-3-1 1-4 3-5-6 5-4-1-5-4 2 4 2 2-1 4-4 4-3-1-8-22-11-21-2-2 1 6 5 13 4 17 1 16-10-6 10 13-4 8-4 7h-2l-8-25-3-7v-5l4-4-4 2h-3l-12-19-10-13-4-3 10 18 6 15 2 6v6l-5 5-4 2-8-14-10-15-11-13-19-19-5-4-4-1 7 8 9 11 11 18 8 17 1 9-6 4-4 4h-2l-7-11-4-6 1-4 4-5-4 2-2 3-4-1-9-11-14-12-5-5-4-7 2 7-6-1h-9l-8 2 3-9 6-16 5 2 8 5h11l6-4 1-4-7-6-3-1h-9l-9 2 1-7 5-16 5 1 10 5 10-2 6-4-1-4-6-5-3-1h-8l-8 3h-3l1-8 3-16 5 2 7 4h7l8-3 3-3-1-4-5-4-6-2-9 1-5 3h-3v-30l2-6v-12l-3-6-5-5-3-1-3 1-3 7v7l3 8 8 10v26l-4-2-5-5-7-3h-7l-5 2v6l4 5 9 4 14-1-1 11-2 12-1 2-3-1-5-6-6-3h-11l-4 3 1 6 8 6 2 1h16l-1 7-5 17-5-4-5-5-10-4 2-5-1-4-3-2h-13l-8 6-1 2h-3l-2-17v-8l14 1 8-4 5-6-1-6h-15l-6 4-4 5-3-1-4-17v-6h16l8-5 2-4v-5l-6-2h-8l-6 3-7 8-2-1-11-29-2-10-6-9-7-4-6 1-1 7 3 9 4 5 13 6 6 14 4 12-10-4h-11l-7 4-1 6 6 4 10 1 9-4 5-2 3 9 2 10v6l-6-2-7-2-8 1-6 4-1 1v5l6 4h12l8-5h3l2 10 1 14-6-2-5-2-10-1-1-7-5-2-11 4-6 8-2 5h-2l-8-16-3-7 12-3 7-6 3-7v-6h-8l-8 4-5 6-2 8-4-2-10-16-1-4 9-2 7-4 4-7v-8l-6-1-10 4-4 6-4 9-4-4-9-11-9-9-5-8v-2l-4-2-7-3h-9l-2 2 1 7 7 8 7 3 12 1 10 9 8 10v1l-14 1-6 3-4 5-1 6 3 2h11l9-6 4-7 3 1 13 20v1h-13l-8 4-4 5v7l3 1h9l7-3 6-7 1-2 4 2 9 17v3h-15l-8 5-3 5v4l4 2h11l8-5 4-5 3 1 9 20v2h-17l-6 3-5 8-4 5-10 8-8 7-6 8-4-2-3-1 4 4-1 4-8 11-3 5-4-2-8-7 1-7 9-19 9-14 9-12 9-11-9 6-16 15-10 11-11 15-8 13-3 7-4-1-6-7 2-10 6-15 10-19-5 5-8 10-10 16-3 5-4-2-4-3 6 7-1 5-6 16-4 15-3-1-6-10-1-5 10-12-5 1v2l-5 2v-11l5-22 6-16v-3l-6 9-8 16-6 16-3 7-5-5-2-3 5-7-3 2-4 3-4-2-6-4 6 7-2 4-4 4h-2l-8-22-11-21-4-4 8 21 4 20 1 11h-3l-8-6 3 5 7 7v5l-8 12h-2l-4-15-7-19 2-4 3-4-5 4-3-1-8-14-11-15-5-5 1 3 7 12 8 20 1 8-7 8-3-1-9-16-10-14-12-14-9-9-8-7-9-6 6 7 10 12 10 16 10 21 1 7-10 9-3-1-9-14-2-5 5-6-7 5-16-16-10-8-7-10-2-2 7 19 4 20 1 9v13l-7 10-2 4-2-1-5-19-5-12v-6l5-5-5 4-4-2-12-19-9-12-1-1-1-9v-179h-79v44l-2 3-5-6-4-2h-11l-14 5-19 10-12 7-5 2h-6v-5l5-5 13-9 19-12 13-10 4-6 1-8v-7h21l2-6h2l2-7 8-15 10-21 3-6h2l1-5 19-38 8-15 20-40 6-11 8-16 9-17 6-12 4-9 2 2 5 14 8 11 8 8 11 7 11 4 17 2 64 1-2 5-15 30-10 19-16 32-10 19-10 20-10 19-12 24 140-1 8-1 6-10 1-4h2l1-5 10-19 3-5 3-7 12-24 10-19 9-17 8-17 8-14 9-19 4-6 1-1h168l-2 5-10 19-23 46-10 19-12 24-10 19-11 22-8 15 149-1 2-5 22-44 7-12 11-23 7-14h2l1-6 4-6 3-7 16-32 8-14 1-4 2-1 33-1 17-6 10-7 6-5 2-3h2l2-5 6-12 3-11 1-149h29v100h79v-99l1-1 135-1-1-20v-237l1-11h-124l-1 6h-2l-3 9-24 47-8 15-24 48-10 19-11 22-10 19-11 22-10 19-5 11-2-1-5-15-7-11-9-9-15-9-10-3-7-1-73-1 22-44 9-17 27-54 6-10 11-23 8-15 11-22h2v-2l-149 1-3 7h-2l-1 6-6 10-23 46-10 19-6 11-2-3-20-62-10-32-4-11-17-53-6-16-10-19-8-10-9-8-13-6-12-3-8-1h-30l-31 4-66 11h-5l-2-4-1-26-1-12h-8l-13-3-9-4h-16l-2-3v-3l-3-1 65-1 126-1 8-2 2-5 11-39 16-59v-9l-1-1h-135l-5 3-3 5-13 49-10 38-2 4-5-4-5-2-4-43-5-60v-11l10 2 29 7 12 1 10-2 8-4 10-9 10-11 9-11 24-28 9-11 13-15 8-10 11-12 4-6-3-7v-5l13-13 2-1 20-1 16-5 18-7 11-7 10-9 4-6 1-5-9 5-16 10-5 1v-6l-5 1-8 4h-8l-2-1v-2l12-2h2v-3l-5-2-9-3h-9l-15 4-12 7-17 17-9 6-19 14-7 5h-2l-1 3-17 12-16 12-14 9-13 10-9 6-12-2-34-8-21-5-1-5 7-17 5-16 1-22 2 2 10-5 12-9 10-9 9-9 11-14 8-10 10-15 11-20 8-20 7-24 3-15 2-21v-34l-3-23-6-25-6-18-10-23 1-3h19l34-1 36-3 32-5 37-8 40-11 40-13 13-8z" fill="#E2F4FB"/>
<path transform="translate(1480,1423)" d="m0 0h123v269h-61l-75-1v177l8-5h2l-2 4-6 5 6 8 9 9 2 3 4-2 7-6 2 1-7 8-1 5 10 14 9 16 3-1 5-5v-7l-6-15-8-16-3-5v-2l4 2 11 14 12 19 2 1 2-4 4-1-6 8 10 28 1 6 2 1 2-6 5-8v-12l-2-16-5-20-5-12 1-2 9 12 8 8 8 7 9 10 4-2 5-2-5 7 7 11 4 6v2l8-7 3-2-1-7-9-20-2-3v-3h-2l-8-12-9-9-4-6v-3l15-7 14-6 3-3v-8l-2-3h-15l-17 2h-21l-11-4-5-5-1-5 3-5 20-11 1-2-44-4-14-4-9-6-3-5v-6l5-6 3-1 27 1-3-5-17-11-10-8-4-6-1-3v-12l5-10 5-4h9l10 5 11 9 17 17 7 8 9 9 5 4 4-1 1-1-1-9-5-12-1-8 3-5 5-3 4-1h8l10 5 7 8 3 8 1 6 2 34h7l10-13 5-4h16l11 5h9l-2-9-10-18-5-13-1-10 2-9 4-6 10-6h12l4 6 4 21 2 5h4l5-13 9-37 5-15 5-9 5-5 4-2 10 1 9 9 4 8v10l-5 13-8 15-1 5 6-1 15-10 2-1h8l5 6v9l-6 10-8 8-15 11-18 12-2 4h27l5 5 6 3 6 10 4 6 5 2 3-6 5-26 4-11 5-8 8-5 3-1h11l10 5 2 3v8l-10 19v7l8-3 16-12 13-11 17-12 10-5 3-1h8l6 4 4 5 1 3v13l-4 8-7 6-17 9-9 4h-2v4l5 1 15 1 9 3 4 8-3 6-8 6-11 3h-21l-14-1h-14l1 3 12 9 6 6v6l-8 6-3 1h-15l-24-5-12-3h-11l-2 9 2 5 4 2 19 11 4 5-1 5-10 7-4 1-18 1-10 21-4 12 1 5 5 6 3 1 2-6 8-14 10-13 9-10 7-8 11-10 9-7h2l-2 4-8 9-12 17-10 18-5 12v4l8 7 3 1 7-11 4-5-1-4-3-3v-2l8 4 11-12 11-10 5-5 7-10 1 4-6 15-4 17-2 15v11l9 14 5-19 6-14-1-4-4-4 1-2 5 4h2l7-13 12-16 6-7 1 3-9 16-8 21v5l6 7h2l9-16 10-14 9-10 7-8 9-9 13-10v3l-10 12-10 14-12 23-8 24-2 9v6l4 8 2-3 7-16 10-16 9-12 9-10 5-5 12-11 4-3 3 1-9 10-11 15-8 14-6 15-6 25-2 13h2l3-9 9-13 8-9 6-5h2l-2 5-8 10-6 14-4 13-1 1h-1725l-7-21-7-12-8-9 3-1 10 9 9 11 6 10 2 5 2 1-5-25-5-17-10-21-9-13-9-10-5-7 6 2 15 14 5 4 7 8 11 15 9 16 8 17 2-3 3-6-2-12-6-20-9-20-10-16-9-11-8-9 1-2 8 6 10 9 14 14 13 17 11 18 1 4h3l2-4 4-4-2-9-8-20-8-14h3l8 9 10 15 6 10 5-3 4-1-2 3h-2v2l-2 1 1 7 6 16 3 13 2 1 2-6 4-5 1-3v-16l-3-18-4-14-16-15-6-9-1-4v-8l3-6 2-1 17 1h15l6-4 3-7-1-7-1-1h-7l-20 8-9 3-6-1-8-9-6-12-4-14v-20l4-10 5-4 23 10 19 8 10 3h6l2-5v-2l-5-2-14-5-24-7-8-4-5-8v-16l8-35 2-13 2-17 4-6 2-1h22l11 3 12 6 8 9 5 12 1 5v42l4 1 2-7v-14l-1-12v-16l5-3 4-1h7l12 4 8 6 6 7 1 10-5 21-7 25-1 5v8l4 2 4-6 6-16 1-8 2-11 4-6 13-14 2-17 6-15 8-12 7-7 9-5 7-1 6 9 9 20 7 15 6 9 6 1v-8l-9-16-2-2-1-4-4-4-7-12-1-8 3-8 7-8h2l1-3h1l1 37 1 7 7 1 50 1h52l1 1 1 11-3 7-5 6-14 10-24 15-7 5-2 3-1 5 8-2 14-7 16-9 14-6 4-1h11l6 4 3 4 1-2 1-44h79l1 179 1 9 8 10 11 17 4 6h4l1-3h2l-2 4-2 1v6l6 15 4 16 3-4 6-9v-13l-3-21-5-17-4-10 1-2 10 14 11 9 14 14 5-4h2l-4 8 10 15 1 2 4-2 7-6-1-7-11-23-7-11-8-10-9-10v-3l9 6 17 16 11 12 12 17 9 16 2 1 2-4 4-4-1-8-6-15-7-14-4-7 5 2 10 13 8 13 4 7 8-4-2 4-3 3 3 10 7 21v5l4-4 5-8v-5l-9-9-1-4 7 4 4 3-2-17-4-17-7-19 4 2 8 14 7 15 5 14v3l7-6-2-4-3-3v-2l4 2 4 3 4-2 6-4-2 5-3 5 5 6 2-2 5-15 6-13 8-15 4-3-1 6-6 17-4 19-1 11 5-2v-2l3-2 3 1-10 12 1 5 6 10 2 1 1-7 5-17 4-9-1-4-4-4v-2l8 4 6-11 12-17 6-7h2l-2 6-9 17-6 18 1 4 5 6 3 1 2-7 10-16 11-14 12-13 14-13 6-4h2l-2 4-11 13-10 15-9 17-4 10v4l8 7 3 1 6-10 5-6-1-4-4-5 5 2 4 2 8-10 14-12 5-5 5-8 4-3 3-1h12l5 1-10-22-3 1-5 6-6 3h-11l-5-3 1-6 5-6 6-3h12l3 1-8-16-3-5-2-1-2 5-8 7-4 1h-9l-4-2v-7l6-7 7-3h12l-13-20-2-1-2 5-4 5-7 4h-11l-4-3 1-6 6-7 5-2 13-1-9-11-8-7-12-1-7-3-7-7-2-4v-5l3-3h9l8 4 5 5 6 9 8 8 9 11 2 2 4-10 4-5 10-4 6 1 1 1v8l-5 8-10 5h-6l5 9 8 12 2 1 1-8 7-8 7-3h6l3 3-1 7-4 6-8 6-9 2 9 17 1 5h2l2-7 6-7 11-4 5 2 1 1v7h10l11 5-3-24-11 6h-12l-7-5v-5l6-5 6-2 9 1 8 4-4-19-1-6-11 6-9 1-8-3-3-3 1-6 8-5h11l9 4-8-21-1-4-9-3-6-4-4-6-2-7 1-7 3-2 7 1 7 6 5 10 2 10 10 26 5-5 6-5 3-1h8l7 3-1 7-5 5-5 3h-11l-5-1 5 23h2l6-7 4-2h13l4 4-1 5-8 7-5 2-11-1-3-1 2 15v10h3l2-4 7-5h13l5 4-1 4-2 4 9 2 6 5 4 5 7-23-5 1h-11l-9-6-3-4 1-5 4-3h11l8 5 4 5 2 1 4-25-9 2-8-1-7-4-4-5v-6l2-2 4-1h7l7 3 5 4 4 4-1-26-8-10-3-8v-7l4-8 4-1 6 4 4 6 1 3v12l-2 6v11l-1 19 8-4 9-1 8 3 5 5-1 4-5 4-6 2h-7l-12-7-2 16-2 8 11-4h8l6 3 5 5-1 4-8 5-8 1-15-7-2 10-4 13 9-3h9l6 3 5 5-1 4-5 4-2 1h-11l-10-6-3-2-1 6-7 18 7-2h9l5 1-2-5 1-3 6 10 1 3 4 2 15 13 7 9h3l4-4h2l-2 4-2 2 1 5 7 10 2 5 10-8h2l-2-9-10-21-12-18-11-12-2-4 6 2 12 11 16 16 10 13 13 21 1 4 5-5 3-2-1-9-6-16-8-15-2-5 4 2 9 11 12 19 3 3 5-4v3l-2 3h-2l3 10 5 14 3 11v2h2l2-6 5-8-3-5-7-9 2-1 8 6-1-15-5-20-5-13v-5l4 4 11 21 8 22 4-2 2-2-1-4-4-5 2-1 6 5 4-1 5-4v3l-3 4v3l4 4h2l5-15 7-16 8-13 4-3-3 10-5 15-4 21-1 8 9-7h2l-2 5-8 8 1 5 6 9v2l2-1 4-16 6-16-1-4-4-5h3l6 4 2-6 10-16 9-11 4-3-1 5-9 17-7 20 3 5 6 5 2-6 9-15 9-12 10-11 2-3h2v-2l5-5 13-11 4-3h2l-2 4-11 13-10 15-9 17-5 12 2 4 7 7 3 1 2-6 8-11 1-4-3-1-2-4 8 4 12-13 8-7 6-5 4-5 1-5v-185h-44l1-5 42-82 9-17 26-52 10-19 12-24 10-19 18-36 7-13z" fill="#13B8A6"/>
<path transform="translate(399,137)" d="m0 0h18v1l-27 5-18 6-24 12-14 10-11 9-17 17-11 15-10 17-7 15-8 26-1 4-32 8-19 7-16 8-15 9-13 10-14 12-13 14-10 13-13 21-10 22-7 23-4 21-1 7v38l4 25 7 25 8 18 9 17 12 17 11 13 17 17 19 14 21 12 19 8 20 6 14 3 26 3 24-1 26-4 23-6 18-7 20-11 12-8 8-6 4 1 12 9 19 10 21 7 17 3 7 1h27l20-4 25-7 8-4 9-6 6 1 19 7 8 1 5 1 15 1 5-1h8l12-1 16 4 12 2-2 1-2 6-5 14-3 15v15l2 6-8 14-10 26-7 25-6 27-4 27-2 23v16l4 18 8 16 8 8 9 5 4 1 14 1 1 1 2 100 2 18 5 16 3 6v2h-52l-1-1v-79h-79v80l-135 1-1 268 135-1 2-5 21-42h2l2-6 14-29 10-19 5-11h2l3-9 10-19 24-48 6-10 11-23 8-16 11-21 3-7 5 4 7 8 2 1v2l20 10 6 2 18 3h24l24-4 31-7h5v2h-2l-2 6-15 29-21 42-10 19-13 26-10 19-9 17-3 5-28 1-14 3-12 6-5 2v2l-8 7-1 2h-2l-2 5-6 12-2 7-1 134h-29l-1-1v-98h-79v100l-136-1v187l-1 19-3-2v-2l-5-1-24-11-26-13-20-11-18-10-19-12-16-11-12-9-13-10-11-10-8-7-19-19-7-8-9-11-11-15-9-14-8-14-10-21-9-25-5-21-2-13-1-13v-20l2-25 5-27 7-25 7-21 19-49 13-33 15-37 13-33 10-28 8-27 6-27 3-27v-39l-4-35-5-26-6-24-12-41-26-78-14-47-2-7v-5l2-5-4-2-22-8-20-10-14-9-12-9-13-12-11-11-13-17-13-21-7-15-7-19-5-21-3-23v-26l4-26 6-23 6-16 8-17 10-16 9-12 12-14 9-9 11-9 14-10 17-10 21-9 15-5 22-5h4l2-9 8-24 9-19 9-14 8-10 9-10 12-12 13-10 15-9 19-9 19-6 20-4z" fill="#E2F4FB"/>
<path transform="translate(975,1046)" d="m0 0h8l4 6-1 3-5-2v-3l-5 3-2 4 7 8 3 3h3l-1-5-1-4 3-5 6 2 5 4 10 21 13 29 2 6-4 10-8 16-7 17-10 22-7 15-5 10-4 10-5 12-13 25-3 3-6 2-1-1-20-2-16-5-4-2v-2h-4l-1 8-3 9 5 10 4 2 5 3 9 1 13-3h6l4 8 5 9 8 8 14 9 21 11 7 6 1 2v7l-6 8-6 5-5-1-16-5-16-6-7-2-24-8-4-4v-3h-2l-3-5v-2l-9 9-9-1-18-6v-8l3-12 6-11 5-8h2v-2l-138 1-13 4-11 8-8 11-3 7-1 5-1 24v112l3 14 5 10 9 10 9 5 8 3 6 1h520l12-3 9-4 9-7 6-9 4-12 1-7v-131l-2-10-3-9-7-9-6-5-8-5-10-3-46-1v7l-10 5-16 6-11 5-16 6-11 5-11-1-9-3v14l-14 6-8 4h-4l-5-7-5-11-3-21-3-16-3-5-3-7-1-6 9-3 12-6 4-1v-2l6-3 5-5 5-7v-7l-14-43-7-22 9-19 12-23 12-24 9-17 4-7 1-4h2l2-7 1-1h149v2h-2l-3 9-9 17-10 19-9 19-5 8-21 42-10 19-11 23-5 8-4 9-5 9-2 3h73l10 2 8 3 11 6 10 9 6 7 5 10 4 12 14-28 10-19 11-22 10-19 11-22 10-19 12-24 10-19 15-30 10-19 4-9h2l1-6h124v268l-2 1-133 1-1 99h-79v-100h-29v149l-4 13-5 10-3 5-5 5-10 8-10 5-12 4-35 1-1 6-9 16-9 19-7 12-2 5-4 7-1 4h-2l-2 6-10 21-8 15-10 19-14 29-5 8-3 1h-146l2-6 17-33 20-39 8-15 35-70 4-6-168 1-5 8-9 19-12 22-8 17-12 22-8 16-8 15-2 5-10 19-4 9h-2l-1 6-6 9-8 1h-140l1-4 9-17 16-32 10-19 28-56 10-19 11-21h-64l-17-2-13-5-11-8-9-9-6-9-5-14-2 4-6 11-10 19-8 17-3 5-12 23-11 23-5 9-12 23-8 16-5 11h-2l-2 6-13 27-8 16h-2l-2 6h-75l-49-1-7-1-1-1-1-7-1-37v-223h116l20 1v-100h79l1 98 29 1v-134l4-12 7-12h2l2-4 5-5h2v-2l9-5 8-4 14-3h148l17-1-2-3 1-8 23-91 21-82 2-4 24-5z" fill="#163664"/>
<path transform="translate(1359,1323)" d="m0 0h29v100h82l1 1h8l-34 68-10 19-12 24-10 19-14 28-10 19-15 30-10 19-11 22-9 17-1 3h44l1 187-3 5-6 7-16 14-7 8-6-3 3 3-1 5-9 14-1 2-4-1-9-9 3-9 8-16 8-14 8-10 11-14-13 10-7 6-2 3h-2v2l-5 5-10 11-12 18-7 13-4-2-6-7 4-13 7-16 6-11-1-1-7 8-10 15-6 11-5-2-3-2 5 6-1 6-5 13-4 16-3 1-8-13 1-4 8-8 2-4-6 4-3 3h-2v-8l5-25 7-20-6 8-8 16-6 16-3 7-4-2v-2l-3-1 1-4 3-5-6 5-4-1-5-4 2 4 2 2-1 4-4 4-3-1-8-22-11-21-2-2 1 6 5 13 4 17 1 16-10-6 10 13-4 8-4 7h-2l-8-25-3-7v-5l4-4-4 2h-3l-12-19-10-13-4-3 10 18 6 15 2 6v6l-5 5-4 2-8-14-10-15-11-13-19-19-5-4-4-1 7 8 9 11 11 18 8 17 1 9-6 4-4 4h-2l-7-11-4-6 1-4 4-5-4 2-2 3-4-1-9-11-14-12-5-5-4-7 2 7-6-1h-9l-8 2 3-9 6-16 5 2 8 5h11l6-4 1-4-7-6-3-1h-9l-9 2 1-7 5-16 5 1 10 5 10-2 6-4-1-4-6-5-3-1h-8l-8 3h-3l1-8 3-16 5 2 7 4h7l8-3 3-3-1-4-5-4-6-2-9 1-5 3h-3v-30l2-6v-12l-3-6-5-5-3-1-3 1-3 7v7l3 8 8 10v26l-4-2-5-5-7-3h-7l-5 2v6l4 5 9 4 14-1-1 11-2 12-1 2-3-1-5-6-6-3h-11l-4 3 1 6 8 6 2 1h16l-1 7-5 17-5-4-5-5-10-4 2-5-1-4-3-2h-13l-8 6-1 2h-3l-2-17v-8l14 1 8-4 5-6-1-6h-15l-6 4-4 5-3-1-4-17v-6h16l8-5 2-4v-5l-6-2h-8l-6 3-7 8-2-1-11-29-2-10-6-9-7-4-6 1-1 7 3 9 4 5 13 6 6 14 4 12-10-4h-11l-7 4-1 6 6 4 10 1 9-4 5-2 3 9 2 10v6l-6-2-7-2-8 1-6 4-1 1v5l6 4h12l8-5h3l2 10 1 14-6-2-5-2-10-1-1-7-5-2-11 4-6 8-2 5h-2l-8-16-3-7 12-3 7-6 3-7v-6h-8l-8 4-5 6-2 8-4-2-10-16-1-4 9-2 7-4 4-7v-8l-6-1-10 4-4 6-4 9-4-4-9-11-9-9-5-8v-2l-4-2-7-3h-9l-2 2 1 7 7 8 7 3 12 1 10 9 8 10v1l-14 1-6 3-4 5-1 6 3 2h11l9-6 4-7 3 1 13 20v1h-13l-8 4-4 5v7l3 1h9l7-3 6-7 1-2 4 2 9 17v3h-15l-8 5-3 5v4l4 2h11l8-5 4-5 3 1 9 20v2h-17l-6 3-5 8-4 5-10 8-8 7-6 8-4-2-3-1 4 4-1 4-8 11-3 5-4-2-8-7 1-7 9-19 9-14 9-12 9-11-9 6-16 15-10 11-11 15-8 13-3 7-4-1-6-7 2-10 6-15 10-19-5 5-8 10-10 16-3 5-4-2-4-3 6 7-1 5-6 16-4 15-3-1-6-10-1-5 10-12-5 1v2l-5 2v-11l5-22 6-16v-3l-6 9-8 16-6 16-3 7-5-5-2-3 5-7-3 2-4 3-4-2-6-4 6 7-2 4-4 4h-2l-8-22-11-21-4-4 8 21 4 20 1 11h-3l-8-6 3 5 7 7v5l-8 12h-2l-4-15-7-19 2-4 3-4-5 4-3-1-8-14-11-15-5-5 1 3 7 12 8 20 1 8-7 8-3-1-9-16-10-14-12-14-9-9-8-7-9-6 6 7 10 12 10 16 10 21 1 7-10 9-3-1-9-14-2-5 5-6-7 5-16-16-10-8-7-10-2-2 7 19 4 20 1 9v13l-7 10-2 4-2-1-5-19-5-12v-6l5-5-5 4-4-2-12-19-9-12-1-1-1-9v-179h-79v44l-2 3-5-6-4-2h-11l-14 5-19 10-12 7-5 2h-6v-5l5-5 13-9 19-12 13-10 4-6 1-8v-7h21l2-6h2l2-7 8-15 10-21 3-6h2l1-5 19-38 8-15 20-40 6-11 8-16 9-17 6-12 4-9 2 2 5 14 8 11 8 8 11 7 11 4 17 2 64 1-2 5-15 30-10 19-16 32-10 19-10 20-10 19-12 24 140-1 8-1 6-10 1-4h2l1-5 10-19 3-5 3-7 12-24 10-19 9-17 8-17 8-14 9-19 4-6 1-1h168l-2 5-10 19-23 46-10 19-12 24-10 19-11 22-8 15 149-1 2-5 22-44 7-12 11-23 7-14h2l1-6 4-6 3-7 16-32 8-14 1-4 2-1 33-1 17-6 10-7 6-5 2-3h2l2-5 6-12 3-11z" fill="#FCFDFD"/>
<path transform="translate(907,1246)" d="m0 0h4v2l9 3 17 4 14 1-2 9-3 9h169l2 7 3 25 4 10 6 12 11-4 12-6h3v-14l9 2 11 1 18-8 13-5 14-6 11-4 6-3h2v-7h46l12 4 10 7 8 9 3 5 3 9 1 8v131l-3 14-4 8-7 9-10 7-12 4-6 1h-520l-12-3-8-4-10-9-6-9-4-12-1-7v-112l1-24 3-10 7-11 9-8 10-5 8-2h138v2h-2l-2 5-6 10-4 10-2 14 17 4 7 2 4-1 6-7h2l3 5v2h2l3 5 10 4 15 5 7 2 19 7 13 4 5 1 7-6 4-6v-7l-4-5-12-7-14-7-13-9-8-8-5-9-3-7-10 1-9 2-9-1-9-6-5-7-1-4 4-11z" fill="#FCFCFC"/>
<path transform="translate(786,507)" d="m0 0 16 1 12 2 9 2 2-4h19l13 3 10 4 9 8 3 6v12l-5 13-7 12-7 6-3 3-3 19-1 36-5 16-5 12-2 5v4l50 12 14 3 5-1 19-14 9-6 11-8 18-13 10-7 4-4 14-10 18-13 8-7 11-11 12-7 15-4h9l9 3 5 3v3l-2 1-12 1v2h10l9-5 5 1-1 6 12-6 15-10h3l-1 7-9 10-11 8-12 6-19 7-8 2-20 1-8 7-6 6 1 7 2 6-11 12-9 11-24 28-8 10-9 10-9 11-12 14-7 8-7 7-8 5-6 2-8 1-15-2-32-8-3-1 6 71 4 43 7 3 2 2 8-29 14-54 4-11 4-4 3-1h135l2 2v9l-16 59-11 39-3 5-3 2-5 1-126 1-62 1 2 5h16l12 5 18 3 1 2 1 10 1 26 1 4-19 10-20 8-11 3-9 3-20 4-18 2h-17l-18-2-21-5-12-4-15-6-1-3-1-43-14-1-10-4-10-9-6-9-5-12-3-15v-16l3-31 5-29 8-32 8-24 9-20 4-6-2-6v-15l5-22 6-13h2v-3h2l2-4 12-11 4-7 2-5 2-13v-8l-4-5-3-8v-13l10 1-1-4-8-4 1-5 1-2h-2l1-5 3-6 11-9 4-2 9 2 2-5 2-1-3 11-1 4v7l1 1h5l2-7 4-13 6-11 9-8 12-6z" fill="#FB7BA8"/>
<path transform="translate(1480,1423)" d="m0 0h123v269h-61l-75-1v178l-4 1-9-7 7 9-2 4-8 8-7 8-5-1-5-4v-2h-2l2 5 3 1 3 4-2 5-9 13-10 16h-2l-7-8 1-7 8-20 5-10 1-4-13 17-9 15-2 1-4-2 3 4-1 7-5 12-5 14h-1v-257h-45l2-6 41-80 9-17 26-52 10-19 12-24 10-19 18-36 7-13z" fill="#D63E59"/>
<path transform="translate(1481,282)" d="m0 0h24l20 1 12 3 15 6 11 8 5 5 6 5 2 5h2v3h2v3h2l1 5h2l5 10 5 15 5 21 1 7v38l-3 21-4 15-4 13-9 16-11 14-12 10-15 8-14 4-13 2h-37l-17-4-14-7-11-7-12-12-1-4h-2l-9-15-1-6h-2l-3-12-1 15-33 2-1 47-69-1-1-48h-112v-37l12-18 16-23 14-21 15-22 22-32 16-24 4-5h51l21 1-4 7-46 69-13 19-28 42h34l1-42 41-1h26v43l28-1-1-10v-23l2-18 3-16 5-15 8-17 7-10 9-10 8-7 15-9 17-5z" fill="#D63E59"/>
<path transform="translate(576,1323)" d="m0 0h79l1 98 28 1 1 2v50l-4 9-4 8-10 19-8 17-3 5-12 23-11 23-5 9-12 23-8 16-5 11h-2l-2 6-13 27-8 16h-2l-2 6h-75l-49-1-7-1-1-1-1-7-1-37v-223h116l20 1z" fill="#D63E59"/>
<path transform="translate(576,974)" d="m0 0h79l1 79 52 1 2 3-3 7-14 27-10 21-10 19-12 23-8 16-15 29-5 11h-2l-1 5-10 19-10 21-10 20h-2l-1 5-10 19-8 17-4 6-4 1h-131v-268l1-1h135z" fill="#D63E59"/>
<path transform="translate(1479,1054)" d="m0 0h124v268l-2 1-133 1-1 99h-79v-100h-29l-1-18v-15h2l4-10 24-47 41-80 10-19 23-46 10-19 4-9h2z" fill="#D63E59"/>
<path transform="translate(1712,1656)" d="m0 0 10 1 9 9 4 8v10l-5 13-8 15-1 5 6-1 15-10 2-1h8l5 6v9l-6 10-8 8-15 11-18 12-2 4h27l5 5 6 3 6 10 4 6 5 2 3-6 5-26 4-11 5-8 8-5 3-1h11l10 5 2 3v8l-10 19v7l8-3 16-12 13-11 17-12 10-5 3-1h8l6 4 4 5 1 3v13l-4 8-7 6-17 9-9 4h-2v4l5 1 15 1 9 3 4 8-3 6-8 6-11 3h-21l-14-1h-14l1 3 12 9 6 6v6l-8 6-3 1h-15l-24-5-12-3h-11l-2 9 2 5 4 2 19 11 4 5-1 5-10 7-4 1h-19-3l-7 11-4 5-1 3h-2l-1 5h-2l-2 6-1 2-1 1-1 5-6 15-4 15-3-1-7-12v-24l1-5h2l1-9 2-11 2-5-1-6-8 18-3 10h-2v5l-1 4h-2l-1 6-2 2-3-2v-2l-3-1-1-5-8-2 2 5-4 6-2 2-4-9-3-10v-5l-3-1-8-12-2-1 4 15 3 13-1 13-5-2-5-4 2 4 7 7 2 3-1 5-6 9-1 2h-2l-2-10-7-21v-2h-2l-3-7-7-13-8-11-6-7-2 1v2h2l4 9 6 14 3 10v5l-4 2-1 5h-4l-4-8v-2h-2l-6-12-13-15-12-14-5-3-3-2-2-2-3-2-6-3v-3l15-7 14-6 3-3v-8l-2-3h-15l-17 2h-21l-11-4-5-5-1-5 3-5 20-11 1-2-44-4-14-4-9-6-3-5v-6l5-6 3-1 27 1-3-5-17-11-10-8-4-6-1-3v-12l5-10 5-4h9l10 5 11 9 17 17 7 8 9 9 5 4 4-1 1-1-1-9-5-12-1-8 3-5 5-3 4-1h8l10 5 7 8 3 8 1 6 2 34h7l10-13 5-4h16l11 5h9l-2-9-10-18-5-13-1-10 2-9 4-6 10-6h12l4 6 4 21 2 5h4l5-13 9-37 5-15 5-9 5-5z" fill="#9AC873"/>
<path transform="translate(250,1669)" d="m0 0h22l11 3 12 6 8 9 5 12 1 5v42l4 1 2-7v-14l-1-12v-16l5-3 4-1h7l12 4 8 6 6 7 1 10-5 21-7 25-1 5v8l4 2 4-6 6-16 1-8 2-11 4-6 13-14 2-2h13l13 5 12 8 12 11 6 7 1 7-8 13-2 4 5 1 6 3 9-3 8 1 6 4 4-12v-10l2-6 3-21v-10l-7-8-6-8-2-3 2-10 2 1 2 7 9 11v2h4l2-10 5-10 3 1-2 13-5 24-6 36v7l3 2 1 6-6 2-2 2-1-2h-2l2 7v20l-5 25-2 7 3-3v16l2 1-3 1-2 19-4-1-1-3 1-12-1-7h-2l-12 16v2l6 2 8 3v14l1 3-7 11-5 8-5-3-2-1 5 6-1 6-6 15-7-6-1-3 4-5-4 4-5-2-1-5 5-23 5-16-5 7h-2l-2 6-7 16-1 4h-3l1 4-2 1v-2h-3l4 6v2l-4-1-7-8v-2l-5-2-4-2 5 6v3l-5 5-3-1-7-19-10-20-3-4 6 19 3 16 1 14h-4l-7-6 6 7 5 7-6 11-3 4h-2l-4-16-6-16v-5l4-1v-2l-7 2-11-18-9-12-2-1 9 19 5 15v6l-5 5-4 2-10-17-13-18-9-10-5-8-11-7-5-4h-2l4 4v2h-2l1 3 6 2 12 17 7 14 6 13 1 5-8 6-3 3h-2l-9-14-3-5 3-4-5 2-13-13-13-12v-2h-2l-4-5-2-1-1 2-5-2-7-6-6-9-1-4v-8l3-6 2-1 17 1h15l6-4 3-7-1-7-1-1h-7l-20 8-9 3-6-1-8-9-6-12-4-14v-20l4-10 5-4 23 10 19 8 10 3h6l2-5v-2l-5-2-14-5-24-7-8-4-5-8v-16l8-35 2-13 2-17 4-6z" fill="#62C9ED"/>
<path transform="translate(709,1057)" d="m0 0 5 4 7 8 2 1v2l20 10 6 2 18 3h24l24-4 31-7h5v2h-2l-2 6-15 29-21 42-10 19-13 26-10 19-9 17-3 5-28 1-14 3-12 6-5 2v2l-8 7-1 2h-2l-2 5-6 12-2 7-1 134h-29l-1-1v-98h-79v-5l3-4 11-23 8-16h2l2-6 14-29 10-19 5-11h2l3-9 10-19 24-48 6-10 11-23 8-16 11-21z" fill="#FCFDFD"/>
<path transform="translate(1326,1053)" d="m0 0 26 1h117l6 1h4l-1 5h-2l-3 9-24 47-8 15-24 48-10 19-11 22-10 19-11 22-10 19-5 11-2-1-5-15-7-11-9-9-15-9-10-3-7-1-73-1 22-44 9-17 27-54 6-10 11-23 8-15 11-22h2v-2z" fill="#FCFDFD"/>
<path transform="translate(1179,1054)" d="m0 0h149v2h-2l-3 9-9 17-10 19-9 19-5 8-21 42-10 19-11 23-5 8-4 9-5 9-3 4h-78l-2-1 3 10 2 6-8 9-1 2h-2l-2 4-6 5-3 1h-11l-6-2-2 2-3-9-5-10 1-5 10-3 10-5 4-1v-2l6-3 5-5 5-7v-7l-14-43-7-22 9-19 12-23 12-24 9-17 4-7 1-4h2l2-7z" fill="#D63E59"/>
<path transform="translate(1701,286)" d="m0 0h72v2h-2l-2 5-66 99-19 28-2 4h34v-43h68v41l1 1 33 1v44l-7 1-12-1-3 1h-13v47h-67l-1-1-1-47-112-1v-35l3-7 11-16 15-22 22-32 45-66z" fill="#D63F5A"/>
<path transform="translate(1289,286)" d="m0 0h51l21 1-4 7-46 69-13 19-28 42h34l1-42 41-1h26v43h29l2 5 3 18v21l-33 2-1 47-69-1-1-48h-112v-37l12-18 16-23 14-21 15-22 22-32 16-24z" fill="#D63E59"/>
<path transform="translate(1128,1522)" d="m0 0h148l-3 9-8 14-9 19-7 12-2 5-4 7-1 4h-2l-2 6-10 21-8 15-10 19-14 29-5 8-3 1h-146l2-6 17-33 20-39 8-15 35-70z" fill="#D63E59"/>
<path transform="translate(813,1522)" d="m0 0h146l-2 6-9 17-8 16-8 15-8 17-10 18-8 16-8 15-2 5-10 19-4 9h-2l-1 6-6 9-8 1h-140l1-4 9-17 16-32 10-19 28-56 10-19 11-21z" fill="#D63E59"/>
<path transform="translate(1712,1656)" d="m0 0 10 1 2 4-6 10-13 26-11 30-8 26-9 38-5 27-3 28-2 29-1 25-5-5-5-8-2-1 4 15 3 13-1 13-5-2-5-4 2 4 7 7 2 3-1 5-6 9-1 2h-2l-2-10-7-21v-2h-2l-3-7-7-13-8-11-6-7-2 1v2h2l4 9 6 14 3 10v5l-4 2-1 5h-4l-4-8v-2h-2l-6-12-13-15-12-14-5-3-3-2-2-2-3-2-6-3v-3l15-7 14-6 3-3v-8l-2-3h-15l-17 2h-21l-11-4-5-5-1-5 3-5 20-11 1-2-44-4-14-4-9-6-3-5v-6l5-6 3-1 27 1-3-5-17-11-10-8-4-6-1-3v-12l5-10 5-4h9l10 5 11 9 17 17 7 8 9 9 5 4 4-1 1-1-1-9-5-12-1-8 3-5 5-3 4-1h8l10 5 7 8 3 8 1 6 2 34h7l10-13 5-4h16l11 5h9l-2-9-10-18-5-13-1-10 2-9 4-6 10-6h12l4 6 4 21 2 5h4l5-13 9-37 5-15 5-9 5-5z" fill="#71B552"/>
<path transform="translate(944,1053)" d="m0 0h3l-2 11-14 54-16 64-13 51 1 5v3l-17 1h-108l-12-1 20-40 10-19 10-20 10-19 23-46 10-19h2v-2l10-3 23-6z" fill="#D63E59"/>
<path transform="translate(914,771)" d="m0 0h135l2 2v9l-16 59-11 39-3 5-3 2-5 1-211 1-19-1v-7l1-4 95-1 6-20 18-69 4-11 4-4z" fill="#3966AD"/>
<path transform="translate(1388,1692)" d="m0 0h79v177l-4 1-9-7 7 9-2 4-8 8-7 8-5-1-5-4v-2h-2l2 5 3 1 3 4-2 5-9 13-10 16h-2l-7-8 1-7 8-20 5-10 1-4-13 17-9 15-2 1-4-2 3 4-1 7-5 12-5 14h-1z" fill="#163663"/>
<path transform="translate(576,1691)" d="m0 0h79l1 183-1 6 1 13-1 22-5-5-7-11-2-3 9-11-8 6-4 2-14-15-4-4 2-4 6-7-8 6-5 1-8-6 6 8-2 4-7 7-7 8-4 2v-2l-8-4 7 8-1 4-10 14-3 5h-2v-40l-1-64z" fill="#163663"/>
<path transform="translate(399,137)" d="m0 0h18v1l-27 5-18 6-24 12-14 10-11 9-17 17-11 15-10 17-7 15-8 26-1 4-32 8-19 7-16 8-15 9-13 10-14 12-13 14-10 13-13 21-10 22-7 23-4 21-1 7v38l4 25 7 25 8 18 9 17 12 17 11 13 17 17 19 14 21 12 19 8 20 6 14 3 14 2v1h-21l-24-3-24-6-21-8-23-12-16-11-14-12-15-15-13-17-13-21-7-15-7-19-5-21-3-23v-26l4-26 6-23 6-16 8-17 10-16 9-12 12-14 9-9 11-9 14-10 17-10 21-9 15-5 22-5h4l2-9 8-24 9-19 9-14 8-10 9-10 12-12 13-10 15-9 19-9 19-6 20-4z" fill="#8CB0D8"/>
<path transform="translate(975,1046)" d="m0 0h8l4 6-1 3-5-2v-3l-5 3-2 4 7 8 3 3h3l-1-5-1-4 3-5 6 2 5 4 10 21 13 29 2 6-4 10-8 16-7 17-10 22-7 15-5 10-4 10-5 12-13 25-3 3-6 2-1-1-20-2-16-5-4-2v-2l-5-2-4-6-1-5 25-99 20-78 2-4 24-5z" fill="#051C40"/>
<path transform="translate(786,507)" d="m0 0 16 1 12 2 9 2 2-4h19l13 3 10 4 9 8 3 6v12l-5 13-7 12-7 6-3 3-3 19-1 36-5 16-5 12-3 8-3 1-24-4-15-2v-6l16-1 11-4 4-2 8-16 1-8v-29l-3-23-2-5-5-4-5-2-6-1h-14l-18 4-13 5-8 5h-3v2l-9 7-4 20-2 8v7l2 4v26l-1 20-26 9-16 7-9 5-11 13-2-1-1-3v-15l5-22 6-13h2v-3h2l2-4 12-11 4-7 2-5 2-13v-8l-4-5-3-8v-13l10 1-1-4-8-4 1-5 1-2h-2l1-5 3-6 11-9 4-2 9 2 2-5 2-1-3 11-1 4v7l1 1h5l2-7 4-13 6-11 9-8 12-6z" fill="#070351"/>
<path transform="translate(1490,151)" d="m0 0h64l37 3 35 5 31 6 35 9 38 13 21 9 25 12 20 11 19 12 16 12 9 7 10 9 8 7 11 11 9 11 11 15 8 13 8 15 7 19 4 13 4 25v25l-4 24-7 23-8 16-11 20-10 14-8 10-9 10-3 4-2-1 3-5 5-5 8-10 12-19 8-17 7-21 4-19 1-9v-30l-3-18-5-19-7-17-11-21-12-17-11-13-7-8-13-13-11-9-15-12-18-12-15-9-22-12-21-10-28-11-30-10-31-8-29-6-35-5-33-3-19-1h-41l-35 2-37 4-34 6-30 7-31 9-31 11-27 12-21 11h-3v2l-15 9-19 13-14 11h-3l12-11 16-12 15-10 15-9 16-9 26-13 26-11 33-11 30-8 33-7 33-5 30-3z" fill="#80AFE8"/>
<path transform="translate(1480,1724)" d="m0 0 14 7 12 8 17 12 14 11 15 14 12 12 8 7 7 7 7 8 10 11 9 11 13 17 13 18 10 16 14 24 5 9v11l-5-2-5-4 2 4 7 7 2 3-1 5-6 9-1 2h-2l-2-10-7-21v-2h-2l-3-7-7-13-8-11-6-7-2 1v2h2l4 9 6 14 3 10v5l-4 2-1 5h-4l-4-8v-2h-2l-6-12-13-15-12-14-5-3-3-2-2-2-3-2-6-3v-3l15-7 14-6 3-3v-8l-2-3h-15l-17 2h-21l-11-4-5-5-1-5 3-5 20-11 1-2-44-4-14-4-9-6-3-5v-6l5-6 3-1 27 1-3-5-17-11-10-8-4-6-1-3v-12z" fill="#9AC873"/>
<path transform="translate(1886,1741)" d="m0 0 2 3v13l-4 8-7 6-17 9-9 4h-2v4l5 1 15 1 9 3 4 8-3 6-8 6-11 3h-21l-14-1h-14l1 3 12 9 6 6v6l-8 6-3 1h-15l-24-5-12-3h-11l-2 9 2 5 4 2 19 11 4 5-1 5-10 7-4 1h-19-3l-7 11-4 5-1 3h-2l-1 5h-2l-2 6-1 2-1 1-1 5-6 15-4 15-3-1-7-12v-24l1-5h2l1-9 2-11 2-5v-8l-2-1 9-12 15-16 19-19 8-7 13-12 5-4h2v-2l11-8 10-7 20-13 20-12 23-12 17-7h3z" fill="#9AC873"/>
<path transform="translate(803,559)" d="m0 0h14l9 2 6 4 3 3 3 18 1 9v29l-2 10-5 10-5 5-6 4-7 2-16 1-1 17-3 7-5 4h-9l-12-4-19-10-1-1-1-47-2-4v-7l3-11 3-17 8-7h2v-2l11-6 16-6z" fill="#F9D0BD"/>
<path transform="translate(576,1323)" d="m0 0h79l1 99-21 1h-55l-4-1z" fill="#163664"/>
<path transform="translate(1438,1323)" d="m0 0h26l3 1v99h-79v-99z" fill="#163663"/>
<path transform="translate(268,1694)" d="m0 0 4 1 18 36v3h2l5 11v2h2l5 11v2h2l5 10v2h2l4 8v2h2l4 8v2h2l5 8v3h2l5 10 6 1 12-7 14-11 9-10 9-14 5-12 4-13 1-1h5l-1 10-6 16-7 13-9 11-11 11-13 9-11 6 2 6h2l5 9 13 18 9 12 5 5 4 5 9-1v-2l6-3 11-9 8-8 7-10 8-15 11-32 6 1-1 9h-2l-1 7-6 17-8 16-10 14-9 9-11 8-11 7 4 6 13 16 1 3h2v2l2 1h-3l1 4-2 1v-2h-3l4 6v2l-4-1-7-8v-2l-5-2-4-2 5 6v3l-5 5-3-1-7-19-10-20-3-4 6 19 3 16 1 14h-4l-7-6 6 7 5 7-6 11-3 4h-2l-4-16-6-16v-5l4-1v-2l-7 2-11-18-9-12-2-1 9 19 5 15v6l-5 5-4 2-10-17-13-18-9-10-5-8-2-2 21-1 19-4 13-5 10-3-1-4-3-1-5-9-8-11-11-17-14-22-12-20-15-1-17-5-7-4v-2h-3v-2l-5-2-12-11-1-4 2-3 4 1 7 7 13 9 12 5 16 3-5-10-9-16-3-7-15-30-2-5v-5z" fill="#72A1DD"/>
<path transform="translate(1023,1117)" d="m0 0 3 1 5 12 15 33 8 18 18 40 4 10 4 7v3h-112l1-5 7-15 3-7 4-9 9-20 13-28 6-15 10-20z" fill="#FBFDFD"/>
<path transform="translate(1498,329)" d="m0 0 5 1 8 5 7 7 6 10 5 16 2 23v21l-2 21-7 21-6 8-5 5-5 4-4 2-6-1-5-3v-2l-4-2-1-3h-2l-4-7-5-10-4-19-1-10v-31l3-21 4-12 5-9 8-9z" fill="#FBFCFC"/>
<path transform="translate(1869,1732)" d="m0 0h8l6 4 3 3v5l-15 6-19 9-18 10-22 14-12 8-16 12h-2v2l-9 7-17 16-8 7-21 21-7 8-8 11-1 2-5-2-7-2h-13l2-5 8-8 11-9 6-5 8-10 4-9 3-8-1-14-1-7v-9l6-5 4-7 2-6 7 1 6 9 5 8 5 2 3-6 5-26 4-11 5-8 8-5 3-1h11l10 5 2 3v8l-10 19v7l8-3 16-12 13-11 17-12 10-5z" fill="#72B552"/>
<path transform="translate(1388,974)" d="m0 0h79v80l-1 1h-78z" fill="#163663"/>
<path transform="translate(576,974)" d="m0 0h79l1 80-31 1h-25l-24-1z" fill="#153562"/>
<path transform="translate(440,1645)" d="m0 0h1l1 37 1 7 7 1 49 1v1l-14 1-2 1-2-1-6 18-1 2h-4l-6-8-4-5-2-2v-4 3l-1 2h-2l5 9 9 11 2 2v10l-4 26-1 1v10l-2 4 2 1h-3l-1 9-7-5-8-1-9 3-8-4-3-1 1-4 8-13-1-7-7-8-11-10-13-8-11-4h-13l-1-1v-10l4-13 6-12 7-9 8-7 9-4 5 1 6 10 12 27 5 10 4 5 6 1v-8l-9-16-2-2-1-4-4-4-7-12-1-8 3-8 7-8h2z" fill="#10B8A3"/>
<path transform="translate(1507,283)" d="m0 0h18l12 3 15 6 11 8 5 5 6 5 2 5h2v3h2v3h2l1 5h2l5 10 5 15 5 21 1 7v38l-3 21-4 15-4 13-9 16-11 14-12 10-15 8-14 4-13 2h-12l4-2 16-6 13-7 11-9 11-14 9-17 6-17 2-8 3-21 1-22-2-19-3-22-7-19-8-15-8-11-8-8-10-7-15-8-12-4z" fill="#0F4599"/>
<path transform="translate(901,1266)" d="m0 0h3l4 5v2l4 2 5 3 9 1 13-3h6l4 8 5 9 8 8 14 9 21 11 7 6 1 2v7l-6 8-6 5-5-1-16-5-16-6-7-2-24-8-4-4v-3h-2l-3-5v-2l-9 9-9-1-18-6v-8l3-12 6-11 5-8h2v-3l-2-1h5z" fill="#061D42"/>
<path transform="translate(1094,1048)" d="m0 0 6 6h64l14 1-1 5-1 2h-2l-1 6-6 10-23 46-10 19-6 11-2-3-20-62-10-32-2-4z" fill="#FCFDFD"/>
<path transform="translate(773,1348)" d="m0 0h17l4 10 10 32 1 2 5-15 3-8 4-13 3-8h15l4 10 8 25 3 9 11-31 4-13h15l-1 8-3 9-12 35-3 9-3 7h-15l-2-1-11-33-2-10h-2l-2 10-6 19-3 9-3 6h-16l-4-9-5-15-5-17z" fill="#D7405C"/>
<path transform="translate(574,1849)" d="m0 0h2l1 31-7 8-7 10-6 11-3 4-8-4 5 5 1 4-6 15-5 18-3-1-8-14 1-17 4-20 5-15 2-7-8 11-3 3h-2v2l-9 7-12 13-7-5 3 5 1 4-9 13-2 4-4-2-9-7 1-6 11-23 8-12 2-2 18-3 16-5 15-8 10-7 11-9z" fill="#FAFCFD"/>
<path transform="translate(987,1347)" d="m0 0 6 1 12 3 2 1v2l4 1 5 7 2 7v9l-6 11-2 2h-3v2h-2l4 7 9 13v3h-16l-1-3h-2v-3h-2l-8-12-1-1-13-1v20h-15l-1-1v-67z" fill="#D8425E"/>
<path transform="translate(1485,327)" d="m0 0h10l3 3-10 7-7 9-5 11-4 18-1 10v31l3 21 3 11 6 11 1 3h2l5 5v2l4 1 3 2-1 3-2 1-10-1-10-3-9-6-7-9-6-16-4-21v-33l2-15 4-16 8-15 9-8 10-5z" fill="#0E4399"/>
<path transform="translate(684,1293)" d="m0 0h1v129h-29l-1-1v-98l22-1 3 1 3 4z" fill="#DBEFFA"/>
<path transform="translate(363,1866)" d="m0 0 4 2 8 11 10 12 4 7 10 11 2 5-6-2-5-3 5 6v3l-5 5-3-1-7-19-10-20-3-4 6 19 3 16 1 14h-4l-7-6 6 7 5 7-6 11-3 4h-2l-4-16-6-16v-5l4-1v-2l-7 2-11-18-9-12-2-1 9 19 5 15v6l-5 5-4 2-10-17-13-18-9-10v-1l27-3 20-8z" fill="#62C9ED"/>
<path transform="translate(1359,1323)" d="m0 0h29v99l-7 2h-16l-1-3-3-1-1 2h-1z" fill="#E1F2FA"/>
<path transform="translate(1338,287)" d="m0 0h23l-4 7-46 69-13 19-20 30-9 13h-18l-1-3 28-42 11-17 20-30 9-14 13-19 6-10z" fill="#0E4399"/>
<path transform="translate(1750,287)" d="m0 0h22l-6 11-8 11-9 14-46 69-19 28-3 5h-21l3-5 10-15 11-17 15-23 8-12 11-16 20-30 11-17z" fill="#0E4498"/>
<path transform="translate(1029,1348)" d="m0 0h14l4 6 4 3 1 3 5 5 4 6 5 5 7 10 2 1v-38l2-1h13v65l-2 3-11-1-6-7v-2l-3-1-6-8-4-5v-2l-4-2-5-7v-2h-2l-1-2-1 8v30h-15l-1-4z" fill="#D63F5A"/>
<path transform="translate(1144,1348)" d="m0 0h7l4 6 5 5 10 12 11 14 2 2v-38l2-1h13v67h-12l-5-4-2-4-4-4v-2l-3-1-6-8v-2l-4-2-5-7v-2h-2l-1-2-1 8-1 30h-14v-66z" fill="#D63E59"/>
<path transform="translate(1118,576)" d="m0 0h3l-1 7-9 10-11 8-12 6-19 7-8 2-20 1-8 7-6 6-2 4-8-21-2-6-2-1 8-7 11-11 12-7 15-4h9l9 3 5 3v3l-2 1-12 1v2h10l9-5 5 1-1 6 12-6z" fill="#FAD1BD"/>
<path transform="translate(907,1348)" d="m0 0h17l5 12 13 29 11 25v2h-17l-4-10-2-4-31-1-1 5-4 9-1 1h-15l1-6 12-26z" fill="#D7405C"/>
<path transform="translate(1239,1347)" d="m0 0h10l13 2 8 4v2l4 1-1 5h-2l-2 4-3 2h-4l-1-2-6-3-11-1-10 3v2l-3 3h-2l-1 4-1 1v14l6 10 3 2 6 1h13l3-1 1-20h15v24l-2 6-8 4-7 2-15 1-14-4-8-6-2-4-3-1-4-8-1-16 3-13 7-9 9-6z" fill="#D7415D"/>
<path transform="translate(703,466)" d="m0 0 13 1 10 3 10 6 7 7 5 9 2 8 26 1 11-3h20l14 5 4 3 5 1v1h-5l-2 5-9-2-12-2-16-1-13 5-10 7-6 8-5 11-3 14-2 2h-5l-2-2v-7l4-14-3 5h-7l-2-1 3-9 4-17 2-6-2-9-6-9-8-6-13-4h-19l-1-1 1-7z" fill="#F4719B"/>
<path transform="translate(1383,424)" d="m0 0h18l2 5 3 18v21l-33 2-1 47-22-1v-45l2-3 9-1h22z" fill="#0D4399"/>
<path transform="translate(911,772)" d="m0 0h6l-5 5-6 28-6 25-10 40-2 7-1 10-1 1-65 1h-19l-19-1v-7l1-4 95-1 6-20 18-69 4-11z" fill="#22467F"/>
<path transform="translate(1145,1233)" d="m0 0h3l3 11 5 11-2 4-7 9h-2l-2 4-6 5-3 1h-11l-6-2-2 2-3-9-5-10 1-5 10-3 10-5 4-1v-2l6-3 5-5z" fill="#FA79A6"/>
<path transform="translate(887,888)" d="m0 0h116v1h-73l-2 4-14 7-15 3-26 2v-2h-8l-13-3-9-4h-16l-2-3v-3l-3-1z" fill="#F2CFC0"/>
<path transform="translate(438,1871)" d="m0 0 6 2 10 4v14l1 3-7 11-5 8-5-3-2-1 5 6-1 6-6 15-7-6-1-3 4-5-4 4-5-2-1-5 5-23 6-17z" fill="#FAFDFD"/>
<path transform="translate(444,1797)" d="m0 0 6 1-1 9h-2l-1 7-6 17-8 16-10 14-9 9-11 8-11 7 4 6 13 16 1 3h2v2l2 1h-3l1 4-2 1v-2h-3l4 6v2l-4-1-7-8 2-1-6-8-10-12v-7l-4-2-8-10-5-7 1-2 4 4h2l2-2 7 9 9-1v-2l6-3 11-9 8-8 7-10 8-15z" fill="#7AAAE4"/>
<path transform="translate(1389,974)" d="m0 0h78v80h-6l-1-2h2l1-6h1v-31l-2 3-1-15v-15l-1-5-3-2-34-1h-22l-6 2-1 13v44l-2 8v7h-3z" fill="#0F2C5B"/>
<path transform="translate(1106,1348)" d="m0 0h16v68h-16z" fill="#D94360"/>
<path transform="translate(907,1246)" d="m0 0h4v2l9 3 17 4 14 1-2 9-4 11-19 4-9-1-9-6-5-7-1-4 4-11z" fill="#F879A6"/>
<path transform="translate(1766,467)" d="m0 0h17l1 2-1 47h-22l1-4v-23l1-20z" fill="#0D4399"/>
<path transform="translate(818,1490)" d="m0 0h217l2 2-6 2-5 1h-172l-25-1-5-1-3-1-2 2z" fill="#0E2A59"/>
<path transform="translate(1795,424)" d="m0 0h23v44l-7 1-16-1z" fill="#14489C"/>
<path transform="translate(692,196)" d="m0 0h18v1l-33 5-21 6-20 8-23 12-14 9-6 4-6-12 1-4 28-13 21-7 22-5 22-3z" fill="#82AFE6"/>
<path transform="translate(1350,381)" d="m0 0h22v44h-21l-1-1z" fill="#11469A"/>
<path transform="translate(1080,1490)" d="m0 0h205l-3 2-12 2-22 1h-138l-6-1-1 3h-16l-4-2z" fill="#0E2B5A"/>
<path transform="translate(703,466)" d="m0 0 13 1 10 3 10 6 7 7 5 9 2 8 17 1v1h-17v12l-2 8h-2l-1 6-4 9h-7l-2-1 3-9 4-17 2-6-2-9-6-9-8-6-13-4h-19l-1-1 1-7z" fill="#F778A5"/>
<path transform="translate(992,1888)" d="m0 0h5l5 5-1 4-4 2-8 2-6 4-1 6 7 5-6 16-5 18-3 1-6-11-2-3 1-20 4-20 3-8 11 1z" fill="#F9FCFD"/>
<path transform="translate(761,406)" d="m0 0 5 1v10l-4 13-7 11-7 8-9 6-10 5-7 2h-22l-12-4-7-4 1-6 4-1 15 5 7 1h9l12-3 10-6 7-6 6-10 4-10 3-11z" fill="#FB7AA8"/>
<path transform="translate(576,974)" d="m0 0h79v7l-3 1 1 5v9h-2l1 5-1 3-1-2-1-19-1-3h-32l-25-1-7 1-2 3v29l1 11v29l1 2h-8z" fill="#112F60"/>
<path transform="translate(1762,381)" d="m0 0h22v44h-20l-2-1z" fill="#0D4399"/>
<path transform="translate(779,414)" d="m0 0 5 1 1 5-10 14-5 12v15l5 10 9 8 10 4 14 3v6l-1 1h-13l-11-4-11-7-7-9-4-10-1-4v-10l4-14 6-11 7-9z" fill="#FC7BA9"/>
<path transform="translate(1080,1892)" d="m0 0 5 2 7 4 9 1 7-2 2 2 3 14 2 18v6l-7 10-2 4h-2l-9-31-1-6 4-5-3 1-3 3-6-8-6-10z" fill="#F9FCFD"/>
<path transform="translate(1388,1692)" d="m0 0h78v8l-2-4-6-2h-53l-15-1 2 9 2 13v138l-1 22-3 1-1-2z" fill="#0E2A59"/>
<path transform="translate(331,1880)" d="m0 0m-8 1h8l10 23 4 12v6l-5 5-4 2-10-17-13-18-9-10v-1z" fill="#62CAEE"/>
<path transform="translate(1398,424)" d="m0 0h3l2 5 3 18v20h-20l-1-11v-31z" fill="#0D4398"/>
<path transform="translate(440,1645)" d="m0 0h1l1 37 1 7 7 1 49 1v1l-14 1-2 1-2-1-6 18-1 2h-4l-6-8-4-5-2-2v-4 3l-3 3-4-5-1-2h-9l-2-5-4-4-7-12-1-8 3-8 7-8h2z" fill="#1BB3A4"/>
<path transform="translate(1587,1881)" d="m0 0 13 1 9 1 6 7 4 2 4 6 6 18v5l-4 2-1 5h-4l-4-8v-2h-2l-6-12-13-15-8-9z" fill="#9BC974"/>
<path transform="translate(457,1692)" d="m0 0 2 1 2 7 9 11v2h4l2-10 5-10 3 1-2 13-5 24-6 36v7l3 2 1 6-6 2-2 2-1-2h-2l-1 2-1-2v-7l3-9v-10l2-6 3-21v-10l-7-8-6-8-2-3 1-5z" fill="#7DACE7"/>
<path transform="translate(505,1799)" d="m0 0h70l1 1-1 13-16-2-31-1-16-2-8-4-1-4z" fill="#F8FCFD"/>
<path transform="translate(420,622)" d="m0 0 4 1 12 9 19 10 21 7 17 3v2h-15l-16-2-19-4-21-8-14-7 1-3z" fill="#8CB0D9"/>
<path transform="translate(1501,1879)" d="m0 0 4 5 8 16 6 15v7l-5 5-4 2-10-17-10-14 1-5 7-8v-3l3-1z" fill="#F9FCFD"/>
<path transform="translate(468,1881)" d="m0 0 24 1-1 4-7 7-13 19-8 13-3 3v-34l7-12z" fill="#F9FCFD"/>
<path transform="translate(1044,1844)" d="m0 0 16 2 3 6 7 6 4 1 13 1-3 10-5 13h-3l-5-7 1-5 1-4-7-4h-8l-8 4-6 4-1-8v-18z" fill="#F8FCFD"/>
<path transform="translate(697,516)" d="m0 0h5l-2 5-6 11v12l3 5 6 4 12 4-2 7 6 2 3 2v4l-10-1v6h-1v-8l-15 2-8 5-6 7-3 9-3 5-3-2 2-10 4-8 7-8 11-5 14-1-1-2-9-2-6-4-6-7-2-7 1-11 6-11z" fill="#F578A2"/>
<path transform="translate(1007,1844)" d="m0 0 5 2 7 4h7l10-4h3l1 2v24l-5-2-5-3 1-8-3-2h-8l-8 4-6 10-3-1-5-13-3-7v-3z" fill="#F8FCFD"/>
<path transform="translate(598,1907)" d="m0 0h2l9 13 1 6-7 11-10 19-2 4h-2l-4-8v-7l6-21z" fill="#173866"/>
<path transform="translate(397,1746)" d="m0 0h5l-1 10-6 16-7 13-9 11-11 11-13 9-6 2-4 2h-4l-3-4 1-2 6-1 11-7 13-10 9-10 9-14 5-12 4-13z" fill="#7CABE6"/>
<path transform="translate(1446,1907)" d="m0 0 3 1 7 11 2 3-1 5-8 13-1 3-4-1 1 6-6 13-3-4-3-5 1-11 9-27z" fill="#173765"/>
<path transform="translate(634,1907)" d="m0 0 3 3 8 22 4 16-2 6-3 6h-2l-6-13v-2l3-3h-3l-1 2-5-8-6-10 1-6 6-10z" fill="#163765"/>
<path transform="translate(1481,1907)" d="m0 0h2l6 13 6 20 2 10-5 11-3-1-5-13 1-3 3-3-3 2h-3l-8-14-3-4 2-5z" fill="#F8FCFD"/>
<path transform="translate(559,1831)" d="m0 0h3l2 4-10 7-24 13-16 5-18 3h-11l-3-2h-8l-9-2-3-3-1-4 11 1 12 2 18 1 2 2-1 2 2-1 1-2 3 1v-3l2-1h6l1-3 15-5 10-5 9-1v-2h3v-2h2l-1-3z" fill="#3966AD"/>
<path transform="translate(1706,1799)" d="m0 0h6l4 6 2 8v8l-8 2-7 1h-11l-1-1v-11l1-7z" fill="#72B551"/>
<path transform="translate(975,1361)" d="m0 0h18l6 4v2h2v10l-4 5-3 2h-19z" fill="#FCF7F6"/>
<path transform="translate(615,1879)" d="m0 0 4 1 12 19-6 7-7 8h-3l-7-8-5-6 2-6z" fill="#163664"/>
<path transform="translate(352,1863)" d="m0 0h10l2 3-5 3-15 7-13 5-19 2h-8l-3-3-2-4-2-2 21-1 19-4 13-5z" fill="#79A8E3"/>
<path transform="translate(370,1910)" d="m0 0 5 1 2 12v5h-4l-7-6 6 7 5 7-6 11-3 4h-2l-4-16-6-16v-5l8-3z" fill="#F9FCFD"/>
<path transform="translate(852,865)" d="m0 0h20l7 3 2 3-1 5-1 1h-51l-2-2 6-4z" fill="#F8CDBD"/>
<path transform="translate(1040,990)" d="m0 0 4 1 4 3-2 7h-2l-1 3-4 4h-2l4 5-7 9-6 5-5-1v-2l-4-2-2-4h-2l1-5 6-4-2 5 3 1 6-4 1-4h-5l3-5 7-7h2l2-4z" fill="#21447C"/>
<path transform="translate(1602,1065)" d="m0 0h1v159h2l-1 100h-135v-1l134-1-1-20z" fill="#FBB0C2"/>
<path transform="translate(594,1693)" d="m0 0 3 1v3l3 1 3 5 4 1v-3l-1-7 3-1 3 1 3 3v3l-5 2-2 5-12 11-5 5-4-2-3-2v-2h-2v-4h-3v-6l6-4 3 5 4 2v2l2-1-2-6h-2l-3-6h2z" fill="#20437B"/>
<path transform="translate(975,816)" d="m0 0 4 2 4 8-1 9-4 6-4 3h-8l-6-4-3-6-1-6h9l6-4z" fill="#FCFDFD"/>
<path transform="translate(1389,1324)" d="m0 0h55v1l-53 1v9l2 9 1 20v39l-1 4-2 14 2 1h-4z" fill="#0E2A59"/>
<path transform="translate(934,1052)" d="m0 0m-9 1h9l2 2-9 3-56 13-15 4h-8l4-3h2l1-3 11-2 12-4 2-1 12-2 13-3 9-3h10z" fill="#0F2B5A"/>
<path transform="translate(901,1240)" d="m0 0h4l2 4 2 2h-2l-1 8-4 9-1-4-1-2-2-1v-7l-4-2-9-2h-3-7l-1-1h-17l-5 1h-38l-3-1-4 2-4-1-12-2v-1l95-1z" fill="#102E5E"/>
<path transform="translate(1132,1173)" d="m0 0 2 2 14 42 1 4v7l-7 9-3 1-1 3-3 2h-3v2l-10 5-6 2v-2l6-5 3-2h3v-2l4-2 1-2h2v-3l6-5h2v-11l-4-11-4-13-2-8-2-10z" fill="#0E2A59"/>
<path transform="translate(656,1884)" d="m0 0 3 3 8 17 4 12v5l-7 8h-2l-6-10z" fill="#FAFCFD"/>
<path transform="translate(316,1840)" d="m0 0h7l7 3 2 3-1 4-8 4-11 2h-9l-6-3 2-4 6-5z" fill="#F8FCFD"/>
<path transform="translate(1047,1766)" d="m0 0h8l7 3-1 7-5 5-5 3h-11l-5-1-1 4-2-10 3-1 7-8z" fill="#64C9EA"/>
<path transform="translate(297,1907)" d="m0 0 8 1 5 2 5 10 1 5-8 6-3 3h-2l-9-14-3-5 5-5z" fill="#F9FCFD"/>
<path transform="translate(1018,1804)" d="m0 0 9 1 8 4 1-3v6l1 5-1-2-11 6h-12l-7-5v-5l6-5z" fill="#1DBAAB"/>
<path transform="translate(1008,1774)" d="m0 0h11l10 5 1 5-11 6-9 1-8-3-3-3 1-6z" fill="#5EC6E5"/>
<path transform="translate(397,1920)" d="m0 0 3 1 6 9v9l-2 9-4 7-4-1-4-8-2-9v-6z" fill="#F9FCFD"/>
<path transform="translate(834,1920)" d="m0 0 6 5 3 5v8l-2 9-4 6-3 2-5-8-2-8v-8z" fill="#F8FCFD"/>
<path transform="translate(1297,198)" d="m0 0h2v2l-24 10-25 12-7 4h-3v2l-15 9-19 13-14 11h-3l12-11 16-12 15-10 15-9 16-9 12-6 9-3 10-2z" fill="#7CAEE7"/>
<path transform="translate(1246,1920)" d="m0 0 5 5 3 5v10l-3 10-3 5-4-2-4-7-2-11 1-6z" fill="#F9FCFD"/>
<path transform="translate(1724,1790)" d="m0 0 2 1 3 21v7l-3 7-5-2-2-2-4-17-4-6v-2z" fill="#FCFDFD"/>
<path transform="translate(201,642)" d="m0 0 5 1 18 8 21 7 18 4 14 2v1h-21l-24-3-24-6-1-2h4l1-2v2h3l1-4-5-1v-2l-5-1-5-3z" fill="#83AFE3"/>
<path transform="translate(1388,1324)" d="m0 0h1v98l2-1v-7l3-6 5-2-2 4 7 1 4 6 1 4 45 1v1h-66z" fill="#1F4278"/>
<path transform="translate(1683,1920)" d="m0 0 3 4 5 7v7l-3 10-4 8-4-4-4-11-1-8 4-8z" fill="#9CC976"/>
<path transform="translate(574,1888)" d="m0 0 2 1v31l-4 9-4-1-6-7 1-7 7-19z" fill="#F7FCFD"/>
<path transform="translate(1464,1878)" d="m0 0 3 3v32l-1 2-3-1-7-8-5-6 2-6 8-11z" fill="#183968"/>
<path transform="translate(1386,1890)" d="m0 0 2 2-1 57-4-4-4-7v-16l3-19 3-11z" fill="#F9FCFD"/>
<path transform="translate(1383,424)" d="m0 0h15v1h-13l1 42h20v1l-33 2-1 47-22-1v-45l2-3 9-1h22zm-25 46-5 3-1 1v37l2 4h17v-45z" fill="#2E5694"/>
<path transform="translate(970,1242)" d="m0 0h110v1l-21 2-14 1h-56l-9-2-10-1z" fill="#0E2A59"/>
<path transform="translate(1570,337)" d="m0 0 2 1 5 16 3 13 3 21v26l-1 13-2 5v10l-3 9-3 5-5 13-1-4 6-17 2-8 3-21 1-22-2-19-3-22-5-14z" fill="#264B86"/>
<path transform="translate(697,516)" d="m0 0h5l-2 5-6 11v12l3 5 6 4 12 4-1 3h-2l-1 2-7-2-8-4-7-8-2-7 1-11 6-11z" fill="#FB7AA7"/>
<path transform="translate(807,621)" d="m0 0h8l10 5 2 4-1 1h-9l-12 3-13 6 1-6 6-9z" fill="#FDFEFE"/>
<path transform="translate(624,209)" d="m0 0 3 1-3 3-14 7-5 2-5 4 1 3h4l4-1-2 4-11 7-3 2-6-12 1-4 28-13z" fill="#81AEE6"/>
<path transform="translate(244,1718)" d="m0 0 10 3 16 7 4 3v6l-4 4-5-1-13-10-7-8z" fill="#F8FCFD"/>
<path transform="translate(647,548)" d="m0 0h10l10 4 5 4 4 8v13l-4 10-4 2-1-4 4-12-1-9-3-4v-2l-5-2-6-2-13-1 1-4z" fill="#FA79A6"/>
<path transform="translate(685,513)" d="m0 0h4l-1 10-5 10-5 5-5 4-6 2h-17l-9-3-1-4h6l10 3 8-1 14-7 2-5 3-7z" fill="#FB7AA7"/>
<path transform="translate(459,1692)" d="m0 0h20l-1 10-3 9-1 2h-4l-6-8-4-5-2-2v-4z" fill="#0FB5A2"/>
<path transform="translate(255,1860)" d="m0 0 5 1 17 6 8 3-2 1 1 3 6 2 2 5-7-1-11-4-16-7-4-3v-5z" fill="#79A8E3"/>
<path transform="translate(1724,1916)" d="m0 0h2l-1 5-6 15-4 15-3-1-7-12 1-4 9-10z" fill="#F8FCFD"/>
<path transform="translate(916,1928)" d="m0 0 4 2 6 8-1 6-5 11-3 6-3-3-3-6 1-10z" fill="#F8FCFD"/>
<path transform="translate(552,1764)" d="m0 0 5 4-10 6-9 4-13 4-16 3h-19l4-2h16l2-4 16-4 16-6z" fill="#7FAEE8"/>
<path transform="translate(1764,1928)" d="m0 0 4 2 6 8-1 6-7 16-3 1-4-9 1-9z" fill="#F8FCFD"/>
<path transform="translate(480,1928)" d="m0 0 5 4 5 6-2 6-7 17-3-1-4-9 2-12 3-10z" fill="#F8FCFD"/>
<path transform="translate(752,1928)" d="m0 0h2l5 18-1 7-3 8-3-1-4-10-4-8 1-5z" fill="#F7FCFD"/>
<path transform="translate(1600,1928)" d="m0 0h2l4 13 1 11-4 8-3-1-6-13-2-4 1-5z" fill="#F7FCFD"/>
<path transform="translate(315,1928)" d="m0 0 3 1 4 16v8l-4 8-3-3-8-17 1-4z" fill="#F8FCFD"/>
<path transform="translate(1327,1928)" d="m0 0 4 2 6 7-1 7-7 16h-3l-4-9 3-15z" fill="#F8FCFD"/>
<path transform="translate(1163,1929)" d="m0 0 3 1 4 14v8l-4 8-3-1-5-12-3-6 2-5z" fill="#F8FCFD"/>
<path transform="translate(296,1804)" d="m0 0h11l11 4 3 2-2 4-4 2h-14l-10-5 1-5z" fill="#F7FCFD"/>
<path transform="translate(911,775)" d="m0 0 1 2-6 28-12 50-3-1 1-10 2-13 3-9 3-10 2-12 2-3 2-10 3-9z" fill="#0D4399"/>
<path transform="translate(1132,1925)" d="m0 0 3 3 6 17-1 5-5 7-4-2-2-9-2-11 1-6z" fill="#F7FCFD"/>
<path transform="translate(914,1365)" d="m0 0h2l9 21v3h-20l1-5 3-5 3-7z" fill="#FCEEEF"/>
<path transform="translate(948,1926)" d="m0 0 4 1 2 3-1 11-2 12-2 4-4-1-5-8 3-10z" fill="#F8FCFD"/>
<path transform="translate(1359,1926)" d="m0 0 4 1 2 3-1 17-3 9h-4l-5-7 1-7z" fill="#F7FCFD"/>
<path transform="translate(1426,1378)" d="m0 0 6 1 2 1v5l-3 5-5 4-2 5h4l-1 4-4 2-1-4-7-6-2-5h2v-2l7-5z" fill="#21447C"/>
<path transform="translate(1568,1925)" d="m0 0 4 4 5 14v7l-5 7-4-2-2-9-2-10 1-7z" fill="#F9FCFD"/>
<path transform="translate(640,207)" d="m0 0h6l-2 2-10 4-7 5-12 6-7 5h-3l-1 2-4-2-1-4 7-5 10-4 10-5 7-3z" fill="#8DB0D9"/>
<path transform="translate(720,1925)" d="m0 0h2l7 19v6l-5 7-4-2-2-7-2-12 1-7z" fill="#E3F5FC"/>
<path transform="translate(511,1926)" d="m0 0 4 1 2 3v8l-3 16-2 3h-3l-5-8 1-7z" fill="#F7FCFD"/>
<path transform="translate(1796,1926)" d="m0 0 4 2 2 3-1 11-2 11-2 4-4-1-5-10z" fill="#F7FCFD"/>
<path transform="translate(1587,1881)" d="m0 0 13 1 9 1 3 5 1 5-5 3h-2l-1 5-5-4-9-11z" fill="#FBFDFD"/>
<path transform="translate(1007,1877)" d="m0 0h8v2l7 1 9 2 2 2v3l-10 4-11 2-2-4 1-4-3-1z" fill="#F6FBFD"/>
<path transform="translate(440,1736)" d="m0 0 6 1 8 7 6 10-1 5-6-1-9-7-4-6z" fill="#F8FCFD"/>
<path transform="translate(283,1926)" d="m0 0 3 1 7 18-1 5-5 7-3-1-2-4-2-13v-9z" fill="#F8FCFD"/>
<path transform="translate(397,1798)" d="m0 0 5 1 5 2-1 4-9 7-10 4h-6l1-6 10-9z" fill="#0FB5A2"/>
<path transform="translate(980,1044)" d="m0 0h13l-1 6 5 8-5-2-4-1-2 5 2 5-1 4-4-1-9-9-1-3 5-6h3l1 3 4 1-2-6-7-2z" fill="#0E2A59"/>
<path transform="translate(982,623)" d="m0 0 6 1-5 5-5 2-1 3-17 12-16 12-11 7-2-1 9-8h2l2-4 8-6 4-2 4-4 7-6 4 1-1-3 5-2v-2z" fill="#FCF7F5"/>
<path transform="translate(1451,375)" d="m0 0h1v9l-1 11v13l3 20 4 18 5 12 11 11 12 4v1l-9-1-10-6-6-7-5-10-4-12-3-18v-33l1-10z" fill="#264B86"/>
<path transform="translate(441,636)" d="m0 0 6 2 11 5 18 6 17 3v2h-15l-16-2-11-2v-2l-3-1 1-4-8-5z" fill="#84AFE2"/>
<path transform="translate(1226,1241)" d="m0 0 66 1v1l-46 1-3-1-1 2-17-1-13 1h-19l-22-1-7 1-1-3z" fill="#0C2754"/>
<path transform="translate(453,1851)" d="m0 0 2 3 1 12-2 11-6-1-8-4-1-3 9-10z" fill="#11B6A4"/>
<path transform="translate(921,667)" d="m0 0h8l-5 5-16 11-12-2-26-6v-1l14-1 11 2-1 4 10-2v2h3l3-6 10-5z" fill="#FDFEFE"/>
<path transform="translate(418,1781)" d="m0 0 7 4v4l-10 9-6 3-3-2-3-6 11-10z" fill="#0FB7A3"/>
<path transform="translate(1762,381)" d="m0 0h22l-1 3-16-1-1 5v32l6 2h8l3-1 1 4h-20l-2-1z" fill="#294F8C"/>
<path transform="translate(1337,1256)" d="m0 0 4 2 7 7 6 10 4 11v29l-2 2-1-16-1-7-4-16-4-8-4-5v-2h-2l-4-4z" fill="#112F5C"/>
<path transform="translate(750,502)" d="m0 0h20l-1 3-11 8-8 10-3 5-1-2 3-12z" fill="#060351"/>
<path transform="translate(422,1886)" d="m0 0 2 1-8 17-3 8h-2v-2h-2l-7-9v-2l8-4z" fill="#F7FCFD"/>
<path transform="translate(1050,1882)" d="m0 0 4 1 5 4 11 2 3 4-2 4-19-2-5-5 1-6z" fill="#F6FBFD"/>
<path transform="translate(576,1709)" d="m0 0h1v17l5 1v-2h4l-2 4-2 2h-4l-1 147h-1l-1-64z" fill="#234780"/>
<path transform="translate(791,1242)" d="m0 0h92l-2 3h-6l-1-1h-17l-5 1h-38l-3-1-4 2-4-1-12-2z" fill="#0E2A59"/>
<path transform="translate(589,632)" d="m0 0 6 1 19 7 6 2v1h-15l-16-2-9-2 3-3z" fill="#8CB0D8"/>
<path transform="translate(777,1510)" d="m0 0 2 1v3h6l1 5h3v2l21 1v1h-64v-1l25-1v-2h4l-1-6z" fill="#466C83"/>
<path transform="translate(1052,1797)" d="m0 0h13l4 4-1 5-7 6-5 1-2-4v-3l-1-5-4-1z" fill="#17B9A5"/>
<path transform="translate(685,1421)" d="m0 0h3l1 3v30l-1 3 1 4v20l-2 1-2-6-1-54z" fill="#0F2D5B"/>
<path transform="translate(399,137)" d="m0 0h18v1l-27 5-18 6-8 4h-4l2-4 13-5 1-3 6-2z" fill="#82AFE6"/>
<path transform="translate(1467,1882)" d="m0 0 5 5 7 11-1 4-8 7-3 1z" fill="#F0F8FB"/>
<path transform="translate(577,1366)" d="m0 0h2l1 8 1 16 1 9 1 3-3 15h-2v3h2v2h-3z" fill="#0E2A59"/>
<path transform="translate(370,1910)" d="m0 0 5 1 2 12v5h-4l-7-6h-3l-1-3 1-3-3-4z" fill="#F8FCFD"/>
<path transform="translate(1009,1908)" d="m0 0h3l2 5-1 7-5 9-4-2-5-6 1-6z" fill="#F8FCFD"/>
<path transform="translate(461,1840)" d="m0 0h1v16l2 1-3 1-2 19-4-1-1-3 1-12-1-12 3-8 3 2z" fill="#7CACE6"/>
<path transform="translate(930,936)" d="m0 0h9l-2 1 1 4-18 4-18 2 2-3 3-1-3-2 8-2z" fill="#112E5D"/>
<path transform="translate(1048,1799)" d="m0 0 5 2 1 5 2 1-1 3 2 2 3 1-5 2-11-1-3-1v5h-1l-1-12h3z" fill="#5EC8E3"/>
<path transform="translate(327,1912)" d="m0 0 16 1 2 3v6l-5 5-4 2-9-16z" fill="#E3F5FC"/>
<path transform="translate(447,1804)" d="m0 0 1 3-5 16-9 21-9 13-9 10-12 10-5 3-2-1 11-9 8-7h2l2-4 8-11 8-15 8-21z" fill="#3966AD"/>
<path transform="translate(747,1025)" d="m0 0h3l1 6 11 3 1 2-12 2 1 8-4-1-3-3-4-1v-3h-2v-5l3-1 3 3 1-1z" fill="#21447C"/>
<path transform="translate(1008,1774)" d="m0 0h11v2l4 1-1 3h-4l-1 2-1-2h-7l-1 4 3 1-2 4-7-1-3-3 1-6z" fill="#20BAAE"/>
<path transform="translate(474,1776)" d="m0 0 17 2h23l-4 5-18 1-4 1v-2l-13-1z" fill="#3966AD"/>
<path transform="translate(1766,467)" d="m0 0h17v3h-15l-2 4v41l-5 1 1-4v-23l1-20z" fill="#244881"/>
<path transform="translate(661,641)" d="m0 0h6l16 4 12 2-2 1v2l-15-1-27-4-4-2z" fill="#8BAFD9"/>
<path transform="translate(1245,222)" d="m0 0 4 1-6 3h-3v2l-15 9-19 13-14 11h-3l12-11 16-12 15-10 9-5z" fill="#7EACE5"/>
<path transform="translate(1336,293)" d="m0 0h2l-2 5-9 12-9 14-7 10-7 11-11 17-6 9-3 2 2-5 10-16 8-11 14-22 13-19z" fill="#254984"/>
<path transform="translate(1041,1908)" d="m0 0 5 2 5 6-2 6-8 11-2-1 1-14z" fill="#F5FBFD"/>
<path transform="translate(652,1040)" d="m0 0 1 4 2-4 1 14h-41l4-2 13-2h15l1-2h2l1-7z" fill="#0E2A59"/>
<path transform="translate(401,1747)" d="m0 0h1l-1 9-6 16-7 13-9 11-11 11-13 9-2-1 18-14 7-7 11-16 7-17z" fill="#3966AD"/>
<path transform="translate(392,1903)" d="m0 0 7 6 2 5-6-2-5-3 5 6v3l-5 5-3-1-4-12v-2l8-3z" fill="#F7FCFD"/>
<path transform="translate(1450,1361)" d="m0 0 4 2 8 2-1 3-8 1-2 3 2 4-7-1-4-4-2-6 4-1 5-2z" fill="#21447C"/>
<path transform="translate(1e3 1031)" d="m0 0 5 2 2 4-1 5 6-1-1 4-4 2-12 1 3-6 3-2-1-4-5 2-1 3-4 1 2-4z" fill="#21447C"/>
<path transform="translate(1063,973)" d="m0 0 2 3 2 5-1 2-1 7-3 1-8-7-3-4 2-3 7-2z" fill="#21447C"/>
<path transform="translate(397,1746)" d="m0 0h3v2h-2l-3 11-5 13-6 10-9 12-11 10-9 6-3-1 17-13 9-10 9-14 5-12 4-13z" fill="#315EA5"/>
<path transform="translate(1739,1883)" d="m0 0h7l-2 5-6 8-11-6-2-1v-3l7-2z" fill="#F9FCFD"/>
<path transform="translate(962,1323)" d="m0 0h5l1 4 3 2 2 4 4 1-1 3-5 2h-3v-2h-5v-3l-4-2-1-3z" fill="#0E2A59"/>
<path transform="translate(307,1777)" d="m0 0 5 5 13 21 11 18 8 11 8 13-1 2-8-11-11-17-14-22-11-18z" fill="#3966AD"/>
<path transform="translate(1012,1806)" d="m0 0 2 1-3 1v2l3-1 3 2v2h2l3 5 5 1-2 2h-12l-7-5v-5z" fill="#63C9EC"/>
<path transform="translate(425,1773)" d="m0 0 10 3 3 3-10 8-4-2-4-3 1-5z" fill="#E6F6FC"/>
<path transform="translate(444,1798)" d="m0 0h2l-3 10-7 20-4 10-6 10-12 14-5 4-2-1 11-11 7-10 8-15 10-30z" fill="#3966AD"/>
<path transform="translate(671,1930)" d="m0 0h3l1 5 1 23-3-1-6-17 1-6z" fill="#E6F6FC"/>
<path transform="translate(441,1682)" d="m0 0h1l1 7 7 1 49 1v1l-14 1-2 1-2-1-2 7h-1l1-8h-22l1 5-3 3-4-5-1-2h-9l-3-7 3-1z" fill="#3D6AB0"/>
<path transform="translate(997,1929)" d="m0 0 5 5 1 6-7 18h-2v-10l2-18z" fill="#F9FCFD"/>
<path transform="translate(886,1929)" d="m0 0 5 5 1 7-7 17h-2l1-19 1-9z" fill="#F5FBFD"/>
<path transform="translate(346,1929)" d="m0 0h2l2 17v12l-3-3-6-15 1-5z" fill="#F6FBFD"/>
<path transform="translate(1520,1929)" d="m0 0 2 1 1 5 1 23h-2l-7-18 1-6z" fill="#F7FCFD"/>
<path transform="translate(559,1929)" d="m0 0 4 2 3 4-1 8-6 15-2 1 1-19z" fill="#F4FBFD"/>
<path transform="translate(1009,1020)" d="m0 0h2l1 5 4 3 1 5 3-3h3l-2 4-4 4-5-1-8-9 2-4z" fill="#21447C"/>
<path transform="translate(1193,1930)" d="m0 0 3 1 2 15v12l-3-3-6-14v-5z" fill="#E4F5FC"/>
<path transform="translate(1297,1929)" d="m0 0 3 1 3 5-1 9-5 14-2 1v-15z" fill="#FAFDFD"/>
<path transform="translate(1632,1803)" d="m0 0 4 2 5 5-3 12-4-2-6-6 3-10z" fill="#FCFDFD"/>
<path transform="translate(638,1392)" d="m0 0 5 2 3 1 5 10-1 3-4 1-7-6-4-5v-4z" fill="#21447C"/>
<path transform="translate(1845,1929)" d="m0 0 5 5 1 6-7 18h-2l1-22z" fill="#F5FBFD"/>
<path transform="translate(1631,1930)" d="m0 0 2 2 2 17v9l-3-1-6-16v-5z" fill="#F7FCFD"/>
<path transform="translate(1734,1929)" d="m0 0 5 5 1 6-6 17h-3l2-26z" fill="#F6FBFD"/>
<path transform="translate(235,1929)" d="m0 0h2l1 3 1 26-3-2-4-12-2-4 1-5z" fill="#F7FCFD"/>
<path transform="translate(1408,1930)" d="m0 0 4 2 3 5-1 5-7 16h-1v-20z" fill="#173867"/>
<path transform="translate(1452,1866)" d="m0 0 3 3 3 8-7 6-4-2-3-3 1-5 5-6z" fill="#21447C"/>
<path transform="translate(782,1930)" d="m0 0 3 1 1 5v22l-3-3-4-12-1-7z" fill="#F8FCFD"/>
<path transform="translate(1055,1937)" d="m0 0h2l3 11-1 5-4 7-3-1-2-9 4-12z" fill="#F5FBFD"/>
<path transform="translate(1083,1929)" d="m0 0 2 1 2 14v14l-3-3-6-16 2-5z" fill="#E3F5FC"/>
<path transform="translate(444,1797)" d="m0 0 6 1-1 9-2-1-6 17-6 14h-2l2-9 7-20 4-10z" fill="#80AFE9"/>
<path transform="translate(1056,1768)" d="m0 0h5l1 1-1 7-5 5-3 2-7-1 1-4 5-5h3z" fill="#1AB9A5"/>
<path transform="translate(1125,1162)" d="m0 0h2l-1 5-4 4h-2v2l-3 2h8l2-1-1 7 2 5h-5l-5-5v-2l-4-1-1-4 5-5 3-1 1-3z" fill="#21447C"/>
<path transform="translate(1036,1846)" d="m0 0h3l1 2v24l-5-2 2-7-2-5-6-9z" fill="#E3F5FC"/>
<path transform="translate(1710,349)" d="m0 0 1 2-6 9-5 9-11 17-7 10-5 7-2-1 16-25 10-15z" fill="#244882"/>
<path transform="translate(692,1342)" d="m0 0h2l1 5 8 1v3l-8 1 1 8-3 1-4-4-1-8h2v-4z" fill="#21447C"/>
<path transform="translate(719,1941)" d="m0 0 8 1v2h2v6l-5 7-4-2-1-2z" fill="#F9FCFD"/>
<path transform="translate(1689,1806)" d="m0 0h2l-1 19-6-2-2-3v-8z" fill="#FAFCFD"/>
<path transform="translate(974,1314)" d="m0 0 3 2-2 3 6 1 1 6h2v5l-5-1-8-6-3-5z" fill="#0E2A59"/>
<path transform="translate(616,1942)" d="m0 0 2 1 3 10v6l-3 4-4-1-1-2v-9z" fill="#1A3B6C"/>
<path transform="translate(449,1929)" d="m0 0h2l3 5v10l-4 9-3-1 1-19z" fill="#F4FAFD"/>
<path transform="translate(1040,941)" d="m0 0h5l10 10 9 14-1 4-1-2-3-1-5-9v-2l-4-2-4-6-2-1v-2l-4-1z" fill="#112F5F"/>
<path transform="translate(729,1045)" d="m0 0 2 1v4h2l-1 5-8 10-2-1 2-6 3-3 3-6h-2v2l-5 3-2 2-1 4-4-1 2-5 3-3h2l1-3z" fill="#21447C"/>
<path transform="translate(962,931)" d="m0 0h5l-1 3h-2v2h-4l-1-1-3 3h-7l-4 1-6-1 3-4z" fill="#122F60"/>
<path transform="translate(1411,1692)" d="m0 0h55v8l-2-4-6-2h-47z" fill="#0E2A59"/>
<path transform="translate(1107,1092)" d="m0 0 2 3 10 31-1 2h-3l-4-13-2-9-2-4v-2-4h-2v-2h2z" fill="#1F4469"/>
<path transform="translate(506,1691)" d="m0 0h6l-2 1-2 4-9 8h-5l1-5 6-7z" fill="#F7FAFB"/>
<path transform="translate(1398,424)" d="m0 0h3l2 5 3 18v5l-4-5-2-13-3-7h-9l-3 3v-5z" fill="#234780"/>
<path transform="translate(1279,379)" d="m0 0 1 2-8 13-7 11-10 14v3l3 2h-7l-1-2 28-42z" fill="#20437B"/>
<path transform="translate(1543,301)" d="m0 0 5 2 14 14 7 15v5l-3-4-6-11-8-11-9-9z" fill="#254A85"/>
<path transform="translate(322,1741)" d="m0 0 5 1v8l-4 8-4-1v-10z" fill="#F5FBFD"/>
<path transform="translate(580,1324)" d="m0 0h69v1l-21 2-48-2z" fill="#0E2A59"/>
<path transform="translate(1383,424)" d="m0 0h15v1h-13l1 42h20v1l-34 2v-2l11-1z" fill="#4673A6"/>
<path transform="translate(699,1035)" d="m0 0 3 3 5 12 1 4h-11l2-4-2-7 1-4z" fill="#F4F8FB"/>
<path transform="translate(826,966)" d="m0 0m-4 1h4v2l-15 5-10 1-5 2-10-2v-1l24-4z" fill="#0E2A59"/>
<path transform="translate(1405,1398)" d="m0 0h2l-1 5 7 2 1 2-1 3 5-2 3-3h2l-2 4-7 6h-2v-3l-4-2-6-7 2-4z" fill="#21447C"/>
<path transform="translate(1464,1942)" d="m0 0h2l1 2v19l-4-1-2-3v-9z" fill="#1C3E70"/>
<path transform="translate(527,1899)" d="m0 0 1 3-7 20-4 1-2-5z" fill="#F6FBFD"/>
<path transform="translate(894,942)" d="m0 0h9l-4 5-9 2h-11l3-5z" fill="#0F2B59"/>
<path transform="translate(283,1926)" d="m0 0 3 1 4 10-1 2-4-1-2 5h-2l-1-4v-9z" fill="#E3F5FC"/>
<path transform="translate(1577,431)" d="m0 0 3 1v10l-3 9-3 5-5 13-1-4 6-17 2-8z" fill="#254A85"/>
<path transform="translate(350,1834)" d="m0 0 4 4 12 17 10 13-1 3-4-2-3-3v-5l-7-8-6-8-5-9z" fill="#3966AD"/>
<path transform="translate(277,1899)" d="m0 0 6 2 13 5-1 3-6 4-8-8z" fill="#E5F5FC"/>
<path transform="translate(596,1692)" d="m0 0h11v9l2 1-3 3-4-2-1-3-4-3z" fill="#153562"/>
<path transform="translate(766,1241)" d="m0 0h12l11 1-3 3h-24v-2h-21v-1z" fill="#0C2754"/>
<path transform="translate(1375,1900)" d="m0 0 1 2-7 20-4 1-2-2 1-5 10-15z" fill="#F1F9FD"/>
<path transform="translate(1811,1901)" d="m0 0 1 3-7 19-4-1-1-5 9-14z" fill="#F4FBFD"/>
<path transform="translate(1466,1803)" d="m0 0h1v66l-4 1-3-3 1-4 3 1 1 2z" fill="#22457E"/>
<path transform="translate(1091,1830)" d="m0 0h5l-1 7-5 17-2-2 3-14-2-3-8-3v-1z" fill="#E3F5FC"/>
<path transform="translate(628,1691)" d="m0 0h27l-1 7-1-4h-29l-9-1v-1z" fill="#133162"/>
<path transform="translate(1582,458)" d="m0 0 2 1v5l1 4-3 3-4-1-1-3h-2l-2-6 3-2 3 1z" fill="#3865AC"/>
<path transform="translate(1568,1925)" d="m0 0 4 4 4 11-1 3-1-4h-2l-3-3-2-1v5h-2l-1-9z" fill="#E3F5FC"/>
<path transform="translate(1024,1935)" d="m0 0 4 4 2 6v12l-1 2h-2l-3-15z" fill="#F0F9FD"/>
<path transform="translate(964,1899)" d="m0 0 1 2-8 22-4-1-1-4 9-15z" fill="#F3FAFD"/>
<path transform="translate(1438,1881)" d="m0 0 4 1v2l5 1 1 3-4 4-5-1-5-4 1-4h3z" fill="#21457D"/>
<path transform="translate(530,1754)" d="m0 0h6l2 2-1 7-3 2-4-1-2-2v-6z" fill="#F8FCFD"/>
<path transform="translate(758,1490)" d="m0 0h37l-3 3-6 2-4-1v-1l-17-1-7-1z" fill="#0E2A59"/>
<path transform="translate(1554,1901)" d="m0 0 5 5 7 11-1 5-4 1-7-20z" fill="#E3F5FC"/>
<path transform="translate(359,1857)" d="m0 0 5 5 7 8 7 10 5 6 2 1-1 4-11-13-9-12-8-4 4-1z" fill="#3966AD"/>
<path transform="translate(1469,335)" d="m0 0 2 1-7 9-7 15-3 13-2 1 1-10 3-10 7-13z" fill="#22457D"/>
<path transform="translate(1286,1259)" d="m0 0 3 1 1 3 4 1 1 3v2l2 1v4l-6-1v-2h-2l-5-7z" fill="#21447C"/>
<path transform="translate(458,1903)" d="m0 0h1v24l-4-3v-18z" fill="#3966AD"/>
<path transform="translate(652,1702)" d="m0 0h3v24l-2 4-2-9v-13z" fill="#0E2A59"/>
<path transform="translate(1107,1180)" d="m0 0 3 1-3 1 3 5 2 5 5 1 1 3-5 1-12-10 1-3 3-1z" fill="#20437B"/>
<path transform="translate(1106,1257)" d="m0 0 3 4 4 8 1 4h-29v-1l21-2 1-4z" fill="#0F2C5B"/>
<path transform="translate(393,1836)" d="m0 0 5 2 1 2-2 4-5 3-4-1-1-4 4-5z" fill="#F3FAFD"/>
<path transform="translate(1310,332)" d="m0 0 1 2-7 11-11 17-6 9-3 2 2-5 10-16 8-11z" fill="#22457E"/>
<path transform="translate(1118,1902)" d="m0 0 5 5 6 9 1 4-3 3-3-1-6-18z" fill="#E3F5FC"/>
<path transform="translate(1298,1248)" d="m0 0h5v2l4 4-6 8-4 3-2-1 6-7-1-2-5-2 1-2z" fill="#21447C"/>
<path transform="translate(270,1902)" d="m0 0 5 5 7 12-3 4-3-1-6-17z" fill="#E3F5FC"/>
<path transform="translate(374,1758)" d="m0 0 5 1 1 1v7l-5 2-4-3v-6z" fill="#179FA0"/>
<path transform="translate(1555,296)" d="m0 0 5 2 7 5 4 5 5 5v2h2v3h2v2l-4-2-3-3-3-5-12-9z" fill="#2E5380"/>
<path transform="translate(504,1708)" d="m0 0h5l-1 5-7 5h-5v-3l4-5z" fill="#F7FCFD"/>
<path transform="translate(1395,974)" d="m0 0h71l-1 4-4-2-66-1z" fill="#051A40"/>
<path transform="translate(707,1902)" d="m0 0 4 4 7 12-1 4-3 1-5-12z" fill="#E4F5FC"/>
<path transform="translate(1465,1376)" d="m0 0h1v46l-4-1 2-1v-16l-1-9z" fill="#0D2958"/>
<path transform="translate(874,946)" d="m0 0 4 1-17 8h-2v2l-13 5-9 3-3-1 12-5 16-7z" fill="#0B2451"/>
<path transform="translate(420,622)" d="m0 0 4 1 12 9 5 3v2l-6-2-11-8-9 1 3-5z" fill="#84B1DA"/>
<path transform="translate(1030,1127)" d="m0 0 3 1 8 17 1 7h-2l-10-22z" fill="#143465"/>
<path transform="translate(912,939)" d="m0 0h9l-4 2 1 4-13 2-3-1 5-3-3-2z" fill="#0E2B59"/>
<path transform="translate(454,1875)" d="m0 0h3l3 4-2 10-4 4-1-6z" fill="#4572B6"/>
<path transform="translate(379,1784)" d="m0 0 2 2-7 9-10 9-9 6-3-1 17-13 9-10z" fill="#3966AD"/>
<path transform="translate(1477,451)" d="m0 0h2l4 8 1 3h2l5 5v2l4 1 3 2v2h-6l-4-5-2-2-6-7-3-6z" fill="#315786"/>
<path transform="translate(490,1826)" d="m0 0h10l3 1-1 4-10 1-5-3z" fill="#F6FBFD"/>
<path transform="translate(631,1410)" d="m0 0 9 1 1 4-4 2-11 1-1-2 5-4z" fill="#20437B"/>
<path transform="translate(244,1718)" d="m0 0 10 3 7 3-4 2-7 2-5-6z" fill="#E3F5FC"/>
<path transform="translate(1461,1324)" d="m0 0h6l-1 36h-2v-29l-3-5z" fill="#0E2A59"/>
<path transform="translate(1297,198)" d="m0 0h2v2l-22 9-5-1 5-4 7-3 10-2z" fill="#69C3EC"/>
<path transform="translate(1351,393)" d="m0 0h1l1 14v12h2l3 3 3 2h-10z" fill="#21447C"/>
<path transform="translate(1427,1382)" d="m0 0h2v5l-6 5-1 2-5-1 1-4 7-6z" fill="#163663"/>
<path transform="translate(874,904)" d="m0 0 4 1h-3l1 7 1 27h2l2 5-4 1-2-4z" fill="#FCF8F5"/>
<path transform="translate(1082,583)" d="m0 0 8 1-4 3-8 4h-8l-2-1v-2l12-2h2z" fill="#FDFEFE"/>
<path transform="translate(666,1904)" d="m0 0 2 3 3 9v5l-5 4-1-15 1-2z" fill="#E3F5FC"/>
<path transform="translate(795,1505)" d="m0 0h2l1 5 2 4-2 2-5-1-1-3-2-1v-2h-2v-2z" fill="#21447C"/>
<path transform="translate(1151,1241)" d="m0 0 12 1v1l-5 1-1 3 1 10h-2l-5-11z" fill="#112F5F"/>
<path transform="translate(1297,1929)" d="m0 0 3 1 3 5-1 9-5 14-2 1v-15l2 3 2-1 2-10-1-2h-3z" fill="#E3F5FC"/>
<path transform="translate(1007,1877)" d="m0 0h8v2l7 1-4 1h-2l-4 6-1-2-3-1z" fill="#62CAEE"/>
<path transform="translate(640,537)" d="m0 0h6l1 3 18 2-2 2h-13l-9-3z" fill="#D63E59"/>
<path transform="translate(1797,425)" d="m0 0h11v1l-8 1-1 8v22l-1 10h-1z" fill="#20437B"/>
<path transform="translate(782,1930)" d="m0 0 3 1 1 5v22l-3-3v-3h2l-1-11-5-5 2-5z" fill="#E3F5FC"/>
<path transform="translate(1074,1901)" d="m0 0 3 1 2 4v5l-10 1z" fill="#E3F5FC"/>
<path transform="translate(1585,445)" d="m0 0h2l-1 6h2l1-3h2v6h-2l-1 5-1-2-4-1-1-7h2z" fill="#3966AD"/>
<path transform="translate(392,1903)" d="m0 0 7 6 2 5-6-2-5-3-1 2v-2l-6 1v-2l8-3z" fill="#E3F5FC"/>
<path transform="translate(1033,1815)" d="m0 0h3l2 10 1 14h-2l-1-10-3-7-4-4z" fill="#E3F5FC"/>
<path transform="translate(1337,1256)" d="m0 0 4 2 7 7 3 5v2l-5-2-4-5v-2h-2l-4-4z" fill="#12325A"/>
<path transform="translate(576,1709)" d="m0 0h1v17l5 1v-2h4l-2 4-2 2h-4l-1 8h-1z" fill="#2C5392"/>
<path transform="translate(862,751)" d="m0 0 10 2v1l-6 2-2 1 1 14v16h-1l-2-25z" fill="#FDFEFE"/>
<path transform="translate(1037,1906)" d="m0 0h1l-1 9-2 8-3-1-1-6 4-8z" fill="#F8FCFD"/>
<path transform="translate(620,1409)" d="m0 0 3 1-1 6 2 4h-7v-2l-3-1v-3h2v-2z" fill="#21447C"/>
<path transform="translate(254,1863)" d="m0 0 8 3v2l6 2 11 5v2l-10-3-14-7z" fill="#3966AD"/>
<path transform="translate(1461,458)" d="m0 0 4 2 9 9 12 4v1l-9-1-10-6-6-7z" fill="#254A85"/>
<path transform="translate(1674,404)" d="m0 0 2 1-9 14-1 3h5l1 2h-11l2-4z" fill="#1C3E71"/>
<path transform="translate(891,1936)" d="m0 0h1l-1 7-6 15h-2l1-19h1l1 8h2l1-5z" fill="#E3F5FC"/>
<path transform="translate(1633,1938)" d="m0 0h1l1 11v9l-3-1-3-9v-3l3-1z" fill="#E3F5FC"/>
<path transform="translate(420,1936)" d="m0 0 4 2 5 5 2 3-1 5h-2l-7-11z" fill="#F1F8FC"/>
<path transform="translate(364,1911)" d="m0 0h6l-2 1-1 6 4 5-1 2-4-3h-3l-1-3 1-3-3-4z" fill="#E3F5FC"/>
<path transform="translate(699,1263)" d="m0 0 2 1-6 11-4 4-1-4 3-6 3-5z" fill="#183660"/>
<path transform="translate(1565,471)" d="m0 0 1 2-3 8-5 7h-2l-1 4-5 5h-3l10-12z" fill="#2D5594"/>
<path transform="translate(1406,452)" d="m0 0 2 1 2 7v5h2v4l-5-1-1-1z" fill="#EBE2EB"/>
<path transform="translate(1522,1935)" d="m0 0h1l1 23h-2l-4-11v-2l3-1z" fill="#E3F5FC"/>
<path transform="translate(1102,1767)" d="m0 0h1v26l-4-2 1-7v-7z" fill="#E3F5FC"/>
<path transform="translate(1030,1012)" d="m0 0 5 2-2 6-3 2-4-1 1-6h2z" fill="#163663"/>
<path transform="translate(1232,1517)" d="m0 0h13l6 2v2h-15v-1l-6-1z" fill="#0E2A59"/>
<path transform="translate(925,1517)" d="m0 0h10l3 1v3h-17l2-1v-2z" fill="#0E2A59"/>
<path transform="translate(646,1382)" d="m0 0h5l-1 3h3v7l-3 1-5-6z" fill="#21447C"/>
<path transform="translate(720,1457)" d="m0 0h3l4 10 1 3-2 2-4-5-3-9z" fill="#1B3C60"/>
<path transform="translate(1570,337)" d="m0 0 2 1 5 16 2 8v5l-2-2-4-15-3-8z" fill="#244983"/>
<path transform="translate(607,1693)" d="m0 0 5 1 3 3v3l-3 2-5-1-1-7z" fill="#21447C"/>
<path transform="translate(1067,1208)" d="m0 0 3 1 6 17v5l-3-4-4-10-3-8z" fill="#1D406A"/>
<path transform="translate(425,1932)" d="m0 0 6 2 1 3-2 6-3-1-4-4 1-4z" fill="#3E6BB0"/>
<path transform="translate(654,1417)" d="m0 0 2 4v1h-22l2-2 8-1 5 1 1-2z" fill="#0E2B5A"/>
<path transform="translate(1568,473)" d="m0 0 3 1 1 2 3 1 1-2-1 5-4 3v-2l-5-1 1-5z" fill="#3865AC"/>
<path transform="translate(1e3 1881)" d="m0 0h4l2 9-2 1-7-5z" fill="#E3F5FC"/>
<path transform="translate(1683,418)" d="m0 0v3l-2 4h-21v-1l12-1z" fill="#2C5492"/>
<path transform="translate(1279,379)" d="m0 0 1 2-8 13-5 8-3 1 2-5 12-18z" fill="#1C3E72"/>
<path transform="translate(971,1495)" d="m0 0 11 1 1 2h-27l-1-2h15z" fill="#0E2A59"/>
<path transform="translate(1040,995)" d="m0 0h2l-1 5-5 5h-4l2-6h2v-2z" fill="#163663"/>
<path transform="translate(988,691)" d="m0 0 1 2-4 6h-2l-2 4-12 13v-3l11-12z" fill="#FDFEFE"/>
<path transform="translate(1690,381)" d="m0 0 1 2-14 20-2-1 12-19z" fill="#20437B"/>
<path transform="translate(1507,283)" d="m0 0h12l5 4v2l3 1-2 1-12-5-6-2z" fill="#244C8D"/>
<path transform="translate(237,1932)" d="m0 0h1l1 26-3-2-2-10 2 1z" fill="#E3F5FC"/>
<path transform="translate(365,1735)" d="m0 0 3 1-5 10-2 6h-2l2-11z" fill="#1CB6AD"/>
<path transform="translate(1437,1372)" d="m0 0 3 1 2 6h-9v-6z" fill="#21447C"/>
<path transform="translate(957,1298)" d="m0 0 4 2 10 7 5 3-1 2-6-1-2-5-5-2-3-2v-2h-2z" fill="#121659"/>
<path transform="translate(793,1245)" d="m0 0 7 1 2 2v5l-5-1-4-3z" fill="#21447C"/>
<path transform="translate(727,1470)" d="m0 0 3 1 7 8 3 3-4 1-9-9z" fill="#153B64"/>
<path transform="translate(366,142)" d="m0 0h5l-3 3-10 2-9 3h-3v-2z" fill="#84AFE4"/>
<path transform="translate(1193,1932)" d="m0 0 2 1v7l-3 3h-2l-1-7z" fill="#F8FCFD"/>
<path transform="translate(997,1929)" d="m0 0 5 5 1 6-3 8h-1l1-12-2-2-1 5h-1v-9z" fill="#E3F5FC"/>
<path transform="translate(348,1934)" d="m0 0h1l1 12v12l-3-3-1-5 1-2z" fill="#E3F5FC"/>
<path transform="translate(1614,1916)" d="m0 0 5 3 5 5-1 5-3-1-4-8v-2h-2z" fill="#F3FAFD"/>
<path transform="translate(1182,1348)" d="m0 0 2 1v38h-3z" fill="#FAC6BB"/>
<path transform="translate(882,860)" d="m0 0h2l-1 7-2 4-5-4v-2z" fill="#EAF1F9"/>
<path transform="translate(676,565)" d="m0 0h1l1 15-3 9-4-2 4-10z" fill="#FAD2BE"/>
<path transform="translate(1210,243)" d="m0 0m-1 1m-1 1m-1 1m-2 1h2l-2 4-13 10h-3l12-11z" fill="#83AFE4"/>
<path transform="translate(401,1794)" d="m0 0 4 1 2 4 3 3-3 2v-3l-9-3z" fill="#80AFE9"/>
<path transform="translate(1581,414)" d="m0 0h1v13l-2 3-2 1 1-12z" fill="#274C88"/>
<path transform="translate(1495,328)" d="m0 0 3 1-3 3-8 6-2 1 2-6 4-4z" fill="#22467F"/>
<path transform="translate(1049,986)" d="m0 0 5 2 4 8-4-1-6-5z" fill="#21447C"/>
<path transform="translate(1725,326)" d="m0 0 2 1-9 15-6 7v-3l12-18z" fill="#234780"/>
<path transform="translate(515,1852)" d="m0 0h2v2l-8 1v3l-6 2-1-3-4-2z" fill="#80AFE9"/>
<path transform="translate(557,1761)" d="m0 0 5 1-1 4-4 2-4-4z" fill="#3966AD"/>
<path transform="translate(1245,222)" d="m0 0 4 1-6 3h-3v2l-4 2h-3l2-4 6-3z" fill="#6794D1"/>
<path transform="translate(1047,1835)" d="m0 0 1 3h2l-1 3-2 1 3 3h-7v-7h3z" fill="#63C9ED"/>
<path transform="translate(441,1682)" d="m0 0h1l1 7 7 1v2l-9 1-3-7 3-1z" fill="#4B78B7"/>
<path transform="translate(1577,365)" d="m0 0 1 2h2l1 12-1 6h-1l-2-13z" fill="#2E5696"/>
<path transform="translate(454,1910)" d="m0 0h1v13h-4l1-10z" fill="#A2D1F1"/>
<path transform="translate(420,622)" d="m0 0 4 1 2 4-11 1 3-5z" fill="#7CA9D7"/>
<path transform="translate(499,1965)" d="m0 0 4 2-1 7-2 3h-2z" fill="#E5F5FC"/>
<path transform="translate(1718,1919)" d="m0 0h2v2l-8 7-3 2 2-7 4-3z" fill="#26BAA7"/>
<path transform="translate(1457,355)" d="m0 0 1 2-4 16-2 1 1-10 2-8z" fill="#234781"/>
<path transform="translate(1754,291)" d="m0 0h5l2 5-4 1-5-1v-2h2z" fill="#3966AD"/>
<path transform="translate(1580,1965)" d="m0 0h2l1 3v9h-2l-2-5v-6z" fill="#EFF9FC"/>
<path transform="translate(296,1965)" d="m0 0 2 2v10h-2l-2-5v-6z" fill="#E7F6FC"/>
<path transform="translate(1081,1932)" d="m0 0 3 1v7l-4 1-2-4z" fill="#F8FCFD"/>
<path transform="translate(1067,1916)" d="m0 0 4 4v2l4 2 1 5-4-2-1-4h-2l-2-4z" fill="#BDE8F7"/>
<path transform="translate(402,1915)" d="m0 0 5 2 3 5v2l-4-1-4-4z" fill="#AEDFF4"/>
<path transform="translate(479,1691)" d="m0 0h20v1l-14 1-2 1-2-1-2 7h-1z" fill="#3966AD"/>
<path transform="translate(697,1498)" d="m0 0h2l6 7 5 3 5 5-5-1-10-9-3-3z" fill="#0F2B57"/>
<path transform="translate(1071,1490)" d="m0 0h5l3 3 3 1v2h-7l-5-3z" fill="#0E2A59"/>
<path transform="translate(1107,1092)" d="m0 0 2 3 3 11h-3l-2-4v-2-4h-2v-2h2z" fill="#254576"/>
<path transform="translate(940,1050)" d="m0 0h6l1 2-7 3-6-1 1-2z" fill="#123060"/>
<path transform="translate(734,1039)" d="m0 0 5 4 1 4h-5l-3-4v-3z" fill="#21447C"/>
<path transform="translate(1e3 671)" d="m0 0v3l-9 11-6 5 2-4 9-10z" fill="#F8FCFD"/>
<path transform="translate(1487,467)" d="m0 0h4v2l4 1 3 2v2h-6l-5-6z" fill="#224273"/>
<path transform="translate(964,1899)" d="m0 0 1 2-5 13-3-3 2-5z" fill="#E3F5FC"/>
<path transform="translate(284,1874)" d="m0 0 6 2 2 5-7-1-4-2 4-2z" fill="#7EACE7"/>
<path transform="translate(1785,1965)" d="m0 0h2v8l-2 4h-2l1-11z" fill="#EBF7FC"/>
<path transform="translate(430,1921)" d="m0 0v3l-3 4 4 6-4-1-3-3v-4z" fill="#7AB6E8"/>
<path transform="translate(1375,1900)" d="m0 0 1 2-4 11-1-2-4 2 2-5z" fill="#E4F5FC"/>
<path transform="translate(527,1899)" d="m0 0 1 3-4 11-3-3 2-5z" fill="#E3F5FC"/>
<path transform="translate(422,1886)" d="m0 0 2 1-4 8-2-1v-2l-5 2 5-5z" fill="#E3F5FC"/>
<path transform="translate(556,1834)" d="m0 0 1 2h-2v2h-3v2l-9 2 1-3z" fill="#80AFE9"/>
<path transform="translate(997,1323)" d="m0 0 4 1 4 5v7l-2-4-6-7z" fill="#0E2061"/>
<path transform="translate(1766,467)" d="m0 0h17v3h-10v-2h-7z" fill="#2D5695"/>
<path transform="translate(1275,412)" d="m0 0 2 1-7 11-5-1 1-2 5-3z" fill="#22467E"/>
<path transform="translate(637,205)" d="m0 0 4 1-3 3-7 1-5 1 1-3z" fill="#83AFE4"/>
<path transform="translate(185,1963)" d="m0 0h1l2 14-3-1-3-6 1-3 1 2z" fill="#E3F5FC"/>
<path transform="translate(1143,1965)" d="m0 0h2l1 4v8h-2l-2-10z" fill="#EFF9FC"/>
<path transform="translate(731,1965)" d="m0 0h2l2 7v5h-2l-2-4z" fill="#E6F6FC"/>
<path transform="translate(994,1948)" d="m0 0h5l-1 5-2 5h-2z" fill="#E3F5FC"/>
<path transform="translate(1847,1945)" d="m0 0 1 2-4 11h-2v-7l3-1 1-4z" fill="#E3F5FC"/>
<path transform="translate(1007,1877)" d="m0 0h7l-2 5-4 1z" fill="#F4FBFD"/>
<path transform="translate(336,1813)" d="m0 0 5 5v2l8-3 4-1-5 4-6 3-6-7z" fill="#3966AD"/>
<path transform="translate(1120,1132)" d="m0 0 2 4 2 5-1 3-5-5 1-5z" fill="#244C6D"/>
<path transform="translate(936,1965)" d="m0 0 3 1-1 9-3 2z" fill="#E3F5FC"/>
<path transform="translate(558,1940)" d="m0 0h1v11h2l-1 5-3 3z" fill="#E3F5FC"/>
<path transform="translate(1344,1499)" d="m0 0 1 2-5 6-7 5v-3l10-9z" fill="#153D6C"/>
<path transform="translate(790,1497)" d="m0 0 3 1-2 5-6 2 1-4z" fill="#21447C"/>
<path transform="translate(1057,1185)" d="m0 0 3 3v4l2 1 1 5-2 1-5-11z" fill="#163669"/>
<path transform="translate(1615,1883)" d="m0 0 3 4 2 5-6-1-2-6h3z" fill="#6AB556"/>
<path transform="translate(685,513)" d="m0 0h4l-1 10h-2z" fill="#E55A7B"/>
<path transform="translate(1764,494)" d="m0 0h1l1 21-5 1 2-4z" fill="#20437C"/>
<path transform="translate(1336,293)" d="m0 0h2l-2 5-7 9-2-1 8-12z" fill="#22467F"/>
<path transform="translate(692,196)" d="m0 0h18v1l-18 2z" fill="#83AFE4"/>
<path transform="translate(1811,1901)" d="m0 0 1 3-3 8-1-2-3 1 2-5z" fill="#E3F5FC"/>
<path transform="translate(1432,1885)" d="m0 0h2l5 5 4 3-4 2-7-8z" fill="#37A1B9"/>
<path transform="translate(640,537)" d="m0 0h6l1 6-6-2z" fill="#E55679"/>
<path transform="translate(1514,516)" d="m0 0 4 1-2 3h-12l4-2z" fill="#2E5797"/>
<path transform="translate(1664,419)" d="m0 0h2v3h5l1 2h-11l2-4z" fill="#1A3B6E"/>
<path transform="translate(1340,287)" d="m0 0h21l-3 5-1-4h-17z" fill="#20437B"/>
<path transform="translate(1348,1965)" d="m0 0h2v9l-1 2-3-1z" fill="#EDF8FC"/>
<path transform="translate(577,1692)" d="m0 0h13v1l-9 1-2 1-1 8h-1z" fill="#0D2957"/>
<path transform="translate(1463,1046)" d="m0 0 3 1v7h-5l-1-2h2z" fill="#0D2756"/>
<path transform="translate(741,508)" d="m0 0h1l-1 9-3 3-1-3 3-8z" fill="#C64B68"/>
<path transform="translate(740,443)" d="m0 0 3 1-8 6-4 2-3-1 11-7z" fill="#E04E6F"/>
<path transform="translate(1734,1929)" d="m0 0 5 5 1 6-2-3-3-3-1 5h-1v-8z" fill="#E3F5FC"/>
<path transform="translate(1037,1906)" d="m0 0h1l-1 9-1 6h-1l-1-12z" fill="#E3F5FC"/>
<path transform="translate(297,1907)" d="m0 0 8 1 4 2-7 2-5-2z" fill="#E3F5FC"/>
<path transform="translate(1460,1692)" d="m0 0h6v8l-2-4-4-1z" fill="#0C2855"/>
<path transform="translate(900,941)" d="m0 0 7 1 4 2-7 1-2 2-3-1 2-3z" fill="#133261"/>
<path transform="translate(1275,204)" d="m0 0 2 1-3 3 1 2-5 1-3-1v-2z" fill="#75B8EA"/>
<path transform="translate(1461,1863)" d="m0 0 3 1 2 3v3l-5-1-1-5z" fill="#21447B"/>
<path transform="translate(1386,1890)" d="m0 0 2 2v8l-1-2h-3l1-6z" fill="#E3F5FC"/>
<path transform="translate(248,1749)" d="m0 0 8 6 5 6-4-2-8-7z" fill="#3966AD"/>
<path transform="translate(1292,1242)" d="m0 0h11l-2 3h-7v-2z" fill="#0D2958"/>
<path transform="translate(1101,1072)" d="m0 0 2 4 2 9h-2l-3-9z" fill="#305778"/>
<path transform="translate(911,772)" d="m0 0h6l-4 3-4 4h-2l1-4z" fill="#1D4179"/>
</svg>
