<?xml version="1.0" encoding="UTF-8"?>
<svg version="1.1" viewBox="0 0 2000 2000" width="1280" height="1280" xmlns="http://www.w3.org/2000/svg">
<path transform="translate(0)" d="m0 0h2e3v2e3h-2e3z" fill="#FDFDFC"/>
<path transform="translate(840,186)" d="m0 0 18 2 14 5 11 7 10 9 4 6 5-2 11-8 15-7 14-4 26-4h28l29 4 24 6 22 8 24 12 16 10 13 10 10 9 9 12 6 11 3 8 1 6v18l-3 12-5 10 1 4 6 7 8 16 5 17 3 14 2 17v47l-1 10 19-13 11-7 12-5 5-1h21l13 4 11 6 6 4 1-13 11-76 6-12 6-7 10-6 10-3h12l13 4 9 7 6 8 4 9 1 5v11l-18 126-1 4-15 6-13 3-8 1-32 1-14 4-12 6-8 7h-2l-2 4-7 9-6 13-3 14v13l3 14 8 16 8 10 12 9 13 6 9 2 31 1 14 2 1 1v92l-2 5 2 24 53 539v24l-4 13-6 10-9 10-9 7-13 6-9 2h-18l-12-3-29-11-57-21-54-20-3-1v18l-11 346 1 8 20 48 7 17 5 4 2 1 18 1 10 5 6 8 2 7v21l-2 4-5 2h-111l-5-2-3-4-14-52-3 55-3 3h-8l-2-1-1-124-41-411-9-89-1 3-7 73-6 57-36 362v11l12 29 16 38 4 3 3 1 18 1 8 4 6 7 3 8v23l-3 4-3 1h-112l-6-3-3-7-12-45-1 1-3 52-2 2h-9l-2-1-1-141-15-490-1-25v-19l-8-1-6-7v-7l26-121-4-45-17-179-7-74v-6h-53l5-6 11-9 13-12 11-9 12-11 11-9 13-12 11-9 13-12 11-9 12-11 6-5-2-5-10-15-10-21-4-9-10 9-9 17h-1v-8l4-12 6-8v-1l-10 4-8 6-9 12-5 8-1-3 3-13 6-11 7-7 7-5-5-5-15-13-12-13-12-17-10-19-6-18-3-14-1-8v-29l3-22 5-21 4-13-6-2-8-6-9-9-8-14 1-2 8 7 12 6 1-1-7-6-7-10-6-12-3-12-1-15 2-13 5-14 7-11 9-10 13-9 12-5 8-2z" fill="#EBBF9B"/>
<path transform="translate(905,612)" d="m0 0 3 1 12 30 13 34 6 15v2l5 2 26 15 24 14 26 15 20 12 1 2-13 24-13 23-11 19-5-1-27-16-4-2 12 43 1 7v22l-6 40v13l11 107 8 76v2h101l-3-20-19-152-5-35 6-40 1-4 17-1 12-5 22-15 11-7v19l-11 132v8l18 49 17 46 10 27v10l-5 10-6 5-7 3h-3v18l-5 157-3 86-9 283 1 8 20 48 7 17 5 4 2 1 18 1 10 5 6 8 2 7v21l-2 4-5 2h-111l-5-2-3-4-14-52-3 55-3 3h-8l-2-1-1-124-41-411-9-89-1 3-7 73-6 57-36 362v11l12 29 16 38 4 3 3 1 18 1 8 4 6 7 3 8v23l-3 4-3 1h-112l-6-3-3-7-12-45-1 1-3 52-2 2h-9l-2-1-1-141-15-490-1-25v-19l-8-1-6-7v-7l26-121-4-45-17-179-6-65v-24l4-13 6-11 11-12 14-10 18-12 22-15z" fill="#292929"/>
<path transform="translate(1248,515)" d="m0 0h12l-3 2-14 7-8 7h-2l-2 4-7 9-6 13-3 14v13l3 14 8 16 8 10 12 9 13 6 9 2 31 1 14 2 1 1v92l-2 5 2 24 53 539v24l-4 13-6 10-9 10-9 7-13 6-9 2h-18l-12-3-29-11-57-21-54-20-3-1 5-162 1-18 12-5 6-8 2-5v-10l-18-49-17-46-10-27 1-20 10-120v-18l-20 14-14 9-10 4h-18l-11-4-18-10 1-5 12-22 16-30 13-23 3-6v-7l-4-4-16-9-10-6h-7l-5 8-2-2-4-16-10-67v-3l25-1 15-3 16-6 14-9 10-9 7-8 32-12v-3l-4-11-1-4v-22l4-13 8-13 5-6 12-9 11-5 13-3 17-1z" fill="#F3CF44"/>
<path transform="translate(834,762)" d="m0 0h1l8 87 14 147-2 13-24 111v7l5 6 8 2 1 19v21l-21-9-289-130-24-11-10-6-10-10-8-14-3-9-1-6v-16l3-13 7-13 9-10 7-6 16-11 20-14 9-7 11-10 11-9 12-11 11-9 13-12 4-3-70-1-10-4-9-7-6-9-3-12 1-12 4-10 9-10 10-5 10-2h286z" fill="#F5DF41"/>
<path transform="translate(534,236)" d="m0 0h28l25 4 21 6 18 8 16 9 13 10 14 12 11 12 13 18 12 23 8 24 4 20 1 10v26l-3 22-6 21-6 16-6 38 41-15 1 3-12 50-1 3 16-4 20-4 3 1-23 12-22 12-23 12h-2l1-8 9-36-55 20-1-3 2-13v-5l-11 8-16 9-19 8-18 5-17 3-12 1h-18l-24-3-19-5-16-6-16-8-18-12-14-12-11-11-13-17-9-15-8-17-6-18-4-19-1-8v-36l3-19 6-21 8-18 9-16 12-16 11-12 7-7 14-11 18-11 19-9 19-6z" fill="#E1413E"/>
<path transform="translate(905,612)" d="m0 0 3 1 12 30 13 34 6 15v2l5 2 26 15 24 14 26 15 20 12 1 2-13 24-13 23-11 19-5-1-27-16-4-2 12 43 1 7v22l-6 40v13l11 107 8 76v2h101l-3-20-19-152-5-35 6-40 1-4 17-1 12-5 22-15 11-7v19l-11 132v8l18 49 17 46 10 27v10l-5 10-6 5-7 3h-3v18h-1l-1-17-35 9-7-1-5-3-2-5-4-29-101-1 3 27-1 9-5 5-8 1-144-19-5-3-4-5v-7l26-121-4-45-17-179-6-65v-24l4-13 6-11 11-12 14-10 18-12 22-15z" fill="#343434"/>
<path transform="translate(996,1179)" d="m0 0h1l6 57 45 450v124h12l3-58 2 1 14 52 3 4 4 1h111l5-1 1-4v-21l-3-9-4-6 38 3 51 6 39 7 23 6 16 6 10 6 3 4v6l-6 7-12 6-19 6-27 6-38 6-24 3-55 5-50 3-55 2h-128l-56-2-51-3-54-5-44-6-32-6-23-6-15-6-10-7-2-7 3-5 5-4 12-6 24-7 36-7 35-5 49-5 22-1v41h11l1-1 3-52 1-5 2 4 13 48 2 4 5 2h112l4-2 1-2v-23l-4-10-7-6-5-2-18-1-6-3-4-6-17-41-9-22v-11l41-412 4-40z" fill="#E4E4E4"/>
<path transform="translate(840,186)" d="m0 0 18 2 14 5 11 7 10 9 4 6 5-2 11-8 15-7 14-4 26-4h28l29 4 24 6 22 8 24 12 16 10 13 10 10 9 9 12 6 11 3 8 1 6v18l-3 12-6 12-5-2-19-10-24-8-15-3-8-1h-33l-24 3-24 5-11 2-14-15-11-11-14-11-24-16-21-12-19-9-1 5 24 15 15 10 17 12 13 10 14 12 9 10 4 7 1 7-3 9-8 9-34 23-13 11-10 12-10 19-7 21-3 15-3 41-3 43-5 2-7 7-9 17h-1v-8l4-12 6-8v-1l-10 4-8 6-9 12-5 8-1-3 3-13 6-11 7-7 7-5-5-5-15-13-12-13-12-17-10-19-6-18-3-14-1-8v-29l3-22 5-21 4-13-6-2-8-6-9-9-8-14 1-2 8 7 12 6 1-1-7-6-7-10-6-12-3-12-1-15 2-13 5-14 7-11 9-10 13-9 12-5 8-2z" fill="#A03F35"/>
<path transform="translate(844,1135)" d="m0 0 56 7 83 11 10-1-4 7-5 3-21-1-44-4-3-1-1 38-4 114-5 143-3 86-5 143-1 10h6l3 4 13 30 8 18 6 7 10 5h18l3-3v-8l-1-6 3 1 9 21 4 3 3 1 18 1 8 4 6 7 3 8v23l-3 4-3 1h-112l-6-3-3-7-12-45-1 1-3 52-2 2h-9l-2-1-1-141-15-490-1-25z" fill="#1B1B1B"/>
<path transform="translate(997,1176)" d="m0 0 14 1 15 5 12 7 11 10 9 13 6 15 2 12 9 169 7 136 7 132 1 14 8 16 14 32 5 8 6 5 7 3h17l4-4v-10l3 1 7 17 5 4 2 1 18 1 10 5 6 8 2 7v21l-2 4-5 2h-111l-5-2-3-4-14-52-3 55-3 3h-8l-2-1-1-124-41-411-9-89z" fill="#1B1B1B"/>
<path transform="translate(1036,686)" d="m0 0 2 4 6 39 3 11 4-5 2-2h7l24 14 6 4 1 2v7l-14 26-13 24-15 28-4 8 6 2 16 9 8 3-2 17-4 28 8 57 18 145v4h-101l-1-2-11-106-8-77v-13l6-40v-22l-3-15-9-32v-3l6 2 22 13 5 3h3l13-24 12-21 11-20-3-3-52-30-22-13v-3l16 3h14l22-1 10-4 5-5 4-6z" fill="#D1D0D0"/>
<path transform="translate(996,1179)" d="m0 0h  l6 57 44 440v87l-65 1-6-3-4-6-17-41-9-22v-11l41-412 4-40z" fill="#FDFDFB"/>
<path transform="translate(1261,648)" d="m0 0h17l10 3 10 6 9 11 4 11 1 12-2 11-6 11-8 8-23 16-18 13-20 14-103 72-19 13-11 7-10 4h-18l-11-4-18-10 1-5 12-22 16-30 12-22 7-4 17-12 4-3h2l-11-39v-2l111-42z" fill="#EBBF9B"/>
<path transform="translate(905,612)" d="m0 0 3 1 12 30 13 34 6 15v2l5 2 26 15 24 14 26 15 20 12 1 2-13 24-13 23-11 19-5-1-27-16-4-2 12 43 1 7v22l-6 40v13l11 107v7l-4-5-13-26-10-19-11-24-3-13-1-9v-53l-5-25-11-42-5-17 2-17 2-14-6-2-22-13-48-28-9-8-6-10-2-8v-14l3-9 5-9 9-8 11-5 5-1h12l10 3 11 6-11-39v-6l5-5z" fill="#292929"/>
<path transform="translate(1248,515)" d="m0 0h12l-3 2-14 7-8 7h-2l-2 4-7 9-6 13-3 14v13l3 14 8 16 8 10 12 9 13 6 9 2 31 1 14 2 1 1v92l-2 5-4 3h-39l-4-2 5-5 23-16 10-9 6-11 2-11-1-12-4-11-8-10-10-6-10-3h-17l-127 48-26 10h-3l8 26 3 11v4l-16 11-11 8-2-1 3-6v-7l-4-4-16-9-10-6h-7l-5 8-2-2-4-16-10-67v-3l25-1 15-3 16-6 14-9 10-9 7-8 32-12v-3l-4-11-1-4v-22l4-13 8-13 5-6 12-9 11-5 13-3 17-1z" fill="#292929"/>
<path transform="translate(1311,329)" d="m0 0h12l13 4 9 7 6 8 4 9 1 5v11l-18 126-1 4-15 6-13 3-8 1-32 1-9 2-44 1-17 1-16 4-11 6-7 6h-2l-2 4-6 8-2 2 1-8 6-27 5-31 3-23 20-14 11-7 12-5 5-1h21l13 4 11 6 6 4 1-13 11-76 6-12 6-7 10-6z" fill="#EBC09C"/>
<path transform="translate(834,762)" d="m0 0h1l8 87 14 147-2 13-24 111v7l5 6 8 2 1 19v21l-21-9-40-18 1-10 18-83v-12l-13-137-13-138v-4h57z" fill="#DBBC3D"/>
<path transform="translate(1397,465)" d="m0 0h8l11 4 10 9 8 11 7 14 6 18 4 19 2 16v42l-3 22-4 17-7 19-7 13-8 10-7 6-8 4-9 1-9-2-10-6-9-10-9-16-6-16-5-21-3-23v-37l3-24 5-20 6-16 7-13 7-9 9-8z" fill="#D1D0D0"/>
<path transform="translate(556,922)" d="m0 0h23l15 3 12 5 11 6 10 8 9 9 9 13 6 12 4 14 1 6v25l-4 17-8 16-6 9-9 10-5 1-69-31-40-18-11-6-10-9-7-9-5-11-1-5 8-18 6-10 10-12 11-9 13-8 13-5z" fill="#F3D044"/>
<path transform="translate(945,357)" d="m0 0 2 1-9 19-9 24-7 25-4 19-3 27v20l2 17 5 21 7 20 8 16 9 16 10 14 9 11 11 12 11 11 14 11 11 8v1l-8-1-18-6-8-3-22-2h-9l-9 3-5 4-4 8-2 6h-2l-8-21-10-25-4 2-21 14-28 19-10 9-7 10-5 11-2 8-1 15h-1v-6h-53l5-6 11-9 13-12 11-9 12-11 11-9 13-12 11-9 13-12 11-9 12-11 6-5-2-5-10-15-10-21-3-9 4-58 2-26 4-19 7-19 9-17 11-13 9-8 14-10z" fill="#DFB28B"/>
<path transform="translate(573,263)" d="m0 0h3v179l-53 7h-8l-2-6-27-140-2-14 19-6z" fill="#FDFDFC"/>
<path transform="translate(875,245)" d="m0 0 5 2 21 13 15 10 17 12 13 10 14 12 9 10 4 7 1 7-3 9-8 9-12 8-13 1-14 1h-10l-18-2-13-4-11-6-10-8-8-8-6-10v10l4 16 5 11 4 8-7 3-9 2h-13l-10-4-7-8-4-10-2-11v-14l8-16 9-15 8-10 9-10 9-9 13-10z" fill="#B9493E"/>
<path transform="translate(950,204)" d="m0 0 3 1-4 6-1 3v10l4 9 6 8 8 8 16 8 16 5 24 4 11 1h46l20-3 7-2 2-4v-10l-4-9-4-7 5 2 13 10 12 11 10 11 8 14 5 15v9l-3 12-6 12-5-2-19-10-24-8-15-3-8-1h-33l-24 3-24 5-11 2-14-15-11-11-14-11-24-16-21-12-12-6 1-4 9-10 9-8 17-9 23-7z" fill="#A03F35"/>
<path transform="translate(789,900)" d="m0 0h1l3 28 11 115v12l-20 92-9-3-46-21v-34l2-26 4-27 6-28 10-32 10-24 12-25 12-21z" fill="#F3D044"/>
<path transform="translate(1136,832)" d="m0 0h1v19l-11 132v8l16 44-2 1 2 7-1 5-21 11h-28l-4-4-5-37-11-86-4-28 6-40 1-4 17-1 12-5 22-15z" fill="#353535"/>
<path transform="translate(968,190)" d="m0 0h28l29 4 24 6 22 8 24 12 16 10 13 10 10 9 9 12 6 11 3 8 1 6v9l-2-3-5-14-7-12-12-13-11-10-14-10 6 12 1 3v10l-5 5-9 3-16 2h-46l-25-3-21-5-16-7-8-6-9-9-5-9-2-5v-10l4-8-1-1-17 4-16 6-13 7-12 11-7 9-5-1v-4l8-11 12-12 15-10 13-6 14-4z" fill="#B9493E"/>
<path transform="translate(1036,686)" d="m0 0 2 4 6 39 3 11 4-5 2-2h7l24 14 6 4 1 2v7l-14 26-13 24-15 28-4 8 4 1-2 4-11 12-8 3h-10l-12-5-9-6-12-2h-4l-3-13-10-36v-3l6 2 22 13 5 3h3l13-24 12-21 11-20-3-3-52-30-22-13v-3l16 3h14l22-1 10-4 5-5 4-6z" fill="#FDFCFB"/>
<path transform="translate(1248,515)" d="m0 0h12l-3 2-14 7-8 7h-2l-2 4-7 9-6 13-3 14v13l3 14 8 16 8 10 12 9 13 6-3 1-57-2-16-4-11-6-9-7-8-10-7-15-2-8v-22l4-13 8-13 5-6 12-9 11-5 13-3 17-1z" fill="#E1413E"/>
<path transform="translate(927,778)" d="m0 0 5 1 35 20 6 19 7 26 1 7v22l-6 40v13l11 107v7l-4-5-13-26-10-19-11-24-3-13-1-9v-53l-5-25-11-42-5-17 2-17z" fill="#1B1B1B"/>
<path transform="translate(1216,432)" d="m0 0h21l13 4 11 6 5 4v8l-8 56-1 5-9 1-32 1-17 1-16 4-11 6-7 6h-2l-2 4-6 8-2 2 1-8 6-27 5-31 3-23 20-14 11-7 12-5z" fill="#F5DF41"/>
<path transform="translate(1301,662)" d="m0 0 5 5 4 8 2 11-1 12-4 10-6 8-9 8-19 13-18 13-20 14-103 72-19 13-11 7-10 4h-18l-11-4-18-10 1-5 12-22 15-28 2-1-1 12v25l4 9 6 1 17-8 23-14 26-17 25-17 20-14 17-12 14-10 18-13 19-14 15-12 9-7 7-10 5-14z" fill="#DFB28B"/>
<path transform="translate(1014,530)" d="m0 0h81l4 3v50l-4 12-9 12-10 7-10 4-5 1h-13l-13-4-11-7-8-10-4-8-2-7v-50z" fill="#E1413E"/>
<path transform="translate(889,623)" d="m0 0 2 1-1 1 1 9 9 33v3l-5-2-11-5-5-1h-12l-10 3-10 6-6 7-5 10-1 5v14l8 54 22 153 10 69v7l-12 36-14 44-12 36-5 16 1 8-3-3v-7l26-121-4-45-17-179-6-65v-24l4-13 6-11 11-12 14-10 18-12z" fill="#444141"/>
<path transform="translate(1140,1036)" d="m0 0 3 1 18 49 10 27v10l-5 10-6 5-7 3h-3v18h-1l-1-17-35 9-7-1-5-3-2-5-4-29-101-1v-1h101l-3-20-4-32 1-4 2-1 1 4h28l21-11z" fill="#353535"/>
<path transform="translate(1313,644)" d="m0 0 7 2 7 32 58 275 28 132v5l-2-3-64-227-24-85-10-35z" fill="#F5DF41"/>
<path transform="translate(1397,465)" d="m0 0h8l11 4 10 9 8 11 7 14 6 18 4 19 2 16v42l-3 22-4 17-7 19-7 13-8 10-7 6-8 4-9 1-9-2-10-6-9-10-9-16-6-16-5-21-3-23v-37l3-24 5-20 6-16 7-13 7-9 9-8zm-1 18-8 4-8 8-8 14-6 16-4 17-2 16v39l3 21 6 21 8 16 7 9 8 6 6 2 10-1 8-5 8-9 8-15 5-15 4-20 2-24v-11l-2-24-4-20-5-15-7-14-7-9-9-6-3-1z" fill="#E1423E"/>
<path transform="translate(1086,645)" d="m0 0 2 2 24 83 4 14v4l-16 11-11 8-2-1 3-6v-7l-4-4-16-9-10-6h-7l-5 8-2-2-4-16-10-67v-3l25-1 15-3z" fill="#424141"/>
<path transform="translate(834,762)" d="m0 0h1l6 66v9l-10 10-1 2h-2v2h-2l-2 4-11 13-10 13-12 17-2-4-12-126v-4h57z" fill="#DEC83B"/>
<path transform="translate(541,462)" d="m0 0h17l11 4 8 6 7 8 5 11 1 5v12l-3 10-6 10-9 8-8 4-8 2h-12l-11-3-10-7-8-9-4-9-1-4v-17l5-12 7-9 9-6z" fill="#FDFDFB"/>
<path transform="translate(439,764)" d="m0 0h16l11 2 10 6 8 9 4 9 1 6v8l-4 13-7 9-9 6-8 3h-28l-10-4-8-6-6-8-3-7-1-5v-10l3-10 6-9 8-7 10-4z" fill="#F5DF41"/>
<path transform="translate(1332,333)" d="m0 0 5 1 8 6 6 8 4 9 1 5v11l-18 126-1 4-15 6-13 3-8 1h-14l-5-1 16-12 8-9 9-15 8-20 6-26 4-33 2-23v-13l-2-20z" fill="#DFB28B"/>
<path transform="translate(563,1105)" d="m0 0 10 2 271 76 2-4v31l-10-3-49-18-157-58-54-20-13-5z" fill="#F5DF41"/>
<path transform="translate(1224,432)" d="m0 0h13l13 4 11 6 5 4v8l-8 56-1 5-9 1-40 1 4-1 1-13 10-70z" fill="#DEC93A"/>
<path transform="translate(904,581)" d="m0 0 4 2-1 29-25 17-28 19-10 9-7 10-5 11-2 8-1 15h-1v-6h-53l5-6 11-9 13-12 11-9 12-11 11-9 13-12 11-9 13-12 11-9 12-11z" fill="#F5DF41"/>
<path transform="translate(1280,616)" d="m0 0h31l18 4 13 5 14 8 7 21 8 15 5 6v2l-5-2-24-16-17-9-15-5-16-2-31-1-11-3-14-7-10-8-5-6v-1z" fill="#E4E4E4"/>
<path transform="translate(1010,202)" d="m0 0h15l14 2 12 4 12 7 7 7 3 6v7l-4 6-6 5-12 4-6 1h-14l-16-4-16-8-9-7-6-7-1-8 6-8 10-5z" fill="#D35445"/>
<path transform="translate(1248,653)" d="m0 0 2 1-17 12-40 28-17 12-23 16-17 12-19 13-2-3-10-35v-2l111-42z" fill="#DEC83A"/>
<path transform="translate(1331,800)" d="m0 0 9 6 17 14 28 133 28 132v5l-2-3-64-227-16-57z" fill="#F4D044"/>
<path transform="translate(1259,746)" d="m0 0h2v46l-4 5h-43l-2-1-16 11-43 30-14 10h-2v-15l12-9 103-72z" fill="#DBBC3C"/>
<path transform="translate(866,434)" d="m0 0h10l2 7 4 24-1 35-1 7-1 1h-16l-10-4-8-6-6-7-4-9-1-5v-12l3-10 8-11 10-7z" fill="#EBBF9B"/>
<path transform="translate(866,277)" d="m0 0h15l12 4 14 7 10 8 6 7 5 10v8l-4 6-8 3h-12l-15-4-12-7-12-12-6-10-3-10 2-6z" fill="#D35445"/>
<path transform="translate(904,1690)" d="m0 0h39l10 23 12 30v8l-4 4h-18l-10-5-7-8-20-45z" fill="#EBBF9B"/>
<path transform="translate(1091,1690)" d="m0 0h39l17 41 5 12v7l-5 5h-17l-10-5-7-8-11-24-11-25z" fill="#EBBF9B"/>
<path transform="translate(1100,856)" d="m0 0h3l-1 14-9 40-13 54-2 3-2-5-8-58 6-40 1-4 17-1z" fill="#1C1C1C"/>
<path transform="translate(1398,539)" d="m0 0h6l7 6 5 12 2 11v19l-4 16-4 8-4 4-7 1-6-4-6-12-3-15v-15l2-12 4-11 6-7z" fill="#FEFEFD"/>
<path transform="translate(871,671)" d="m0 0 13 2 10 4 12 9 6 9 1 3v9l-5 6-8 3h-9l-14-4-11-7-7-7-4-7-1-8 3-7 7-4z" fill="#424242"/>
<path transform="translate(1263,641)" d="m0 0 36 1 14 2 1 1v92l-2 5-4 3h-39l-4-2 5-5 23-16 10-9 6-11 2-11-1-12-4-11-8-10-10-6-10-3h-15z" fill="#A13F35"/>
<path transform="translate(1032,654)" d="m0 0h17l16 64 2 7-1 8-1 3-5-2h-7l-5 8-2-2-4-16-10-67z" fill="#292929"/>
<path transform="translate(1016,533)" d="m0 0h77l4 4v9l-5 6-3 1h-69l-5-3-3-4v-9z" fill="#FBFBFA"/>
<path transform="translate(779,1166)" d="m0 0 8 1 57 16 2-4v31l-10-3-49-18-2-1v-2l-4-2-3-4v-9z" fill="#DBBC3F"/>
<path transform="translate(878,1027)" d="m0 0 65 11 3 1-1 10-2 7-28 3h-9l-31-14 2-16z" fill="#1B1B1B"/>
<path transform="translate(1263,743)" d="m0 0 6 1h39l3-1 2 13 3 33-11-6-15-9-17-9-12-5v-15z" fill="#F5DF41"/>
<path transform="translate(904,581)" d="m0 0 4 2-1 29-50 34h-2v-10l-4-5v-4l11-9 13-12 11-9 12-11z" fill="#DEC83A"/>
<path transform="translate(1313,644)" d="m0 0 7 2 7 32 12 57v5l-5-2-10-7-10-6z" fill="#DEC93B"/>
<path transform="translate(1559,555)" d="m0 0h16l2 3-1 7-4 2-82 5-5-3v-6l2-3 5-1z" fill="#424242"/>
<path transform="translate(839,196)" d="m0 0h9l8 2 8 4 6 7v7l-3 5-8 4-4 1h-9l-8-3-8-6-4-7v-7l3-4z" fill="#B9493E"/>
<path transform="translate(996,1901)" d="m0 0h7l7 3h4 3l4 4 2 6h-4l-4-6 5 9-1 5-13 5-13 2-14-1-4-1v-11l5-8 8-5z" fill="#424242"/>
<path transform="translate(1474,618)" d="m0 0 9 1 65 16 2 2v6l-2 3h-9l-66-16-3-3 1-7z" fill="#424242"/>
<path transform="translate(1528,480)" d="m0 0h5l4 4v5l-6 4-29 13-27 12-6-1-2-3v-6l12-6 29-13z" fill="#424242"/>
<path transform="translate(1123,443)" d="m0 0h11l7 5 2 4 5-2 7-5-1 7-3 5-5 3h-2l-2 7-7 6-3 1h-8l-7-4-4-6v-11l4-6 3-3z" fill="#A23F35"/>
<path transform="translate(1e3 443)" d="m0 0h11l6 4 4 6v11l-7 8-5 2h-7l-6-3-5-6-1-5-5-2-5-5-2-8 4 2 9 6 2-5 5-4z" fill="#A13F35"/>
<path transform="translate(732,1153)" d="m0 0 8 1 40 11-1 6v9l4 5 2 2-9-2-40-15-2-1z" fill="#F4D044"/>
<path transform="translate(1137,1035)" d="m0 0h3l2 8-1 5-21 11h-28l-3-9v-3z" fill="#1B1B1B"/>
<path transform="translate(1263,641)" d="m0 0 36 1 14 2 1 1v92h-1l-1-39h-1v-12l-3-14-6-9-4-5-10-6-10-3h-15z" fill="#AC4338"/>
<path transform="translate(996,1179)" d="m0 0h1l6 57 3 33-10-3-8-3 7-74z" fill="#D8B33D"/>
<path transform="translate(794,1913)" d="m0 0h6l5 2 2-2 4 1v29l-4 5-3 1h-10l-6-3-1-5 5-1 2 3 5 1 4-1 1-7-4 3h-6l-6-4-2-5v-8l3-6z" fill="#424242"/>
<path transform="translate(890,1903)" d="m0 0 3 1 1 2v31l-1 2h-5v-3l-5 3h-8l-5-4-2-6 1-10 5-5 2-1 9 1 3 2v-12z" fill="#424242"/>
<path transform="translate(910,1903)" d="m0 0 4 2v11l5-3h7l6 5 1 3v10l-3 6-3 2h-9l-3-2-2 2-5-1v-33z" fill="#424242"/>
<path transform="translate(717,1903)" d="m0 0 4 1v34l-5 1-2-2-3 2h-9l-5-5-1-3v-10l3-5 5-3h6l4 2 1-10z" fill="#424242"/>
<path transform="translate(1123,1913)" d="m0 0 4 1 2 2 4-3h6l6 4 2 5v9l-4 6-3 2h-8l-3-2-1 10-1 2-5-1v-34z" fill="#424242"/>
<path transform="translate(1256,1913)" d="m0 0 4 1 2 1 4-2h6l5 2 4-2h6l4 3 1 3v18l-1 2h-5l-1-2-1-17-4-1h-2l-1 18-1 2h-5l-1-1-1-18-5-1-2 5-1 14-5 1-1-1v-24z" fill="#424242"/>
<path transform="translate(1235,1913)" d="m0 0h8l6 4 3 5v8l-3 6-5 3h-10l-5-3-3-6v-7l3-6z" fill="#424242"/>
<path transform="translate(1162,1766)" d="m0 0h13l14 3 3 2-1 5-9 3-7 1h-13l-14-3-3-3 2-4 8-3z" fill="#292929"/>
<path transform="translate(975,1766)" d="m0 0h12l12 2 6 3-1 5-8 3-10 1h-11l-11-2-6-4 2-4 8-3z" fill="#292929"/>
<path transform="translate(1145,570)" d="m0 0h1l1 18 4 13 2 5-31 12-2-1 8-11 12-23z" fill="#DEC83A"/>
<path transform="translate(1019,1923)" d="m0 0h2l-1 7-4 6-6 4-7 2h-14l-7-3-5-6-1-4 10 1h9l12-2z" fill="#424242"/>
<path transform="translate(1296,720)" d="m0 0h1v19l-2 4 13 1v1h-39l-4-2 5-5 23-16z" fill="#DF433E"/>
<path transform="translate(1103,1913)" d="m0 0h8l6 4 2 4v5l-3 2h-15l2 5 7 1 4-3 5 1-3 5-3 2h-11l-5-3-3-7 1-9 5-6z" fill="#424242"/>
<path transform="translate(1076,1913)" d="m0 0h8l6 4 2 4v5l-3 2h-15l2 5 7 1 4-3 5 1-3 5-3 2h-11l-5-3-3-7 1-9 5-6z" fill="#424242"/>
<path transform="translate(733,1913)" d="m0 0h8l6 4 2 4v5l-2 2h-16l2 5 7 1 4-3 5 1-3 5-3 2h-11l-5-3-3-7 1-9 4-5z" fill="#424242"/>
<path transform="translate(851,1913)" d="m0 0h7l5 3 3 3v8l-2 1-15 1 3 5h6l4-3h4l-1 5-5 3h-11l-5-4-2-4v-10l4-6z" fill="#424242"/>
<path transform="translate(1148,1141)" d="m0 0h1v7l-16 6-17 6h-10l-5-4-2-6v-6l2 1v2l5 2 7 1z" fill="#1B1B1B"/>
<path transform="translate(1164,1903)" d="m0 0 4 1v18l8-7 2-2 4 1-1 5-3 3 1 4 5 8-1 5-5-1-6-10-3 3-1 7-5 1-1-1v-33z" fill="#424242"/>
<path transform="translate(935,1913)" d="m0 0 4 1 5 12 2 4 6-16 4-1 1 1-1 8-9 23-5 4h-8l-1-5h7l1-7-7-18v-5z" fill="#424242"/>
<path transform="translate(1e3 362)" d="m0 0h11l11 4 9 8 3 4v3l-4-2-9-6-8-3h-14l-13 3-9 5-6 4 2-6 9-8 12-5z" fill="#A44036"/>
<path transform="translate(817,1913)" d="m0 0 4 1 2 1 4-2h6l5 4 1 3v17l-1 2h-5l-1-2-1-17-5-1-3 3-1 16-5 1-1-1v-24z" fill="#424242"/>
<path transform="translate(1126,362)" d="m0 0h11l11 3 9 6 4 8-1 4-5-7-8-4-9-2h-14l-9 4-8 6-3 2 1-5 9-10 8-4z" fill="#A44036"/>
<path transform="translate(758,1913)" d="m0 0h8l6 4-1 4h-4l-4-3-5 1v2l12 4 3 3v6l-5 5h-12l-5-4 1-5 4 1 3 3h6v-4l-11-4-3-4 1-5 3-3z" fill="#424242"/>
<path transform="translate(1208,1913)" d="m0 0h8l6 3 2 5-1 2-5-1-3-3h-7l-1 4v7l2 3 4 1 4-2 2-3 5 1-1 5-5 4h-11l-5-3-3-8 2-10 5-4z" fill="#424242"/>
<path transform="translate(1044,1903)" d="m0 0 6 1 1 4-6 1-1 5 5 1-1 3h-4v19l-1 2h-5l-1-1v-20l-5-1 1-3h4v-6l3-4z" fill="#424242"/>
<path transform="translate(1263,641)" d="m0 0 36 1-2 1v14l-14-7-5-1h-15z" fill="#DF443F"/>
<path transform="translate(1237,521)" d="m0 0 2 1-10 8-9 10-7 14-3 10-1 7-1 19h-1l-2-12v-11l3-14 7-14 10-11z" fill="#D35445"/>
<path transform="translate(1052,1913)" d="m0 0 4 1v2h2v-2l7-1 3 2v4l-9 1-1 2-1 15-1 2h-5l-1-2v-21z" fill="#424242"/>
<path transform="translate(1146,724)" d="m0 0 3 1-23 16-9 6-2-3-1-8z" fill="#F3D043"/>
<path transform="translate(1152,1913)" d="m0 0 4 1 1 1v22l-1 2h-5l-1-2v-22z" fill="#424242"/>
<path transform="translate(1236,1918)" d="m0 0h6l3 3v10l-3 3-4 1-5-4v-9z" fill="#FAF8F6"/>
<path transform="translate(918,1918)" d="m0 0 7 1 2 4v6l-3 5h-6l-3-3-1-7 3-5z" fill="#F9F5F1"/>
<path transform="translate(706,1918)" d="m0 0h5l3 3 1 8-2 4-7 1-3-3-1-7 3-5z" fill="#F9F5F1"/>
<path transform="translate(796,1918)" d="m0 0 7 1 2 3v8l-4 4h-5l-3-3v-10z" fill="#F8F6F3"/>
<path transform="translate(1132,1918)" d="m0 0h5l3 3v10l-3 3h-6l-3-4v-7l2-4z" fill="#F9F6F4"/>
<path transform="translate(879,1918)" d="m0 0 6 1 2 3v8l-3 4h-6l-3-4v-8z" fill="#F9F8F6"/>
<path transform="translate(778,1913)" d="m0 0 4 1 1 1v23l-5 1-1-1v-24z" fill="#424242"/>
<path transform="translate(988,1908)" d="m0 0 5 2 3 4-1 5-3 3-4 1-5-3-1-1v-7l3-3z" fill="#FAF9F6"/>
<path transform="translate(829,681)" d="m0 0h1l-1 20h-1v-6h-17v-2z" fill="#DFC649"/>
<path transform="translate(1136,832)" d="m0 0h1v11l-9 3-5 1h-7l4-4z" fill="#424242"/>
<path transform="translate(1111,727)" d="m0 0h21l2 2-12 5-9 3z" fill="#DBBC3C"/>
<path transform="translate(1e3 447)" d="m0 0 6 2 1 2v6l-4 3-6-1-2-2v-6l2-3z" fill="#F8F3EE"/>
<path transform="translate(1122,447)" d="m0 0 5 1 3 3v5l-4 4-6-1-3-4 2-6z" fill="#F8F3EE"/>
<path transform="translate(1134,1699)" d="m0 0 3 1 16 39-3 2-16-39z" fill="#2A2727"/>
<path transform="translate(947,1698)" d="m0 0h2l11 25 5 12v2l-3 1-15-37z" fill="#272626"/>
<path transform="translate(1017,1922)" d="m0 0h2v2l-12 5-12 2h-9l-8-1-1-2h16l13-2z" fill="#EBDBCC"/>
<path transform="translate(1259,746)" d="m0 0h2v13l-11-4 2-4z" fill="#DDC83A"/>
<path transform="translate(882,466)" d="m0 0h2l-1 22-1 16-1 4-2-1 1-7 1-30z" fill="#B4473B"/>
<path transform="translate(851,1918)" d="m0 0h7l2 3v3h-11l1-5z" fill="#F9F6F2"/>
<path transform="translate(1104,1918)" d="m0 0h6l3 5v1h-12l1-4z" fill="#F8F6F4"/>
<path transform="translate(1077,1918)" d="m0 0h6l3 5v1h-12l1-4z" fill="#F8F7F5"/>
<path transform="translate(734,1918)" d="m0 0h6l3 4v2h-12l2-5z" fill="#F8F6F4"/>
<path transform="translate(1007,1909)" d="m0 0h5l1 1v6l-1 1h-5l-2-2 1-5z" fill="#F9F6F2"/>
<path transform="translate(995,1891)" d="m0 0 4 2-2 5h6v2l-14 1v-2l6-1-2-5z" fill="#424242"/>
<path transform="translate(877,1752)" d="m0 0 2 4 2 7v5h-5v-11z" fill="#F3EDE7"/>
<path transform="translate(1134,1699)" d="m0 0 3 1 7 18-3 1-7-17z" fill="#2E2726"/>
<path transform="translate(1017,1922)" d="m0 0h2v2l-12 5-9 1 1-2 16-5z" fill="#ECE6E1"/>
<path transform="translate(975,1908)" d="m0 0h2l-1 5-3 8h-2v-8l-2-1h4z" fill="#424242"/>
<path transform="translate(1190,1932)" d="m0 0 4 1 1 5-1 1h-5l-1-5z" fill="#424242"/>
<path transform="translate(959,1723)" d="m0 0 2 3 4 9v2l-3 1-4-10z" fill="#2A2727"/>
<path transform="translate(1063,1752)" d="m0 0 2 1 2 7v4h-4z" fill="#EEE6DF"/>
<path transform="translate(1151,1904)" d="m0 0h5l1 4-2 2-4-1-1-3z" fill="#424242"/>
<path transform="translate(778,1904)" d="m0 0 5 1-1 5-5-1z" fill="#424242"/>
<path transform="translate(1142,1718)" d="m0 0 3 1 3 9-4-2-2-5z" fill="#252525"/>
<path transform="translate(563,1105)" d="m0 0 10 2 6 2-1 2-10-3-5-2z" fill="#F5DC41"/>
</svg>
